<svg width="622" height="232" viewBox="0 0 622 232" fill="none" xmlns="http://www.w3.org/2000/svg">
<path d="M130.544 20.5014L13.0199 47.2694C7.43094 48.5424 1.86794 45.0434 0.594941 39.4544C-0.678059 33.8654 2.82094 28.3025 8.40994 27.0294L125.934 0.261445C131.523 -1.01156 137.086 2.48745 138.359 8.07645C139.633 13.6654 136.134 19.2284 130.544 20.5014Z" fill="#DDDDDD"/>
<path d="M167.755 183.872L50.2299 210.64C44.6409 211.913 41.1419 217.476 42.4149 223.065C43.6879 228.654 49.2509 232.153 54.8399 230.88L172.364 204.112C177.953 202.839 181.452 197.276 180.179 191.687C178.907 186.098 173.344 182.599 167.755 183.872Z" fill="#DDDDDD"/>
<path d="M13.087 56.5234C12.05 56.5234 11.112 55.8085 10.872 54.7545L7.84197 41.4535C7.70797 40.8655 7.81397 40.2485 8.13397 39.7375C8.45497 39.2265 8.96597 38.8644 9.55397 38.7304L129.97 11.3034C130.556 11.1714 131.176 11.2755 131.686 11.5955C132.196 11.9165 132.558 12.4274 132.692 13.0154L135.721 26.3164C136 27.5404 135.233 28.7595 134.009 29.0385L13.593 56.4655C13.424 56.5045 13.254 56.5234 13.087 56.5234ZM12.781 42.6605L14.801 51.5274L130.783 25.1104L128.763 16.2434L12.781 42.6605Z" fill="#DDDDDD"/>
<path d="M50.2969 219.894C49.2599 219.894 48.3219 219.179 48.0819 218.125L45.0519 204.823C44.9179 204.235 45.0239 203.618 45.3439 203.108C45.6649 202.597 46.1759 202.235 46.7639 202.101L167.18 174.674C167.767 174.542 168.385 174.645 168.896 174.966C169.406 175.287 169.768 175.798 169.902 176.386L172.931 189.687C173.21 190.911 172.443 192.13 171.219 192.409L50.8029 219.836C50.6339 219.876 50.4639 219.894 50.2969 219.894ZM49.9919 206.031L52.0119 214.899L167.994 188.482L165.974 179.615L49.9919 206.031Z" fill="#DDDDDD"/>
<path d="M56.9079 204.397C56.4829 204.397 56.0629 204.278 55.6979 204.048C55.1879 203.727 54.8249 203.216 54.6909 202.628L20.5099 52.5585C20.2309 51.3345 20.9979 50.1155 22.2219 49.8365L123.361 26.8005C123.948 26.6675 124.566 26.7725 125.077 27.0925C125.587 27.4135 125.949 27.9245 126.083 28.5125L160.264 178.582C160.543 179.806 159.776 181.025 158.552 181.304L57.4129 204.34C57.2459 204.378 57.0769 204.397 56.9079 204.397ZM25.4489 53.7655L58.6199 199.402L155.325 177.376L122.154 31.7395L25.4489 53.7655Z" fill="#DDDDDD"/>
<path d="M140.957 111.434C145.033 111.434 148.338 108.13 148.338 104.053C148.338 99.977 145.033 96.6725 140.957 96.6725C136.881 96.6725 133.576 99.977 133.576 104.053C133.576 108.13 136.881 111.434 140.957 111.434Z" fill="#DDDDDD"/>
<path d="M39.8179 134.47C43.8943 134.47 47.1989 131.166 47.1989 127.089C47.1989 123.013 43.8943 119.708 39.8179 119.708C35.7415 119.708 32.4369 123.013 32.4369 127.089C32.4369 131.166 35.7415 134.47 39.8179 134.47Z" fill="#DDDDDD"/>
<path d="M84.146 198.193C83.763 198.193 83.383 198.096 83.044 197.908C72.699 192.173 66.414 184.574 64.362 175.324C61.222 161.166 68.893 147.84 73.745 141.158C81.665 129.897 81.612 123.3 80.371 117.853C79.13 112.406 76.322 106.436 64.276 99.6994C57.038 95.7934 44.353 87.1054 41.053 72.9844C38.896 63.7574 41.271 54.1854 48.112 44.5364C48.435 44.0794 48.916 43.7585 49.462 43.6345L96.126 33.0064C96.671 32.8844 97.244 32.9634 97.734 33.2354C108.078 38.9704 114.364 46.5694 116.417 55.8204C119.557 69.9784 111.886 83.3035 107.034 89.9865C99.113 101.248 99.167 107.844 100.408 113.291C101.648 118.738 104.457 124.708 116.503 131.445C123.741 135.351 136.425 144.039 139.726 158.16C141.883 167.387 139.508 176.958 132.668 186.608C132.345 187.065 131.863 187.386 131.318 187.51L84.654 198.138C84.484 198.174 84.314 198.193 84.146 198.193ZM51.327 47.8715C45.65 56.1655 43.682 64.2625 45.479 71.9485C47.594 80.9955 55.243 89.6574 66.464 95.7134C80.127 103.354 83.4 110.681 84.803 116.842C86.206 123.003 86.429 131.025 77.443 143.801C69.931 154.148 66.788 165.268 68.8 174.339C70.509 182.045 75.789 188.49 84.498 193.508L129.447 183.27C135.124 174.976 137.092 166.879 135.295 159.193C133.18 150.146 125.531 141.484 114.309 135.428C100.646 127.786 97.373 120.46 95.971 114.299C94.567 108.138 94.344 100.118 103.331 87.3405C110.843 76.9945 113.986 65.8744 111.975 56.8034C110.265 49.0974 104.985 42.6515 96.276 37.6335L51.327 47.8715Z" fill="#DDDDDD"/>
<path d="M121.504 148.155C118.971 142.588 112.595 139.928 106.83 141.972C103.882 143.017 101.733 144.988 100.289 147.757C99.6209 149.036 99.3249 150.434 98.9699 151.812C98.9179 152.011 98.7989 152.499 98.7989 152.499C98.7989 152.499 98.4779 152.11 98.3459 151.955C98.2149 151.799 98.0849 151.643 97.9549 151.487C97.6809 151.157 97.2359 151.048 96.8249 151.174C96.6799 151.218 96.5309 151.255 96.3769 151.285C96.0449 151.348 95.7179 151.37 95.4059 151.355C94.5999 151.317 93.7829 151.472 93.0479 151.804C92.7629 151.933 92.4509 152.032 92.1189 152.095C91.7859 152.159 91.4579 152.181 91.1449 152.166C90.3399 152.127 89.5229 152.284 88.7879 152.615C88.5029 152.744 88.1909 152.843 87.8589 152.906C87.5259 152.97 87.1989 152.992 86.8859 152.977C86.0799 152.938 85.2629 153.096 84.5269 153.427C84.2429 153.555 83.9309 153.654 83.5999 153.717C83.2669 153.781 82.9399 153.803 82.6269 153.788C81.8219 153.749 81.0039 153.906 80.2689 154.238C79.9849 154.366 79.6729 154.466 79.3419 154.529C78.8439 154.624 78.3579 154.626 77.9149 154.55C77.3969 154.461 76.9119 154.835 76.7869 155.345C76.5429 156.339 76.4259 157.381 76.4509 158.456C76.5299 161.715 77.7459 164.606 79.7399 167.173C80.9429 168.721 82.4179 170.04 84.0129 171.18C87.4509 173.636 91.1879 175.587 94.8879 177.592C102.302 181.608 106.235 185.353 106.292 185.403C106.322 185.332 108.246 180.254 113.189 173.424C115.672 169.995 118.211 166.598 120.25 162.869C121.167 161.193 121.906 159.413 122.315 157.548C123.022 154.33 122.871 151.16 121.504 148.155Z" fill="#B78787"/>
<path d="M86.8139 144.929C86.8089 144.926 86.8029 144.923 86.7979 144.921C86.3989 144.722 85.9099 144.849 85.6679 145.216C85.5049 145.463 84.9929 146.207 84.9929 146.207C84.9889 146.213 84.9849 146.219 84.9799 146.225C84.6929 146.633 84.8079 147.192 85.2329 147.462C85.6599 147.732 86.2309 147.607 86.4969 147.184C86.6729 146.904 86.8949 146.548 87.1599 146.121C87.4209 145.701 87.2619 145.152 86.8139 144.929Z" fill="#B78787"/>
<path d="M83.5939 149.609C83.5899 149.605 83.5839 149.603 83.5799 149.6C83.2259 149.373 82.7829 149.497 82.5559 149.888C82.4039 150.151 81.9259 150.943 81.9259 150.943C81.9219 150.949 81.9179 150.956 81.9139 150.962C81.6459 151.396 81.7359 152.005 82.1129 152.309C82.4899 152.614 83.0069 152.494 83.2569 152.043C83.4219 151.744 83.6299 151.366 83.8779 150.909C84.1209 150.462 83.9919 149.863 83.5939 149.609Z" fill="#B78787"/>
<path d="M89.9239 138.478C89.9149 138.473 89.9059 138.469 89.8969 138.464C89.4359 138.229 88.8759 138.432 88.6779 138.91C88.3409 139.725 87.9739 140.548 87.5729 141.381C87.3949 141.75 87.4839 142.189 87.7829 142.469C87.7879 142.474 87.7929 142.478 87.7979 142.483C88.2659 142.92 89.0289 142.756 89.2829 142.168C89.6639 141.287 90.0219 140.431 90.3559 139.592C90.5269 139.166 90.3349 138.685 89.9239 138.478Z" fill="#B78787"/>
<path d="M91.143 132.877L91.1199 132.874C90.6639 132.809 90.233 133.096 90.115 133.541C89.965 134.106 89.8019 134.673 89.6199 135.244C89.4929 135.644 89.6609 136.077 90.0239 136.288C90.0309 136.292 90.037 136.296 90.044 136.299C90.531 136.58 91.1569 136.344 91.3339 135.81C91.5339 135.208 91.719 134.613 91.889 134.021C92.04 133.494 91.686 132.955 91.143 132.877Z" fill="#B78787"/>
<path d="M107.668 60.7904C100.518 67.7904 87.8239 70.1755 79.3809 67.2335C70.9379 64.2905 58.2369 66.6785 51.0869 73.6775C53.7189 80.3535 60.0029 86.7184 68.7669 91.4454L68.8629 91.4934C81.0229 98.2994 87.2079 105.557 89.5319 115.762C89.5799 115.971 89.6229 116.179 89.6639 116.387C89.7459 116.804 90.1209 117.097 90.5449 117.083C90.5509 117.083 90.5569 117.083 90.5629 117.082C91.1009 117.064 91.4889 116.564 91.3819 116.037C91.3379 115.818 91.2909 115.597 91.2389 115.373C88.9149 105.168 91.3459 95.9485 99.3589 84.5475L99.4249 84.4624C105.279 76.4054 108.187 67.9474 107.668 60.7904Z" fill="#B78787"/>
<path d="M91.456 122.666C90.943 122.682 90.543 123.11 90.555 123.622C90.565 124.046 90.565 124.47 90.556 124.895C90.546 125.393 90.922 125.815 91.418 125.856C91.966 125.901 92.434 125.47 92.438 124.92C92.441 124.47 92.433 124.014 92.415 123.553C92.395 123.045 91.964 122.651 91.456 122.666Z" fill="#B78787"/>
<path d="M91.1269 121.042C91.6649 121.042 92.0809 120.575 92.0229 120.04C91.9839 119.673 91.9379 119.302 91.8859 118.925C91.8239 118.481 91.4339 118.159 90.9859 118.178C90.9699 118.179 90.9539 118.179 90.9389 118.18C90.4319 118.201 90.0559 118.654 90.1179 119.158C90.1609 119.511 90.1979 119.864 90.2289 120.216C90.2699 120.683 90.6589 121.042 91.1269 121.042Z" fill="#B78787"/>
<path d="M91.4909 127.313C90.9789 127.312 90.562 127.717 90.542 128.229C90.515 128.91 90.464 129.595 90.391 130.284C90.337 130.788 90.6989 131.236 91.2039 131.293C91.2169 131.294 91.229 131.296 91.242 131.297C91.742 131.356 92.2009 131.007 92.2599 130.507C92.3469 129.771 92.407 129.035 92.438 128.294C92.46 127.759 92.0269 127.314 91.4909 127.313Z" fill="#B78787"/>
<path d="M190.622 85L203.726 55.6H210.446L223.592 85H216.452L205.7 59.044H208.388L197.594 85H190.622ZM197.174 78.7L198.98 73.534H214.1L215.948 78.7H197.174ZM229.162 85V55.6H235.966V85H229.162ZM269.538 85.504C267.186 85.504 264.932 85.196 262.776 84.58C260.62 83.936 258.884 83.11 257.568 82.102L259.878 76.978C261.138 77.874 262.622 78.616 264.33 79.204C266.066 79.764 267.816 80.044 269.58 80.044C270.924 80.044 272.002 79.918 272.814 79.666C273.654 79.386 274.27 79.008 274.662 78.532C275.054 78.056 275.25 77.51 275.25 76.894C275.25 76.11 274.942 75.494 274.326 75.046C273.71 74.57 272.898 74.192 271.89 73.912C270.882 73.604 269.762 73.324 268.53 73.072C267.326 72.792 266.108 72.456 264.876 72.064C263.672 71.672 262.566 71.168 261.558 70.552C260.55 69.936 259.724 69.124 259.08 68.116C258.464 67.108 258.156 65.82 258.156 64.252C258.156 62.572 258.604 61.046 259.5 59.674C260.424 58.274 261.796 57.168 263.616 56.356C265.464 55.516 267.774 55.096 270.546 55.096C272.394 55.096 274.214 55.32 276.006 55.768C277.798 56.188 279.38 56.832 280.752 57.7L278.652 62.866C277.28 62.082 275.908 61.508 274.536 61.144C273.164 60.752 271.82 60.556 270.504 60.556C269.188 60.556 268.11 60.71 267.27 61.018C266.43 61.326 265.828 61.732 265.464 62.236C265.1 62.712 264.918 63.272 264.918 63.916C264.918 64.672 265.226 65.288 265.842 65.764C266.458 66.212 267.27 66.576 268.278 66.856C269.286 67.136 270.392 67.416 271.596 67.696C272.828 67.976 274.046 68.298 275.25 68.662C276.482 69.026 277.602 69.516 278.61 70.132C279.618 70.748 280.43 71.56 281.046 72.568C281.69 73.576 282.012 74.85 282.012 76.39C282.012 78.042 281.55 79.554 280.626 80.926C279.702 82.298 278.316 83.404 276.468 84.244C274.648 85.084 272.338 85.504 269.538 85.504ZM285.317 85L298.421 55.6H305.141L318.287 85H311.147L300.395 59.044H303.083L292.289 85H285.317ZM291.869 78.7L293.675 73.534H308.795L310.643 78.7H291.869ZM330.157 68.83H344.269V74.29H330.157V68.83ZM330.661 85H323.857V55.6H346.075V61.06H330.661V85ZM359.46 67.444H373.614V72.736H359.46V67.444ZM359.964 79.54H375.966V85H353.202V55.6H375.42V61.06H359.964V79.54ZM389.989 85V61.144H380.581V55.6H406.201V61.144H396.793V85H389.989ZM419.116 85V72.988L420.67 77.104L407.734 55.6H414.958L424.87 72.106H420.712L430.666 55.6H437.344L424.408 77.104L425.92 72.988V85H419.116Z" fill="#DDDDDD"/>
<path d="M222.627 162.044C217.813 162.044 213.376 161.29 209.316 159.782C205.314 158.216 201.805 156.012 198.789 153.17C195.831 150.328 193.511 146.993 191.829 143.165C190.205 139.337 189.393 135.132 189.393 130.55C189.393 125.968 190.205 121.763 191.829 117.935C193.511 114.107 195.86 110.772 198.876 107.93C201.892 105.088 205.43 102.913 209.49 101.405C213.55 99.839 218.016 99.056 222.888 99.056C228.282 99.056 233.125 99.955 237.417 101.753C241.767 103.551 245.421 106.161 248.379 109.583L239.331 117.935C237.127 115.615 234.72 113.904 232.11 112.802C229.5 111.642 226.658 111.062 223.584 111.062C220.626 111.062 217.929 111.526 215.493 112.454C213.057 113.382 210.94 114.716 209.142 116.456C207.402 118.196 206.039 120.255 205.053 122.633C204.125 125.011 203.661 127.65 203.661 130.55C203.661 133.392 204.125 136.002 205.053 138.38C206.039 140.758 207.402 142.846 209.142 144.644C210.94 146.384 213.028 147.718 215.406 148.646C217.842 149.574 220.51 150.038 223.41 150.038C226.194 150.038 228.891 149.603 231.501 148.733C234.169 147.805 236.75 146.268 239.244 144.122L247.248 154.301C243.942 156.795 240.085 158.709 235.677 160.043C231.327 161.377 226.977 162.044 222.627 162.044ZM234.372 152.474V129.593H247.248V154.301L234.372 152.474ZM260.688 161V110.975H274.434V161H260.688ZM303.279 161L281.529 110.975H296.145L314.589 154.91H306.15L324.942 110.975H338.601L316.851 161H303.279ZM358.04 130.637H382.226V140.642H358.04V130.637ZM359.432 150.473H386.141V161H345.86V110.975H385.184V121.502H359.432V150.473ZM412.165 161L392.242 100.1H406.858L424.171 154.04H416.863L434.959 100.1H448.009L465.409 154.04H458.362L476.11 100.1H489.595L469.672 161H454.534L439.135 113.672H443.137L427.303 161H412.165ZM497.641 161V110.975H511.387V161H497.641ZM537.795 149.777L537.012 134.465L559.458 110.975H574.596L552.846 134.291L545.19 142.034L537.795 149.777ZM525.528 161V110.975H539.1V161H525.528ZM559.719 161L542.754 140.12L551.715 130.55L575.727 161H559.719ZM582.727 161V110.975H596.473V161H582.727Z" fill="#B49696"/>
</svg>
