<svg width="550" height="232" viewBox="0 0 550 232" fill="none" xmlns="http://www.w3.org/2000/svg">
<path d="M130.544 21.287L13.02 48.055C7.431 49.328 1.868 45.829 0.595002 40.24C-0.677998 34.651 2.821 29.088 8.41 27.815L125.934 1.047C131.523 -0.226002 137.086 3.273 138.359 8.862C139.633 14.451 136.134 20.014 130.544 21.287Z" fill="#1D1D1D"/>
<path d="M167.755 184.658L50.23 211.426C44.641 212.699 41.142 218.262 42.415 223.851C43.688 229.44 49.251 232.939 54.84 231.666L172.364 204.898C177.953 203.625 181.452 198.062 180.179 192.473C178.907 186.884 173.344 183.385 167.755 184.658Z" fill="#1D1D1D"/>
<path d="M13.087 57.309C12.05 57.309 11.112 56.594 10.872 55.54L7.84197 42.239C7.70797 41.651 7.81397 41.034 8.13397 40.523C8.45497 40.012 8.96597 39.65 9.55397 39.516L129.97 12.089C130.556 11.957 131.176 12.061 131.686 12.381C132.196 12.702 132.558 13.213 132.692 13.801L135.721 27.102C136 28.326 135.233 29.545 134.009 29.824L13.593 57.251C13.424 57.29 13.254 57.309 13.087 57.309ZM12.781 43.446L14.801 52.313L130.783 25.896L128.763 17.029L12.781 43.446Z" fill="#1D1D1D"/>
<path d="M50.297 220.68C49.26 220.68 48.322 219.965 48.082 218.911L45.052 205.609C44.918 205.021 45.024 204.404 45.344 203.894C45.665 203.383 46.176 203.021 46.764 202.887L167.18 175.46C167.767 175.328 168.385 175.431 168.896 175.752C169.406 176.073 169.768 176.584 169.902 177.172L172.931 190.473C173.21 191.697 172.443 192.916 171.219 193.195L50.803 220.622C50.634 220.662 50.464 220.68 50.297 220.68ZM49.992 206.817L52.012 215.685L167.994 189.268L165.974 180.401L49.992 206.817Z" fill="#1D1D1D"/>
<path d="M56.908 205.183C56.483 205.183 56.063 205.064 55.698 204.834C55.188 204.513 54.825 204.002 54.691 203.414L20.51 53.344C20.231 52.12 20.998 50.901 22.222 50.622L123.361 27.586C123.948 27.453 124.566 27.558 125.077 27.878C125.587 28.199 125.949 28.71 126.083 29.298L160.264 179.368C160.543 180.592 159.776 181.811 158.552 182.09L57.413 205.126C57.246 205.164 57.077 205.183 56.908 205.183ZM25.449 54.551L58.62 200.188L155.325 178.162L122.154 32.525L25.449 54.551Z" fill="#1D1D1D"/>
<path d="M140.957 112.22C145.033 112.22 148.338 108.915 148.338 104.839C148.338 100.763 145.033 97.458 140.957 97.458C136.881 97.458 133.576 100.763 133.576 104.839C133.576 108.915 136.881 112.22 140.957 112.22Z" fill="#1D1D1D"/>
<path d="M39.818 135.256C43.8944 135.256 47.199 131.951 47.199 127.875C47.199 123.799 43.8944 120.494 39.818 120.494C35.7416 120.494 32.437 123.799 32.437 127.875C32.437 131.951 35.7416 135.256 39.818 135.256Z" fill="#1D1D1D"/>
<path d="M84.146 198.979C83.763 198.979 83.383 198.882 83.044 198.694C72.699 192.959 66.414 185.36 64.362 176.11C61.222 161.952 68.893 148.626 73.745 141.944C81.665 130.683 81.612 124.086 80.371 118.639C79.13 113.192 76.322 107.222 64.276 100.485C57.038 96.579 44.353 87.891 41.053 73.77C38.896 64.543 41.271 54.971 48.112 45.322C48.435 44.865 48.916 44.544 49.462 44.42L96.126 33.792C96.671 33.67 97.244 33.749 97.734 34.021C108.078 39.756 114.364 47.355 116.417 56.606C119.557 70.764 111.886 84.089 107.034 90.772C99.113 102.034 99.167 108.63 100.408 114.077C101.648 119.524 104.457 125.494 116.503 132.231C123.741 136.137 136.425 144.825 139.726 158.946C141.883 168.173 139.508 177.744 132.668 187.394C132.345 187.851 131.863 188.172 131.318 188.296L84.654 198.924C84.484 198.96 84.314 198.979 84.146 198.979ZM51.327 48.657C45.65 56.951 43.682 65.048 45.479 72.734C47.594 81.781 55.243 90.443 66.464 96.499C80.127 104.14 83.4 111.467 84.803 117.628C86.206 123.789 86.429 131.811 77.443 144.587C69.931 154.934 66.788 166.054 68.8 175.125C70.509 182.831 75.789 189.276 84.498 194.294L129.447 184.056C135.124 175.762 137.092 167.665 135.295 159.979C133.18 150.932 125.531 142.27 114.309 136.214C100.646 128.572 97.373 121.246 95.971 115.085C94.567 108.924 94.344 100.904 103.331 88.126C110.843 77.78 113.986 66.66 111.975 57.589C110.265 49.883 104.985 43.437 96.276 38.419L51.327 48.657Z" fill="#1D1D1D"/>
<path d="M121.504 148.941C118.971 143.374 112.595 140.714 106.83 142.758C103.882 143.803 101.733 145.774 100.289 148.543C99.621 149.822 99.325 151.22 98.97 152.598C98.918 152.797 98.799 153.285 98.799 153.285C98.799 153.285 98.478 152.896 98.346 152.741C98.215 152.585 98.085 152.429 97.955 152.273C97.681 151.943 97.236 151.834 96.825 151.96C96.68 152.004 96.531 152.041 96.377 152.071C96.045 152.134 95.718 152.156 95.406 152.141C94.6 152.103 93.783 152.258 93.048 152.59C92.763 152.719 92.451 152.818 92.119 152.881C91.786 152.945 91.458 152.967 91.145 152.952C90.34 152.913 89.523 153.07 88.788 153.401C88.503 153.53 88.191 153.629 87.859 153.692C87.526 153.756 87.199 153.778 86.886 153.763C86.08 153.724 85.263 153.882 84.527 154.213C84.243 154.341 83.931 154.44 83.6 154.503C83.267 154.567 82.94 154.589 82.627 154.574C81.822 154.535 81.004 154.692 80.269 155.024C79.985 155.152 79.673 155.252 79.342 155.315C78.844 155.41 78.358 155.412 77.915 155.336C77.397 155.247 76.912 155.621 76.787 156.131C76.543 157.125 76.426 158.167 76.451 159.242C76.53 162.501 77.746 165.392 79.74 167.959C80.943 169.507 82.418 170.826 84.013 171.966C87.451 174.422 91.188 176.373 94.888 178.378C102.302 182.394 106.235 186.139 106.292 186.189C106.322 186.118 108.246 181.04 113.189 174.21C115.672 170.781 118.211 167.384 120.25 163.655C121.167 161.979 121.906 160.199 122.315 158.334C123.022 155.116 122.871 151.946 121.504 148.941Z" fill="#E90000"/>
<path d="M86.814 145.715C86.809 145.712 86.803 145.709 86.798 145.707C86.399 145.508 85.91 145.635 85.668 146.002C85.505 146.249 84.993 146.993 84.993 146.993C84.989 146.999 84.985 147.005 84.98 147.011C84.693 147.419 84.808 147.978 85.233 148.248C85.66 148.518 86.231 148.393 86.497 147.97C86.673 147.69 86.895 147.334 87.16 146.907C87.421 146.487 87.262 145.938 86.814 145.715Z" fill="#E90000"/>
<path d="M83.5941 150.395C83.5901 150.391 83.5841 150.389 83.5801 150.386C83.2261 150.159 82.7831 150.283 82.5561 150.674C82.4041 150.937 81.9261 151.729 81.9261 151.729C81.9221 151.735 81.9181 151.742 81.9141 151.748C81.6461 152.182 81.7361 152.791 82.1131 153.095C82.4901 153.4 83.0071 153.28 83.2571 152.829C83.4221 152.53 83.6301 152.152 83.8781 151.695C84.1211 151.248 83.9921 150.649 83.5941 150.395Z" fill="#E90000"/>
<path d="M89.924 139.264C89.915 139.259 89.906 139.255 89.897 139.25C89.436 139.015 88.876 139.218 88.678 139.696C88.341 140.511 87.974 141.334 87.573 142.167C87.395 142.536 87.484 142.975 87.783 143.255C87.788 143.26 87.793 143.264 87.798 143.269C88.266 143.706 89.029 143.542 89.283 142.954C89.664 142.073 90.022 141.217 90.356 140.378C90.527 139.952 90.335 139.471 89.924 139.264Z" fill="#E90000"/>
<path d="M91.143 133.663L91.12 133.66C90.664 133.595 90.233 133.882 90.115 134.327C89.965 134.892 89.802 135.459 89.62 136.03C89.493 136.43 89.661 136.863 90.024 137.074C90.031 137.078 90.037 137.082 90.044 137.085C90.531 137.366 91.157 137.13 91.334 136.596C91.534 135.994 91.719 135.399 91.889 134.807C92.04 134.28 91.686 133.741 91.143 133.663Z" fill="#E90000"/>
<path d="M107.668 61.576C100.518 68.576 87.824 70.961 79.381 68.019C70.938 65.076 58.237 67.464 51.087 74.463C53.719 81.139 60.003 87.504 68.767 92.231L68.863 92.279C81.023 99.085 87.208 106.343 89.532 116.548C89.58 116.757 89.623 116.965 89.664 117.173C89.746 117.59 90.121 117.883 90.545 117.869C90.551 117.869 90.557 117.869 90.563 117.868C91.101 117.85 91.489 117.35 91.382 116.823C91.338 116.604 91.291 116.383 91.239 116.159C88.915 105.954 91.346 96.734 99.359 85.333L99.425 85.248C105.279 77.191 108.187 68.733 107.668 61.576Z" fill="#E90000"/>
<path d="M91.456 123.452C90.943 123.468 90.543 123.896 90.555 124.408C90.565 124.832 90.565 125.256 90.556 125.681C90.546 126.179 90.922 126.601 91.418 126.642C91.966 126.687 92.434 126.256 92.438 125.706C92.441 125.256 92.433 124.8 92.415 124.339C92.395 123.831 91.964 123.437 91.456 123.452Z" fill="#E90000"/>
<path d="M91.127 121.828C91.665 121.828 92.081 121.361 92.023 120.826C91.984 120.459 91.938 120.088 91.886 119.711C91.824 119.267 91.434 118.945 90.986 118.964C90.97 118.965 90.954 118.965 90.939 118.966C90.432 118.987 90.056 119.44 90.118 119.944C90.161 120.297 90.198 120.65 90.229 121.002C90.27 121.469 90.659 121.828 91.127 121.828Z" fill="#E90000"/>
<path d="M91.491 128.099C90.979 128.098 90.562 128.503 90.542 129.015C90.515 129.696 90.464 130.381 90.391 131.07C90.337 131.574 90.699 132.022 91.204 132.079C91.217 132.08 91.229 132.082 91.242 132.083C91.742 132.142 92.201 131.793 92.26 131.293C92.347 130.557 92.407 129.821 92.438 129.08C92.46 128.545 92.027 128.1 91.491 128.099Z" fill="#E90000"/>
<path d="M190.622 49L203.726 19.6H210.446L223.592 49H216.452L205.7 23.044H208.388L197.594 49H190.622ZM197.174 42.7L198.98 37.534H214.1L215.948 42.7H197.174ZM229.162 49V19.6H235.966V49H229.162ZM269.538 49.504C267.186 49.504 264.932 49.196 262.776 48.58C260.62 47.936 258.884 47.11 257.568 46.102L259.878 40.978C261.138 41.874 262.622 42.616 264.33 43.204C266.066 43.764 267.816 44.044 269.58 44.044C270.924 44.044 272.002 43.918 272.814 43.666C273.654 43.386 274.27 43.008 274.662 42.532C275.054 42.056 275.25 41.51 275.25 40.894C275.25 40.11 274.942 39.494 274.326 39.046C273.71 38.57 272.898 38.192 271.89 37.912C270.882 37.604 269.762 37.324 268.53 37.072C267.326 36.792 266.108 36.456 264.876 36.064C263.672 35.672 262.566 35.168 261.558 34.552C260.55 33.936 259.724 33.124 259.08 32.116C258.464 31.108 258.156 29.82 258.156 28.252C258.156 26.572 258.604 25.046 259.5 23.674C260.424 22.274 261.796 21.168 263.616 20.356C265.464 19.516 267.774 19.096 270.546 19.096C272.394 19.096 274.214 19.32 276.006 19.768C277.798 20.188 279.38 20.832 280.752 21.7L278.652 26.866C277.28 26.082 275.908 25.508 274.536 25.144C273.164 24.752 271.82 24.556 270.504 24.556C269.188 24.556 268.11 24.71 267.27 25.018C266.43 25.326 265.828 25.732 265.464 26.236C265.1 26.712 264.918 27.272 264.918 27.916C264.918 28.672 265.226 29.288 265.842 29.764C266.458 30.212 267.27 30.576 268.278 30.856C269.286 31.136 270.392 31.416 271.596 31.696C272.828 31.976 274.046 32.298 275.25 32.662C276.482 33.026 277.602 33.516 278.61 34.132C279.618 34.748 280.43 35.56 281.046 36.568C281.69 37.576 282.012 38.85 282.012 40.39C282.012 42.042 281.55 43.554 280.626 44.926C279.702 46.298 278.316 47.404 276.468 48.244C274.648 49.084 272.338 49.504 269.538 49.504ZM285.317 49L298.421 19.6H305.141L318.287 49H311.147L300.395 23.044H303.083L292.289 49H285.317ZM291.869 42.7L293.675 37.534H308.795L310.643 42.7H291.869ZM330.157 32.83H344.269V38.29H330.157V32.83ZM330.661 49H323.857V19.6H346.075V25.06H330.661V49ZM359.46 31.444H373.614V36.736H359.46V31.444ZM359.964 43.54H375.966V49H353.202V19.6H375.42V25.06H359.964V43.54ZM389.989 49V25.144H380.581V19.6H406.201V25.144H396.793V49H389.989ZM419.116 49V36.988L420.67 41.104L407.734 19.6H414.958L424.87 36.106H420.712L430.666 19.6H437.344L424.408 41.104L425.92 36.988V49H419.116Z" fill="#1D1D1D"/>
<path d="M322.486 172V142.6H328.114L340.63 163.348H337.648L349.954 142.6H355.54L355.624 172H349.24L349.198 152.386H350.374L340.546 168.892H337.48L327.442 152.386H328.87V172H322.486ZM361.255 172L374.359 142.6H381.079L394.225 172H387.085L376.333 146.044H379.021L368.227 172H361.255ZM367.807 165.7L369.613 160.534H384.733L386.581 165.7H367.807ZM399.796 172V142.6H412.522C415.154 142.6 417.422 143.034 419.326 143.902C421.23 144.742 422.7 145.96 423.736 147.556C424.772 149.152 425.29 151.056 425.29 153.268C425.29 155.452 424.772 157.342 423.736 158.938C422.7 160.506 421.23 161.71 419.326 162.55C417.422 163.39 415.154 163.81 412.522 163.81H403.576L406.6 160.828V172H399.796ZM418.486 172L411.136 161.332H418.402L425.836 172H418.486ZM406.6 161.584L403.576 158.392H412.144C414.244 158.392 415.812 157.944 416.848 157.048C417.884 156.124 418.402 154.864 418.402 153.268C418.402 151.644 417.884 150.384 416.848 149.488C415.812 148.592 414.244 148.144 412.144 148.144H403.576L406.6 144.91V161.584ZM439.29 165.28L438.912 157.426L452.982 142.6H460.542L447.858 156.25L444.078 160.282L439.29 165.28ZM433.2 172V142.6H439.962V172H433.2ZM453.318 172L442.86 159.19L447.312 154.36L461.256 172H453.318ZM473.068 154.444H487.222V159.736H473.068V154.444ZM473.572 166.54H489.574V172H466.81V142.6H489.028V148.06H473.572V166.54ZM503.598 172V148.144H494.19V142.6H519.81V148.144H510.402V172H503.598ZM535.446 172.504C533.094 172.504 530.84 172.196 528.684 171.58C526.528 170.936 524.792 170.11 523.476 169.102L525.786 163.978C527.046 164.874 528.53 165.616 530.238 166.204C531.974 166.764 533.724 167.044 535.488 167.044C536.832 167.044 537.91 166.918 538.722 166.666C539.562 166.386 540.178 166.008 540.57 165.532C540.962 165.056 541.158 164.51 541.158 163.894C541.158 163.11 540.85 162.494 540.234 162.046C539.618 161.57 538.806 161.192 537.798 160.912C536.79 160.604 535.67 160.324 534.438 160.072C533.234 159.792 532.016 159.456 530.784 159.064C529.58 158.672 528.474 158.168 527.466 157.552C526.458 156.936 525.632 156.124 524.988 155.116C524.372 154.108 524.064 152.82 524.064 151.252C524.064 149.572 524.512 148.046 525.408 146.674C526.332 145.274 527.704 144.168 529.524 143.356C531.372 142.516 533.682 142.096 536.454 142.096C538.302 142.096 540.122 142.32 541.914 142.768C543.706 143.188 545.288 143.832 546.66 144.7L544.56 149.866C543.188 149.082 541.816 148.508 540.444 148.144C539.072 147.752 537.728 147.556 536.412 147.556C535.096 147.556 534.018 147.71 533.178 148.018C532.338 148.326 531.736 148.732 531.372 149.236C531.008 149.712 530.826 150.272 530.826 150.916C530.826 151.672 531.134 152.288 531.75 152.764C532.366 153.212 533.178 153.576 534.186 153.856C535.194 154.136 536.3 154.416 537.504 154.696C538.736 154.976 539.954 155.298 541.158 155.662C542.39 156.026 543.51 156.516 544.518 157.132C545.526 157.748 546.338 158.56 546.954 159.568C547.598 160.576 547.92 161.85 547.92 163.39C547.92 165.042 547.458 166.554 546.534 167.926C545.61 169.298 544.224 170.404 542.376 171.244C540.556 172.084 538.246 172.504 535.446 172.504Z" fill="#1D1D1D"/>
<path d="M193.221 125V64.1H207.315V125H193.221ZM223.508 125V64.1H235.166L261.092 107.078H254.915L280.406 64.1H291.977L292.151 125H278.927L278.84 84.371H281.276L260.918 118.562H254.567L233.774 84.371H236.732V125H223.508ZM308.34 125V64.1H334.701C340.153 64.1 344.851 64.999 348.795 66.797C352.739 68.537 355.784 71.06 357.93 74.366C360.076 77.672 361.149 81.616 361.149 86.198C361.149 90.722 360.076 94.637 357.93 97.943C355.784 101.249 352.739 103.801 348.795 105.599C344.851 107.339 340.153 108.209 334.701 108.209H316.17L322.434 101.858V125H308.34ZM322.434 103.424L316.17 96.725H333.918C338.268 96.725 341.516 95.797 343.662 93.941C345.808 92.085 346.881 89.504 346.881 86.198C346.881 82.834 345.808 80.224 343.662 78.368C341.516 76.512 338.268 75.584 333.918 75.584H316.17L322.434 68.885V103.424ZM361.888 125L389.032 64.1H402.952L430.183 125H415.393L393.121 71.234H398.689L376.33 125H361.888ZM375.46 111.95L379.201 101.249H410.521L414.349 111.95H375.46ZM466.537 126.044C461.839 126.044 457.46 125.29 453.4 123.782C449.398 122.216 445.918 120.012 442.96 117.17C440.002 114.328 437.682 110.993 436 107.165C434.376 103.337 433.564 99.132 433.564 94.55C433.564 89.968 434.376 85.763 436 81.935C437.682 78.107 440.002 74.772 442.96 71.93C445.976 69.088 449.485 66.913 453.487 65.405C457.489 63.839 461.868 63.056 466.624 63.056C471.902 63.056 476.658 63.984 480.892 65.84C485.184 67.638 488.78 70.306 491.68 73.844L482.632 82.196C480.544 79.818 478.224 78.049 475.672 76.889C473.12 75.671 470.336 75.062 467.32 75.062C464.478 75.062 461.868 75.526 459.49 76.454C457.112 77.382 455.053 78.716 453.313 80.456C451.573 82.196 450.21 84.255 449.224 86.633C448.296 89.011 447.832 91.65 447.832 94.55C447.832 97.45 448.296 100.089 449.224 102.467C450.21 104.845 451.573 106.904 453.313 108.644C455.053 110.384 457.112 111.718 459.49 112.646C461.868 113.574 464.478 114.038 467.32 114.038C470.336 114.038 473.12 113.458 475.672 112.298C478.224 111.08 480.544 109.253 482.632 106.817L491.68 115.169C488.78 118.707 485.184 121.404 480.892 123.26C476.658 125.116 471.873 126.044 466.537 126.044ZM514.958 125V75.584H495.47V64.1H548.54V75.584H529.052V125H514.958Z" fill="#E90000"/>
</svg>
