<svg width="622" height="232" viewBox="0 0 622 232" fill="none" xmlns="http://www.w3.org/2000/svg">
<path d="M130.544 20.5014L13.0199 47.2694C7.43094 48.5424 1.86794 45.0434 0.594941 39.4544C-0.678059 33.8654 2.82094 28.3024 8.40994 27.0294L125.934 0.261445C131.523 -1.01156 137.086 2.48745 138.359 8.07645C139.633 13.6654 136.134 19.2284 130.544 20.5014Z" fill="#DDDDDD"/>
<path d="M167.755 183.872L50.23 210.64C44.641 211.913 41.142 217.476 42.415 223.065C43.688 228.654 49.251 232.153 54.84 230.88L172.364 204.112C177.953 202.839 181.452 197.276 180.179 191.687C178.907 186.098 173.344 182.599 167.755 183.872Z" fill="#DDDDDD"/>
<path d="M13.0868 56.5234C12.0498 56.5234 11.1118 55.8085 10.8718 54.7545L7.84185 41.4535C7.70785 40.8655 7.81385 40.2485 8.13385 39.7375C8.45485 39.2265 8.96585 38.8644 9.55385 38.7304L129.97 11.3034C130.556 11.1714 131.176 11.2755 131.686 11.5955C132.196 11.9165 132.558 12.4274 132.692 13.0154L135.721 26.3164C136 27.5404 135.233 28.7595 134.009 29.0385L13.5928 56.4655C13.4238 56.5045 13.2538 56.5234 13.0868 56.5234ZM12.7808 42.6605L14.8008 51.5274L130.783 25.1104L128.763 16.2434L12.7808 42.6605Z" fill="#DDDDDD"/>
<path d="M50.2968 219.894C49.2598 219.894 48.3218 219.179 48.0818 218.125L45.0518 204.823C44.9178 204.235 45.0238 203.618 45.3438 203.108C45.6648 202.597 46.1758 202.235 46.7638 202.101L167.18 174.674C167.767 174.542 168.385 174.645 168.896 174.966C169.406 175.287 169.768 175.798 169.902 176.386L172.931 189.687C173.21 190.911 172.443 192.13 171.219 192.409L50.8028 219.836C50.6338 219.876 50.4638 219.894 50.2968 219.894ZM49.9918 206.031L52.0118 214.899L167.994 188.482L165.974 179.615L49.9918 206.031Z" fill="#DDDDDD"/>
<path d="M56.9079 204.397C56.4829 204.397 56.0629 204.278 55.6979 204.048C55.1879 203.727 54.8249 203.216 54.6909 202.628L20.5099 52.5585C20.2309 51.3345 20.9979 50.1155 22.2219 49.8365L123.361 26.8005C123.948 26.6675 124.566 26.7725 125.077 27.0925C125.587 27.4135 125.949 27.9245 126.083 28.5125L160.264 178.582C160.543 179.806 159.776 181.025 158.552 181.304L57.4129 204.34C57.2459 204.378 57.0769 204.397 56.9079 204.397ZM25.4489 53.7655L58.6199 199.402L155.325 177.376L122.154 31.7395L25.4489 53.7655Z" fill="#DDDDDD"/>
<path d="M140.957 111.434C145.033 111.434 148.338 108.13 148.338 104.053C148.338 99.977 145.033 96.6725 140.957 96.6725C136.881 96.6725 133.576 99.977 133.576 104.053C133.576 108.13 136.881 111.434 140.957 111.434Z" fill="#DDDDDD"/>
<path d="M39.818 134.47C43.8944 134.47 47.199 131.166 47.199 127.089C47.199 123.013 43.8944 119.708 39.818 119.708C35.7416 119.708 32.437 123.013 32.437 127.089C32.437 131.166 35.7416 134.47 39.818 134.47Z" fill="#DDDDDD"/>
<path d="M84.1461 198.193C83.7631 198.193 83.3831 198.096 83.0441 197.908C72.6991 192.173 66.4141 184.574 64.3621 175.324C61.2221 161.166 68.8931 147.84 73.7451 141.158C81.6651 129.897 81.6121 123.3 80.3711 117.853C79.1301 112.406 76.3221 106.436 64.2761 99.6994C57.0381 95.7934 44.3531 87.1054 41.0531 72.9844C38.8961 63.7574 41.2711 54.1854 48.1121 44.5364C48.4351 44.0794 48.9161 43.7585 49.4621 43.6345L96.1261 33.0064C96.6711 32.8844 97.2441 32.9634 97.7341 33.2354C108.078 38.9704 114.364 46.5694 116.417 55.8204C119.557 69.9784 111.886 83.3035 107.034 89.9865C99.1131 101.248 99.1671 107.844 100.408 113.291C101.648 118.738 104.457 124.708 116.503 131.445C123.741 135.351 136.425 144.039 139.726 158.16C141.883 167.387 139.508 176.958 132.668 186.608C132.345 187.065 131.863 187.386 131.318 187.51L84.6541 198.138C84.4841 198.174 84.3141 198.193 84.1461 198.193ZM51.3271 47.8715C45.6501 56.1655 43.6821 64.2625 45.4791 71.9485C47.5941 80.9955 55.2431 89.6574 66.4641 95.7134C80.1271 103.354 83.4001 110.681 84.8031 116.842C86.2061 123.003 86.4291 131.025 77.4431 143.801C69.9311 154.148 66.7881 165.268 68.8001 174.339C70.5091 182.045 75.7891 188.49 84.4981 193.508L129.447 183.27C135.124 174.976 137.092 166.879 135.295 159.193C133.18 150.146 125.531 141.484 114.309 135.428C100.646 127.786 97.3731 120.46 95.9711 114.299C94.5671 108.138 94.3441 100.118 103.331 87.3405C110.843 76.9945 113.986 65.8744 111.975 56.8034C110.265 49.0974 104.985 42.6515 96.2761 37.6335L51.3271 47.8715Z" fill="#DDDDDD"/>
<path d="M121.504 148.155C118.971 142.588 112.595 139.928 106.83 141.972C103.882 143.017 101.733 144.988 100.289 147.757C99.6211 149.036 99.3251 150.434 98.9701 151.812C98.9181 152.011 98.7991 152.499 98.7991 152.499C98.7991 152.499 98.4781 152.11 98.3461 151.955C98.2151 151.799 98.0851 151.643 97.9551 151.487C97.6811 151.157 97.2361 151.048 96.8251 151.174C96.6801 151.218 96.5311 151.255 96.3771 151.285C96.0451 151.348 95.7181 151.37 95.4061 151.355C94.6001 151.317 93.7831 151.472 93.0481 151.804C92.7631 151.933 92.4511 152.032 92.1191 152.095C91.7861 152.159 91.4581 152.181 91.1451 152.166C90.3401 152.127 89.5231 152.284 88.7881 152.615C88.5031 152.744 88.1911 152.843 87.8591 152.906C87.5261 152.97 87.1991 152.992 86.8861 152.977C86.0801 152.938 85.2631 153.096 84.5271 153.427C84.2431 153.555 83.9311 153.654 83.6001 153.717C83.2671 153.781 82.9401 153.803 82.6271 153.788C81.8221 153.749 81.0041 153.906 80.2691 154.238C79.9851 154.366 79.6731 154.466 79.3421 154.529C78.8441 154.624 78.3581 154.626 77.9151 154.55C77.3971 154.461 76.9121 154.835 76.7871 155.345C76.5431 156.339 76.4261 157.381 76.4511 158.456C76.5301 161.715 77.7461 164.606 79.7401 167.173C80.9431 168.721 82.4181 170.04 84.0131 171.18C87.4511 173.636 91.1881 175.587 94.8881 177.592C102.302 181.608 106.235 185.353 106.292 185.403C106.322 185.332 108.246 180.254 113.189 173.424C115.672 169.995 118.211 166.598 120.25 162.869C121.167 161.193 121.906 159.413 122.315 157.548C123.022 154.33 122.871 151.16 121.504 148.155Z" fill="#B78787"/>
<path d="M86.8139 144.929C86.8089 144.926 86.8029 144.923 86.7979 144.921C86.3989 144.722 85.9099 144.849 85.6679 145.216C85.5049 145.463 84.9929 146.207 84.9929 146.207C84.9889 146.213 84.9849 146.219 84.9799 146.225C84.6929 146.633 84.8079 147.192 85.2329 147.462C85.6599 147.732 86.2309 147.607 86.4969 147.184C86.6729 146.904 86.8949 146.548 87.1599 146.121C87.4209 145.701 87.2619 145.152 86.8139 144.929Z" fill="#B78787"/>
<path d="M83.5939 149.609C83.5899 149.605 83.5839 149.603 83.5799 149.6C83.2259 149.373 82.7829 149.497 82.5559 149.888C82.4039 150.151 81.9259 150.943 81.9259 150.943C81.9219 150.949 81.9179 150.956 81.9139 150.962C81.6459 151.396 81.7359 152.005 82.1129 152.309C82.4899 152.614 83.0069 152.494 83.2569 152.043C83.4219 151.744 83.6299 151.366 83.8779 150.909C84.1209 150.462 83.9919 149.863 83.5939 149.609Z" fill="#B78787"/>
<path d="M89.9239 138.478C89.9149 138.473 89.9059 138.469 89.8969 138.464C89.4359 138.229 88.8759 138.432 88.6779 138.91C88.3409 139.725 87.9739 140.548 87.5729 141.381C87.3949 141.75 87.4839 142.189 87.7829 142.469C87.7879 142.474 87.7929 142.478 87.7979 142.483C88.2659 142.92 89.0289 142.756 89.2829 142.168C89.6639 141.287 90.0219 140.431 90.3559 139.592C90.5269 139.166 90.3349 138.685 89.9239 138.478Z" fill="#B78787"/>
<path d="M91.143 132.877L91.1199 132.874C90.6639 132.809 90.233 133.096 90.115 133.541C89.965 134.106 89.8019 134.673 89.6199 135.244C89.4929 135.644 89.6609 136.077 90.0239 136.288C90.0309 136.292 90.037 136.296 90.044 136.299C90.531 136.58 91.1569 136.344 91.3339 135.81C91.5339 135.208 91.719 134.613 91.889 134.021C92.04 133.494 91.686 132.955 91.143 132.877Z" fill="#B78787"/>
<path d="M107.668 60.7904C100.518 67.7904 87.8239 70.1755 79.3809 67.2335C70.9379 64.2905 58.2369 66.6785 51.0869 73.6775C53.7189 80.3535 60.0029 86.7184 68.7669 91.4454L68.8629 91.4934C81.0229 98.2994 87.2079 105.557 89.5319 115.762C89.5799 115.971 89.6229 116.179 89.6639 116.387C89.7459 116.804 90.1209 117.097 90.5449 117.083C90.5509 117.083 90.5569 117.083 90.5629 117.082C91.1009 117.064 91.4889 116.564 91.3819 116.037C91.3379 115.818 91.2909 115.597 91.2389 115.373C88.9149 105.168 91.3459 95.9485 99.3589 84.5475L99.4249 84.4624C105.279 76.4054 108.187 67.9474 107.668 60.7904Z" fill="#B78787"/>
<path d="M91.456 122.666C90.943 122.682 90.543 123.11 90.555 123.622C90.565 124.046 90.565 124.47 90.556 124.895C90.546 125.393 90.922 125.815 91.418 125.856C91.966 125.901 92.434 125.47 92.438 124.92C92.441 124.47 92.433 124.014 92.415 123.553C92.395 123.045 91.964 122.651 91.456 122.666Z" fill="#B78787"/>
<path d="M91.127 121.042C91.665 121.042 92.081 120.575 92.023 120.04C91.984 119.673 91.938 119.302 91.886 118.925C91.824 118.481 91.434 118.159 90.986 118.178C90.97 118.179 90.954 118.179 90.939 118.18C90.432 118.201 90.056 118.654 90.118 119.158C90.161 119.511 90.198 119.864 90.229 120.216C90.27 120.683 90.659 121.042 91.127 121.042Z" fill="#B78787"/>
<path d="M91.4908 127.313C90.9788 127.312 90.5618 127.717 90.5418 128.229C90.5148 128.91 90.4638 129.595 90.3908 130.284C90.3368 130.788 90.6988 131.236 91.2038 131.293C91.2168 131.294 91.2288 131.296 91.2418 131.297C91.7418 131.356 92.2008 131.007 92.2598 130.507C92.3468 129.771 92.4068 129.035 92.4378 128.294C92.4598 127.759 92.0268 127.314 91.4908 127.313Z" fill="#B78787"/>
<path d="M208.682 85.504C206.358 85.504 204.216 85.14 202.256 84.412C200.324 83.656 198.63 82.592 197.174 81.22C195.746 79.848 194.626 78.238 193.814 76.39C193.03 74.542 192.638 72.512 192.638 70.3C192.638 68.088 193.03 66.058 193.814 64.21C194.626 62.362 195.76 60.752 197.216 59.38C198.672 58.008 200.38 56.958 202.34 56.23C204.3 55.474 206.456 55.096 208.808 55.096C211.412 55.096 213.75 55.53 215.822 56.398C217.922 57.266 219.686 58.526 221.114 60.178L216.746 64.21C215.682 63.09 214.52 62.264 213.26 61.732C212 61.172 210.628 60.892 209.144 60.892C207.716 60.892 206.414 61.116 205.238 61.564C204.062 62.012 203.04 62.656 202.172 63.496C201.332 64.336 200.674 65.33 200.198 66.478C199.75 67.626 199.526 68.9 199.526 70.3C199.526 71.672 199.75 72.932 200.198 74.08C200.674 75.228 201.332 76.236 202.172 77.104C203.04 77.944 204.048 78.588 205.196 79.036C206.372 79.484 207.66 79.708 209.06 79.708C210.404 79.708 211.706 79.498 212.966 79.078C214.254 78.63 215.5 77.888 216.704 76.852L220.568 81.766C218.972 82.97 217.11 83.894 214.982 84.538C212.882 85.182 210.782 85.504 208.682 85.504ZM214.352 80.884V69.838H220.568V81.766L214.352 80.884ZM243.688 85.504C241.364 85.504 239.208 85.126 237.22 84.37C235.26 83.614 233.552 82.55 232.096 81.178C230.668 79.806 229.548 78.196 228.736 76.348C227.952 74.5 227.56 72.484 227.56 70.3C227.56 68.116 227.952 66.1 228.736 64.252C229.548 62.404 230.682 60.794 232.138 59.422C233.594 58.05 235.302 56.986 237.262 56.23C239.222 55.474 241.35 55.096 243.646 55.096C245.97 55.096 248.098 55.474 250.03 56.23C251.99 56.986 253.684 58.05 255.112 59.422C256.568 60.794 257.702 62.404 258.514 64.252C259.326 66.072 259.732 68.088 259.732 70.3C259.732 72.484 259.326 74.514 258.514 76.39C257.702 78.238 256.568 79.848 255.112 81.22C253.684 82.564 251.99 83.614 250.03 84.37C248.098 85.126 245.984 85.504 243.688 85.504ZM243.646 79.708C244.962 79.708 246.166 79.484 247.258 79.036C248.378 78.588 249.358 77.944 250.198 77.104C251.038 76.264 251.682 75.27 252.13 74.122C252.606 72.974 252.844 71.7 252.844 70.3C252.844 68.9 252.606 67.626 252.13 66.478C251.682 65.33 251.038 64.336 250.198 63.496C249.386 62.656 248.42 62.012 247.3 61.564C246.18 61.116 244.962 60.892 243.646 60.892C242.33 60.892 241.112 61.116 239.992 61.564C238.9 62.012 237.934 62.656 237.094 63.496C236.254 64.336 235.596 65.33 235.12 66.478C234.672 67.626 234.448 68.9 234.448 70.3C234.448 71.672 234.672 72.946 235.12 74.122C235.596 75.27 236.24 76.264 237.052 77.104C237.892 77.944 238.872 78.588 239.992 79.036C241.112 79.484 242.33 79.708 243.646 79.708ZM281.646 85.504C279.322 85.504 277.166 85.126 275.178 84.37C273.218 83.614 271.51 82.55 270.054 81.178C268.626 79.806 267.506 78.196 266.694 76.348C265.91 74.5 265.518 72.484 265.518 70.3C265.518 68.116 265.91 66.1 266.694 64.252C267.506 62.404 268.64 60.794 270.096 59.422C271.552 58.05 273.26 56.986 275.22 56.23C277.18 55.474 279.308 55.096 281.604 55.096C283.928 55.096 286.056 55.474 287.988 56.23C289.948 56.986 291.642 58.05 293.07 59.422C294.526 60.794 295.66 62.404 296.472 64.252C297.284 66.072 297.69 68.088 297.69 70.3C297.69 72.484 297.284 74.514 296.472 76.39C295.66 78.238 294.526 79.848 293.07 81.22C291.642 82.564 289.948 83.614 287.988 84.37C286.056 85.126 283.942 85.504 281.646 85.504ZM281.604 79.708C282.92 79.708 284.124 79.484 285.216 79.036C286.336 78.588 287.316 77.944 288.156 77.104C288.996 76.264 289.64 75.27 290.088 74.122C290.564 72.974 290.802 71.7 290.802 70.3C290.802 68.9 290.564 67.626 290.088 66.478C289.64 65.33 288.996 64.336 288.156 63.496C287.344 62.656 286.378 62.012 285.258 61.564C284.138 61.116 282.92 60.892 281.604 60.892C280.288 60.892 279.07 61.116 277.95 61.564C276.858 62.012 275.892 62.656 275.052 63.496C274.212 64.336 273.554 65.33 273.078 66.478C272.63 67.626 272.406 68.9 272.406 70.3C272.406 71.672 272.63 72.946 273.078 74.122C273.554 75.27 274.198 76.264 275.01 77.104C275.85 77.944 276.83 78.588 277.95 79.036C279.07 79.484 280.288 79.708 281.604 79.708ZM305.323 85V55.6H318.679C321.871 55.6 324.685 56.216 327.121 57.448C329.557 58.652 331.461 60.346 332.833 62.53C334.205 64.714 334.891 67.304 334.891 70.3C334.891 73.268 334.205 75.858 332.833 78.07C331.461 80.254 329.557 81.962 327.121 83.194C324.685 84.398 321.871 85 318.679 85H305.323ZM312.127 79.414H318.343C320.303 79.414 321.997 79.05 323.425 78.322C324.881 77.566 326.001 76.502 326.785 75.13C327.597 73.758 328.003 72.148 328.003 70.3C328.003 68.424 327.597 66.814 326.785 65.47C326.001 64.098 324.881 63.048 323.425 62.32C321.997 61.564 320.303 61.186 318.343 61.186H312.127V79.414ZM338.116 85L350.758 67.57V72.526L338.662 55.6H346.39L354.748 67.402L351.514 67.444L359.746 55.6H367.138L355.126 72.232V67.36L367.852 85H359.998L351.346 72.526H354.454L345.928 85H338.116Z" fill="#DDDDDD"/>
<path d="M222.627 162.044C217.813 162.044 213.376 161.29 209.316 159.782C205.314 158.216 201.805 156.012 198.789 153.17C195.831 150.328 193.511 146.993 191.829 143.165C190.205 139.337 189.393 135.132 189.393 130.55C189.393 125.968 190.205 121.763 191.829 117.935C193.511 114.107 195.86 110.772 198.876 107.93C201.892 105.088 205.43 102.913 209.49 101.405C213.55 99.839 218.016 99.056 222.888 99.056C228.282 99.056 233.125 99.955 237.417 101.753C241.767 103.551 245.421 106.161 248.379 109.583L239.331 117.935C237.127 115.615 234.72 113.904 232.11 112.802C229.5 111.642 226.658 111.062 223.584 111.062C220.626 111.062 217.929 111.526 215.493 112.454C213.057 113.382 210.94 114.716 209.142 116.456C207.402 118.196 206.039 120.255 205.053 122.633C204.125 125.011 203.661 127.65 203.661 130.55C203.661 133.392 204.125 136.002 205.053 138.38C206.039 140.758 207.402 142.846 209.142 144.644C210.94 146.384 213.028 147.718 215.406 148.646C217.842 149.574 220.51 150.038 223.41 150.038C226.194 150.038 228.891 149.603 231.501 148.733C234.169 147.805 236.75 146.268 239.244 144.122L247.248 154.301C243.942 156.795 240.085 158.709 235.677 160.043C231.327 161.377 226.977 162.044 222.627 162.044ZM234.372 152.474V129.593H247.248V154.301L234.372 152.474ZM260.688 161V110.975H274.434V161H260.688ZM303.279 161L281.529 110.975H296.145L314.589 154.91H306.15L324.942 110.975H338.601L316.851 161H303.279ZM358.04 130.637H382.226V140.642H358.04V130.637ZM359.432 150.473H386.141V161H345.86V110.975H385.184V121.502H359.432V150.473ZM412.165 161L392.242 100.1H406.858L424.171 154.04H416.863L434.959 100.1H448.009L465.409 154.04H458.362L476.11 100.1H489.595L469.672 161H454.534L439.135 113.672H443.137L427.303 161H412.165ZM497.641 161V110.975H511.387V161H497.641ZM537.795 149.777L537.012 134.465L559.458 110.975H574.596L552.846 134.291L545.19 142.034L537.795 149.777ZM525.528 161V110.975H539.1V161H525.528ZM559.719 161L542.754 140.12L551.715 130.55L575.727 161H559.719ZM582.727 161V110.975H596.473V161H582.727Z" fill="#B49696"/>
</svg>
