<svg width="154" height="154" viewBox="0 0 154 154" fill="none" xmlns="http://www.w3.org/2000/svg">
<path d="M39.996 128C39.1427 128 38.716 127.573 38.716 126.72V39.68C38.716 38.8267 39.1427 38.4 39.996 38.4H46.524C47.3773 38.4 47.804 38.8267 47.804 39.68V126.72C47.804 127.573 47.3773 128 46.524 128H39.996ZM105.256 39.296C105.512 38.6987 106.024 38.4 106.792 38.4H113.448C114.301 38.4 114.728 38.8267 114.728 39.68V126.72C114.728 127.573 114.301 128 113.448 128H106.92C106.067 128 105.64 127.573 105.64 126.72V58.112C105.64 57.856 105.555 57.728 105.384 57.728C105.299 57.728 105.171 57.8133 105 57.984L91.688 85.632C91.432 86.2293 91.0053 86.528 90.408 86.528C89.7253 86.528 89.256 86.2293 89 85.632L75.688 58.112C75.5173 57.9413 75.3467 57.856 75.176 57.856C75.0907 57.856 75.048 57.984 75.048 58.24V126.72C75.048 127.573 74.6213 128 73.768 128H67.24C66.3867 128 65.96 127.573 65.96 126.72V39.68C65.96 38.8267 66.3867 38.4 67.24 38.4H73.896C74.664 38.4 75.176 38.6987 75.432 39.296L90.024 68.864C90.1093 69.0347 90.2373 69.12 90.408 69.12C90.5787 69.12 90.7067 69.0347 90.792 68.864L105.256 39.296Z" fill="black"/>
</svg>
