<?xml version="1.0" encoding="UTF-8" standalone="no"?>
<svg
   width="232"
   height="232"
   viewBox="0 0 232 232"
   fill="none"
   version="1.1"
   id="svg52"
   sodipodi:docname="favicon.svg"
   inkscape:version="1.2.2 (732a01da63, 2022-12-09, custom)"
   xmlns:inkscape="http://www.inkscape.org/namespaces/inkscape"
   xmlns:sodipodi="http://sodipodi.sourceforge.net/DTD/sodipodi-0.dtd"
   xmlns="http://www.w3.org/2000/svg"
   xmlns:svg="http://www.w3.org/2000/svg">
  <defs
     id="defs56" />
  <sodipodi:namedview
     id="namedview54"
     pagecolor="#ffffff"
     bordercolor="#000000"
     borderopacity="0.25"
     inkscape:showpageshadow="2"
     inkscape:pageopacity="0.0"
     inkscape:pagecheckerboard="0"
     inkscape:deskcolor="#d1d1d1"
     showgrid="false"
     inkscape:zoom="1.0172414"
     inkscape:cx="90.932203"
     inkscape:cy="116"
     inkscape:window-width="2560"
     inkscape:window-height="1529"
     inkscape:window-x="0"
     inkscape:window-y="0"
     inkscape:window-maximized="1"
     inkscape:current-layer="svg52" />
  <path
     d="M 154.544,21.287 37.02,48.055 C 31.431,49.328 25.868,45.829 24.595002,40.24 23.322002,34.651 26.821,29.088 32.41,27.815 L 149.934,1.04697 c 5.589,-1.273003 11.152,2.226 12.425,7.815 1.274,5.58903 -2.225,11.15203 -7.815,12.42503 z"
     fill="#1d1d1d"
     id="path18" />
  <path
     d="M 191.755,184.658 74.23,211.426 c -5.589,1.273 -9.088,6.836 -7.815,12.425 1.273,5.589 6.836,9.088 12.425,7.815 l 117.524,-26.768 c 5.589,-1.273 9.088,-6.836 7.815,-12.425 -1.272,-5.589 -6.835,-9.088 -12.424,-7.815 z"
     fill="#1d1d1d"
     id="path20" />
  <path
     d="m 37.087,57.309 c -1.037,0 -1.975,-0.715 -2.215,-1.769 l -3.03,-13.301 c -0.134,-0.588 -0.028,-1.205 0.292,-1.716 0.321,-0.511 0.832,-0.873 1.42,-1.007 L 153.97,12.089 c 0.586,-0.132 1.206,-0.028 1.716,0.292 0.51,0.321 0.872,0.832 1.006,1.42 l 3.029,13.301 c 0.279,1.224 -0.488,2.443 -1.712,2.722 L 37.593,57.251 c -0.169,0.039 -0.339,0.058 -0.506,0.058 z m -0.306,-13.863 2.02,8.867 115.982,-26.417 -2.02,-8.867 z"
     fill="#1d1d1d"
     id="path22" />
  <path
     d="m 74.297,220.68 c -1.037,0 -1.975,-0.715 -2.215,-1.769 l -3.03,-13.302 c -0.134,-0.588 -0.028,-1.205 0.292,-1.715 0.321,-0.511 0.832,-0.873 1.42,-1.007 L 191.18,175.46 c 0.587,-0.132 1.205,-0.029 1.716,0.292 0.51,0.321 0.872,0.832 1.006,1.42 l 3.029,13.301 c 0.279,1.224 -0.488,2.443 -1.712,2.722 L 74.803,220.622 c -0.169,0.04 -0.339,0.058 -0.506,0.058 z m -0.305,-13.863 2.02,8.868 115.982,-26.417 -2.02,-8.867 z"
     fill="#1d1d1d"
     id="path24" />
  <path
     d="m 80.908,205.183 c -0.425,0 -0.845,-0.119 -1.21,-0.349 -0.51,-0.321 -0.873,-0.832 -1.007,-1.42 L 44.51,53.344 c -0.279,-1.224 0.488,-2.4429 1.712,-2.7219 L 147.361,27.586 c 0.587,-0.133 1.205,-0.028 1.716,0.292 0.51,0.321 0.872,0.832 1.006,1.42 l 34.181,150.07 c 0.279,1.224 -0.488,2.443 -1.712,2.722 L 81.413,205.126 c -0.167,0.038 -0.336,0.057 -0.505,0.057 z M 49.449,54.551 82.62,200.188 179.325,178.162 146.154,32.525 Z"
     fill="#1d1d1d"
     id="path26" />
  <path
     d="m 164.957,112.22 c 4.076,0 7.381,-3.305 7.381,-7.381 0,-4.076 -3.305,-7.381 -7.381,-7.381 -4.076,0 -7.381,3.305 -7.381,7.381 0,4.076 3.305,7.381 7.381,7.381 z"
     fill="#1d1d1d"
     id="path28" />
  <path
     d="m 63.818,135.256 c 4.0764,0 7.381,-3.305 7.381,-7.381 0,-4.076 -3.3046,-7.381 -7.381,-7.381 -4.0764,0 -7.381,3.305 -7.381,7.381 0,4.076 3.3046,7.381 7.381,7.381 z"
     fill="#1d1d1d"
     id="path30" />
  <path
     d="m 108.146,198.979 c -0.383,0 -0.763,-0.097 -1.102,-0.285 -10.345,-5.735 -16.63,-13.334 -18.682,-22.584 -3.14,-14.158 4.531,-27.484 9.383,-34.166 7.92,-11.261 7.867,-17.858 6.626,-23.305 -1.241,-5.447 -4.049,-11.417 -16.095,-18.154 C 81.038,96.579 68.353,87.891 65.053,73.77 c -2.157,-9.227 0.218,-18.799 7.059,-28.448 0.323,-0.457 0.804,-0.778 1.35,-0.902 l 46.664,-10.628 c 0.545,-0.122 1.118,-0.043 1.608,0.229 10.344,5.735 16.63,13.334 18.683,22.585 3.14,14.158 -4.531,27.483 -9.383,34.166 -7.921,11.262 -7.867,17.858 -6.626,23.305 1.24,5.447 4.049,11.417 16.095,18.154 7.238,3.906 19.922,12.594 23.223,26.715 2.157,9.227 -0.218,18.798 -7.058,28.448 -0.323,0.457 -0.805,0.778 -1.35,0.902 l -46.664,10.628 c -0.17,0.036 -0.34,0.055 -0.508,0.055 z M 75.327,48.657 c -5.677,8.294 -7.645,16.391 -5.848,24.077 2.115,9.047 9.764,17.709 20.985,23.765 13.663,7.641 16.936,14.968 18.339,21.129 1.403,6.161 1.626,14.183 -7.36,26.959 -7.512,10.347 -10.655,21.467 -8.643,30.538 1.709,7.706 6.989,14.151 15.698,19.169 l 44.949,-10.238 c 5.677,-8.294 7.645,-16.391 5.848,-24.077 -2.115,-9.047 -9.764,-17.709 -20.986,-23.765 -13.663,-7.642 -16.936,-14.968 -18.338,-21.129 -1.404,-6.161 -1.627,-14.181 7.36,-26.959 7.512,-10.346 10.655,-21.466 8.644,-30.537 -1.71,-7.706 -6.99,-14.152 -15.699,-19.17 z"
     fill="#1d1d1d"
     id="path32" />
  <path
     d="m 145.504,148.941 c -2.533,-5.567 -8.909,-8.227 -14.674,-6.183 -2.948,1.045 -5.097,3.016 -6.541,5.785 -0.668,1.279 -0.964,2.677 -1.319,4.055 -0.052,0.199 -0.171,0.687 -0.171,0.687 0,0 -0.321,-0.389 -0.453,-0.544 -0.131,-0.156 -0.261,-0.312 -0.391,-0.468 -0.274,-0.33 -0.719,-0.439 -1.13,-0.313 -0.145,0.044 -0.294,0.081 -0.448,0.111 -0.332,0.063 -0.659,0.085 -0.971,0.07 -0.806,-0.038 -1.623,0.117 -2.358,0.449 -0.285,0.129 -0.597,0.228 -0.929,0.291 -0.333,0.064 -0.661,0.086 -0.974,0.071 -0.805,-0.039 -1.622,0.118 -2.357,0.449 -0.285,0.129 -0.597,0.228 -0.929,0.291 -0.333,0.064 -0.66,0.086 -0.973,0.071 -0.806,-0.039 -1.623,0.119 -2.359,0.45 -0.284,0.128 -0.596,0.227 -0.927,0.29 -0.333,0.064 -0.66,0.086 -0.973,0.071 -0.805,-0.039 -1.623,0.118 -2.358,0.45 -0.284,0.128 -0.596,0.228 -0.927,0.291 -0.498,0.095 -0.984,0.097 -1.427,0.021 -0.518,-0.089 -1.003,0.285 -1.128,0.795 -0.244,0.994 -0.361,2.036 -0.336,3.111 0.079,3.259 1.295,6.15 3.289,8.717 1.203,1.548 2.678,2.867 4.273,4.007 3.438,2.456 7.175,4.407 10.875,6.412 7.414,4.016 11.347,7.761 11.404,7.811 0.03,-0.071 1.954,-5.149 6.897,-11.979 2.483,-3.429 5.022,-6.826 7.061,-10.555 0.917,-1.676 1.656,-3.456 2.065,-5.321 0.707,-3.218 0.556,-6.388 -0.811,-9.393 z"
     fill="#e90000"
     id="path34" />
  <path
     d="m 110.814,145.715 c -0.005,-0.003 -0.011,-0.006 -0.016,-0.008 -0.399,-0.199 -0.888,-0.072 -1.13,0.295 -0.163,0.247 -0.675,0.991 -0.675,0.991 -0.004,0.006 -0.008,0.012 -0.013,0.018 -0.287,0.408 -0.172,0.967 0.253,1.237 0.427,0.27 0.998,0.145 1.264,-0.278 0.176,-0.28 0.398,-0.636 0.663,-1.063 0.261,-0.42 0.102,-0.969 -0.346,-1.192 z"
     fill="#e90000"
     id="path36" />
  <path
     d="m 107.594,150.395 c -0.004,-0.004 -0.01,-0.006 -0.014,-0.009 -0.354,-0.227 -0.797,-0.103 -1.024,0.288 -0.152,0.263 -0.63,1.055 -0.63,1.055 -0.004,0.006 -0.008,0.013 -0.012,0.019 -0.268,0.434 -0.178,1.043 0.199,1.347 0.377,0.305 0.894,0.185 1.144,-0.266 0.165,-0.299 0.373,-0.677 0.621,-1.134 0.243,-0.447 0.114,-1.046 -0.284,-1.3 z"
     fill="#e90000"
     id="path38" />
  <path
     d="m 113.924,139.264 c -0.009,-0.005 -0.018,-0.009 -0.027,-0.014 -0.461,-0.235 -1.021,-0.032 -1.219,0.446 -0.337,0.815 -0.704,1.638 -1.105,2.471 -0.178,0.369 -0.089,0.808 0.21,1.088 0.005,0.005 0.01,0.009 0.015,0.014 0.468,0.437 1.231,0.273 1.485,-0.315 0.381,-0.881 0.739,-1.737 1.073,-2.576 0.171,-0.426 -0.021,-0.907 -0.432,-1.114 z"
     fill="#e90000"
     id="path40" />
  <path
     d="m 115.143,133.663 -0.023,-0.003 c -0.456,-0.065 -0.887,0.222 -1.005,0.667 -0.15,0.565 -0.313,1.132 -0.495,1.703 -0.127,0.4 0.041,0.833 0.404,1.044 0.007,0.004 0.013,0.008 0.02,0.011 0.487,0.281 1.113,0.045 1.29,-0.489 0.2,-0.602 0.385,-1.197 0.555,-1.789 0.151,-0.527 -0.203,-1.066 -0.746,-1.144 z"
     fill="#e90000"
     id="path42" />
  <path
     d="m 131.668,61.576 c -7.15,7 -19.844,9.385 -28.287,6.443 -8.443,-2.943 -21.144,-0.555 -28.294,6.444 2.632,6.676 8.916,13.041 17.68,17.768 l 0.096,0.048 c 12.16,6.806 18.345,14.064 20.669,24.269 0.048,0.209 0.091,0.417 0.132,0.625 0.082,0.417 0.457,0.71 0.881,0.696 0.006,0 0.012,0 0.018,-0.001 0.538,-0.018 0.926,-0.518 0.819,-1.045 -0.044,-0.219 -0.091,-0.44 -0.143,-0.664 -2.324,-10.205 0.107,-19.425 8.12,-30.826 l 0.066,-0.085 c 5.854,-8.057 8.762,-16.515 8.243,-23.672 z"
     fill="#e90000"
     id="path44" />
  <path
     d="m 115.456,123.452 c -0.513,0.016 -0.913,0.444 -0.901,0.956 0.01,0.424 0.01,0.848 10e-4,1.273 -0.01,0.498 0.366,0.92 0.862,0.961 0.548,0.045 1.016,-0.386 1.02,-0.936 0.003,-0.45 -0.005,-0.906 -0.023,-1.367 -0.02,-0.508 -0.451,-0.902 -0.959,-0.887 z"
     fill="#e90000"
     id="path46" />
  <path
     d="m 115.127,121.828 c 0.538,0 0.954,-0.467 0.896,-1.002 -0.039,-0.367 -0.085,-0.738 -0.137,-1.115 -0.062,-0.444 -0.452,-0.766 -0.9,-0.747 -0.016,0.001 -0.032,0.001 -0.047,0.002 -0.507,0.021 -0.883,0.474 -0.821,0.978 0.043,0.353 0.08,0.706 0.111,1.058 0.041,0.467 0.43,0.826 0.898,0.826 z"
     fill="#e90000"
     id="path48" />
  <path
     d="m 115.491,128.099 c -0.512,-10e-4 -0.929,0.404 -0.949,0.916 -0.027,0.681 -0.078,1.366 -0.151,2.055 -0.054,0.504 0.308,0.952 0.813,1.009 0.013,0.001 0.025,0.003 0.038,0.004 0.5,0.059 0.959,-0.29 1.018,-0.79 0.087,-0.736 0.147,-1.472 0.178,-2.213 0.022,-0.535 -0.411,-0.98 -0.947,-0.981 z"
     fill="#e90000"
     id="path50" />
</svg>
