<?xml version="1.0" encoding="utf-8"?>
<!-- Generator: Adobe Illustrator 27.9.0, SVG Export Plug-In . SVG Version: 6.00 Build 0)  -->
<svg version="1.1" id="Layer_4"
  xmlns="http://www.w3.org/2000/svg"
  xmlns:xlink="http://www.w3.org/1999/xlink" x="0px" y="0px" viewBox="0 0 200 100" style="enable-background:new 0 0 200 100;" xml:space="preserve">
  <style type="text/css">
  .st0{clip-path:url(#SVGID_00000013189448419919464330000013029751876922763669_);}
  .st1{clip-path:url(#SVGID_00000008870514776237494460000007803959838526295687_);}
  .st2{clip-path:url(#SVGID_00000042739075047646552260000010866596551395616918_);}
  .st3{font-family:'RobotoSlab-Regular';}
  .st4{font-size:25.5446px;}
  .st5{font-size:37.9502px;}
  .st6{letter-spacing:1;}
  .st7{font-family:'RobotoSlab-Bold';}
  .st8{font-size:36.8793px;}
  </style>
  <g>
    <g>
      <g>
        <g>
          <g>
            <defs>
              <path id="SVGID_1_" d="M18.3,85c0,1.3,1.1,2.4,2.4,2.4c11.3,0,16.8,0.2,19.9,4.9c0.5,0.7,1.2,1.1,2,1.1c0.5,0,0.9-0.1,1.3-0.4
              c1.1-0.7,1.4-2.2,0.7-3.4c-4.6-7-12.7-7-24-7C19.3,82.6,18.3,83.7,18.3,85"/>
            </defs>
            <use xlink:href="#SVGID_1_" style="overflow:visible;"/>
            <clipPath id="SVGID_00000042716430906295043380000006061424098257843882_">
              <use xlink:href="#SVGID_1_" style="overflow:visible;"/>
            </clipPath>

            <rect x="18.3" y="82.6" style="clip-path:url(#SVGID_00000042716430906295043380000006061424098257843882_);" width="27.1" height="10.8"/>
          </g>
        </g>
      </g>
    </g>
    <g>
      <g>
        <g>
          <g>
            <defs>
              <path id="SVGID_00000019637555557300288910000006123259709720057738_" d="M18.3,75.3c0,1.3,1.1,2.4,2.4,2.4
              c11.6,0,18.6,0.5,19.4,3c-0.2,0.5-0.8,0.9-2.8,1.3c-3.1,0.6-7.9,0.6-14.6,0.6h-2c-1.3,0-2.4,1.1-2.4,2.4s1.1,2.4,2.4,2.4h2
              c0.6,0,1.2,0,1.9,0c6,0,10.4-0.1,13.6-0.7c3.3-0.6,5.4-2,6.3-4c0.3-0.4,0.5-1.9,0.5-2.1c0-0.2-0.2-1.6-0.4-2
              c-2.2-5.8-12.3-5.8-23.9-5.8C19.3,72.8,18.3,73.9,18.3,75.3"/>
            </defs>
            <use xlink:href="#SVGID_00000019637555557300288910000006123259709720057738_" style="overflow:visible;"/>
            <clipPath id="SVGID_00000011026240046545726670000018234515428635897218_">
              <use xlink:href="#SVGID_00000019637555557300288910000006123259709720057738_" style="overflow:visible;"/>
            </clipPath>

            <rect x="18.3" y="72.8" style="clip-path:url(#SVGID_00000011026240046545726670000018234515428635897218_);" width="26.8" height="14.6"/>
          </g>
        </g>
      </g>
    </g>
    <path d="M30,6.6C14.9,6.6,2.6,18.9,2.6,34c0,6.6,2.4,12.9,6.7,17.9l0,0c0,0,2.1,2.6,3.5,7.6c1.2,4.6,4.6,7.2,9.3,7.2l4.6,0
    c2.6,0,4.8-0.5,13-13.1c1.5-2.3,3.2-5.9,4.2-9.1c1.7-5.5,0.5-8.8-0.9-10.6c-1.6-2.1-4.1-3.4-6.9-3.4c-2.1,0-4.3,1.4-6,3
    c0,0-1.6,1.4-2.5,3.9c-0.3,0.8-0.5,1.7-0.5,2.6c0,2.1,1.7,3.3,2.7,3.3c1.5,0,2.8-1.9,2.8-3.3c0-0.8-0.1-1.6-0.4-2.5
    c0.9-1.2,2.7-2.2,3.8-2.2c0.5,0,2,0.1,3,1.4c1,1.3,1,3.5,0.2,6.3c-0.7,2.3-2.2,5.4-3.6,7.8c-3.1,5.2-6,8.2-7.6,10
    c-0.4,0.5-1.1,1-2.3,1l-3.7,0c-2.5,0-4-1.1-4.6-3.6c-1.7-6.1-4.4-9.3-4.5-9.5l0,0C9.4,44.6,7.4,39.4,7.4,34
    c0-12.4,10.1-22.5,22.5-22.5S52.5,21.6,52.5,34c0,5.6-2.1,11.6-5.5,15.5l0,0c-0.8,0.9-5.7,6.7-5.7,17.4c0,3-6.4,6-20.6,6
    c-1.3,0-2.4,1.1-2.4,2.4s1.1,2.4,2.4,2.4c22.2,0,25.5-6.8,25.5-10.9c0-9.2,4.2-13.9,4.5-14.1c0,0,0,0,0-0.1c0,0,0,0,0,0
    c4.2-4.8,6.7-11.8,6.7-18.6C57.3,18.9,45.1,6.6,30,6.6"/>
    <g>
      <g>
        <g>
          <g>
            <defs>
              <path id="SVGID_00000023998556211217165810000015537949287580014249_" d="M17,34.1c-1.9,2.8-2.2,6.6-0.7,10.8
              c1.4,3.9,4.9,7.9,7.4,10.5c0.9,1,2.5,1,3.4,0c1-0.9,1-2.5,0-3.4c-3.1-3.1-5.5-6.4-6.3-8.8c-1-2.6-0.9-4.9,0.1-6.4
              c0.7-1.1,2-1.6,3.5-1.6c1,0,2.5,1,3.2,2.2c0.9-2.5,2.5-3.9,2.5-3.9c-1.5-1.6-3.4-3.1-5.7-3.1C21.3,30.4,18.6,31.7,17,34.1"/>
            </defs>
            <use xlink:href="#SVGID_00000023998556211217165810000015537949287580014249_" style="overflow:visible;"/>
            <clipPath id="SVGID_00000126309396841046081340000007823375818466620554_">
              <use xlink:href="#SVGID_00000023998556211217165810000015537949287580014249_" style="overflow:visible;"/>
            </clipPath>
            <polygon style="clip-path:url(#SVGID_00000126309396841046081340000007823375818466620554_);" points="2.1,40.6 24,22.9 
            42.7,46 20.8,63.8"/>
          </g>
        </g>
      </g>
    </g>
  </g>
  <g>
    <text transform="matrix(1 0 0 1 69.5005 45.9755)" class="st3 st5">EAGx</text>
    <text transform="matrix(1 0 0 1 69.5 77.3812)" class="st3 st4">Rotterdam</text>
  </g>
</svg>
