<?xml version="1.0" encoding="utf-8"?>
<!-- Generator: Adobe Illustrator 27.9.0, SVG Export Plug-In . SVG Version: 6.00 Build 0)  -->
<svg version="1.1" id="Layer_3"
  xmlns="http://www.w3.org/2000/svg"
  xmlns:xlink="http://www.w3.org/1999/xlink" x="0px" y="0px" viewBox="0 0 200 100" style="enable-background:new 0 0 200 100;" xml:space="preserve">
  <style type="text/css">
  .st0{clip-path:url(#SVGID_00000010284299527995585590000002144776129606768021_);}
  .st1{clip-path:url(#SVGID_00000091718995225486885220000009719067092619790771_);}
  .st2{clip-path:url(#SVGID_00000052095904542557131930000014601872565212904079_);}
  .st3{font-family:'RobotoSlab-Bold';}
  .st4{font-size:36.8793px;}
  .st5{font-family:'RobotoSlab-Regular';}
  .st6{font-size:34.2969px;}
  .st7{font-size:37.9502px;}
  .st8{letter-spacing:1;}
  </style>
  <g>
    <g>
      <g>
        <g>
          <g>
            <defs>
              <path id="SVGID_1_" d="M17.6,85c0,1.3,1.1,2.4,2.4,2.4c11.3,0,16.9,0.2,19.9,4.9c0.5,0.7,1.2,1.1,2,1.1c0.5,0,0.9-0.1,1.3-0.4
              c1.1-0.7,1.4-2.2,0.7-3.4c-4.6-7.1-12.7-7.1-24-7.1C18.7,82.6,17.6,83.7,17.6,85"/>
            </defs>
            <use xlink:href="#SVGID_1_" style="overflow:visible;"/>
            <clipPath id="SVGID_00000096740348154698459410000004427026351376827542_">
              <use xlink:href="#SVGID_1_" style="overflow:visible;"/>
            </clipPath>

            <rect x="17.6" y="82.6" style="clip-path:url(#SVGID_00000096740348154698459410000004427026351376827542_);" width="27.1" height="10.8"/>
          </g>
        </g>
      </g>
    </g>
    <g>
      <g>
        <g>
          <g>
            <defs>
              <path id="SVGID_00000133498085335369735860000002625957026593467274_" d="M17.6,75.3c0,1.3,1.1,2.4,2.4,2.4
              c11.6,0,18.6,0.5,19.4,3c-0.2,0.5-0.8,0.9-2.8,1.3c-3.1,0.6-7.9,0.6-14.6,0.6h-2c-1.3,0-2.4,1.1-2.4,2.4s1.1,2.4,2.4,2.4h2
              c0.6,0,1.2,0,1.9,0c6,0,10.4-0.1,13.6-0.7c3.3-0.6,5.4-2,6.3-4c0.3-0.4,0.5-1.9,0.5-2.1c0-0.2-0.2-1.6-0.4-2
              c-2.2-5.8-12.4-5.8-23.9-5.8C18.7,72.8,17.6,73.9,17.6,75.3"/>
            </defs>
            <use xlink:href="#SVGID_00000133498085335369735860000002625957026593467274_" style="overflow:visible;"/>
            <clipPath id="SVGID_00000162318476014526458520000014930374856149722793_">
              <use xlink:href="#SVGID_00000133498085335369735860000002625957026593467274_" style="overflow:visible;"/>
            </clipPath>

            <rect x="17.6" y="72.8" style="clip-path:url(#SVGID_00000162318476014526458520000014930374856149722793_);" width="26.8" height="14.6"/>
          </g>
        </g>
      </g>
    </g>
    <path d="M29.3,6.6C14.2,6.6,1.9,18.9,1.9,34c0,6.6,2.4,12.9,6.7,17.9l0,0c0,0,2.1,2.6,3.5,7.6c1.2,4.6,4.6,7.2,9.3,7.2l4.6,0
    c2.6,0,4.8-0.5,13-13.1c1.5-2.3,3.2-5.9,4.2-9.1c1.7-5.5,0.5-8.8-0.9-10.6c-1.6-2.1-4.1-3.4-6.9-3.4c-2.1,0-4.3,1.4-6,3
    c0,0-1.6,1.4-2.5,3.9c-0.3,0.8-0.5,1.7-0.5,2.6c0,2.1,1.7,3.3,2.7,3.3c1.5,0,2.8-1.9,2.8-3.3c0-0.8-0.1-1.6-0.4-2.5
    c0.9-1.2,2.7-2.2,3.9-2.2c0.5,0,2,0.1,3,1.4c1,1.3,1,3.5,0.2,6.3c-0.7,2.3-2.2,5.4-3.6,7.8c-3.1,5.2-6,8.2-7.6,10
    c-0.4,0.5-1.1,1-2.3,1l-3.7,0c-2.5,0-4-1.1-4.6-3.6c-1.7-6.1-4.4-9.3-4.5-9.5l0,0C8.7,44.6,6.8,39.4,6.8,34
    c0-12.4,10.1-22.5,22.5-22.5S51.8,21.6,51.8,34c0,5.6-2.1,11.6-5.5,15.5l0,0c-0.8,0.9-5.7,6.7-5.7,17.4c0,3-6.4,6-20.6,6
    c-1.3,0-2.4,1.1-2.4,2.4s1.1,2.4,2.4,2.4c22.2,0,25.5-6.8,25.5-10.9c0-9.2,4.2-13.9,4.5-14.1c0,0,0,0,0-0.1c0,0,0,0,0,0
    c4.2-4.8,6.7-11.8,6.7-18.6C56.7,18.9,44.4,6.6,29.3,6.6"/>
    <g>
      <g>
        <g>
          <g>
            <defs>
              <path id="SVGID_00000028314305316410214740000016885617308358566017_" d="M16.3,34.1c-1.9,2.8-2.2,6.6-0.7,10.8
              c1.4,3.9,4.9,7.9,7.4,10.5c0.9,1,2.5,1,3.4,0c1-0.9,1-2.5,0-3.4c-3.1-3.1-5.5-6.4-6.3-8.8c-1-2.6-0.9-4.9,0.1-6.4
              c0.7-1.1,2-1.6,3.5-1.6c1,0,2.5,1,3.2,2.2c0.9-2.5,2.5-3.9,2.5-3.9c-1.5-1.6-3.4-3.1-5.7-3.1C20.6,30.4,17.9,31.7,16.3,34.1" />
            </defs>
            <use xlink:href="#SVGID_00000028314305316410214740000016885617308358566017_" style="overflow:visible;"/>
            <clipPath id="SVGID_00000173843843386944787560000004550979667843081913_">
              <use xlink:href="#SVGID_00000028314305316410214740000016885617308358566017_" style="overflow:visible;"/>
            </clipPath>
            <polygon style="clip-path:url(#SVGID_00000173843843386944787560000004550979667843081913_);" points="1.4,40.6 23.3,22.9 
            42,46 20.1,63.8"/>
          </g>
        </g>
      </g>
    </g>
  </g>
  <g>
    <text transform="matrix(1 0 0 1 68.8452 45.9755)" class="st5 st7">EAGx</text>
    <text transform="matrix(1 0 0 1 68.8447 80.2494)" class="st5 st6">Warsaw</text>
  </g>
</svg>
