<?xml version="1.0" encoding="utf-8"?>
<!-- Generator: Adobe Illustrator 27.9.0, SVG Export Plug-In . SVG Version: 6.00 Build 0)  -->
<svg version="1.1" id="Layer_4"
  xmlns="http://www.w3.org/2000/svg"
  xmlns:xlink="http://www.w3.org/1999/xlink" x="0px" y="0px" viewBox="0 0 200 100" style="enable-background:new 0 0 200 100;" xml:space="preserve">
  <style type="text/css">
  .st0{clip-path:url(#SVGID_00000130639295269514111080000007742460754448963712_);}
  .st1{clip-path:url(#SVGID_00000069378713405040325470000015951239741144497818_);}
  .st2{clip-path:url(#SVGID_00000052794631435567726610000017685526684759322257_);}
  .st3{font-family:'RobotoSlab-Regular';}
  .st4{font-size:37.9502px;}
  .st5{letter-spacing:1;}
  .st6{font-family:'RobotoSlab-Bold';}
  .st7{font-size:36.8793px;}
  </style>
  <g>
    <g>
      <g>
        <g>
          <g>
            <defs>
              <path id="SVGID_1_" d="M24,85c0,1.3,1.1,2.4,2.4,2.4c11.3,0,16.9,0.2,19.9,4.9c0.5,0.7,1.2,1.1,2,1.1c0.5,0,0.9-0.1,1.3-0.4
              c1.1-0.7,1.4-2.2,0.7-3.4c-4.6-7.1-12.7-7.1-24-7.1C25.1,82.6,24,83.7,24,85"/>
            </defs>
            <use xlink:href="#SVGID_1_" style="overflow:visible;"/>
            <clipPath id="SVGID_00000040555983859078951510000007882514366850185614_">
              <use xlink:href="#SVGID_1_" style="overflow:visible;"/>
            </clipPath>

            <rect x="24" y="82.6" style="clip-path:url(#SVGID_00000040555983859078951510000007882514366850185614_);" width="27.1" height="10.8"/>
          </g>
        </g>
      </g>
    </g>
    <g>
      <g>
        <g>
          <g>
            <defs>
              <path id="SVGID_00000072280029148108087130000003101456071517999760_" d="M24,75.3c0,1.3,1.1,2.4,2.4,2.4
              c11.6,0,18.6,0.5,19.4,3C45.6,81.2,45,81.6,43,82c-3.1,0.6-7.9,0.6-14.6,0.6h-2c-1.3,0-2.4,1.1-2.4,2.4s1.1,2.4,2.4,2.4h2
              c0.6,0,1.2,0,1.9,0c6,0,10.4-0.1,13.6-0.7c3.3-0.6,5.4-2,6.3-4c0.3-0.4,0.5-1.9,0.5-2.1c0-0.2-0.2-1.6-0.4-2
              c-2.2-5.8-12.4-5.8-23.9-5.8C25.1,72.8,24,73.9,24,75.3"/>
            </defs>
            <use xlink:href="#SVGID_00000072280029148108087130000003101456071517999760_" style="overflow:visible;"/>
            <clipPath id="SVGID_00000163782231372080416030000002833521710171698051_">
              <use xlink:href="#SVGID_00000072280029148108087130000003101456071517999760_" style="overflow:visible;"/>
            </clipPath>

            <rect x="24" y="72.8" style="clip-path:url(#SVGID_00000163782231372080416030000002833521710171698051_);" width="26.8" height="14.6"/>
          </g>
        </g>
      </g>
    </g>
    <path d="M35.7,6.6C20.6,6.6,8.3,18.9,8.3,34c0,6.6,2.4,12.9,6.7,17.9l0,0c0,0,2.1,2.6,3.5,7.6c1.2,4.6,4.5,7.2,9.3,7.2l4.6,0
    c2.6,0,4.8-0.5,13-13.1c1.5-2.3,3.2-5.9,4.2-9.1c1.7-5.5,0.5-8.8-0.9-10.6c-1.6-2.1-4.1-3.4-6.9-3.4c-2.1,0-4.3,1.4-6,3
    c0,0-1.6,1.4-2.5,3.9c-0.3,0.8-0.5,1.7-0.5,2.6c0,2.1,1.7,3.3,2.7,3.3c1.5,0,2.8-1.9,2.8-3.3c0-0.8-0.1-1.6-0.4-2.5
    c0.9-1.2,2.7-2.2,3.8-2.2c0.5,0,2,0.1,3,1.4c1,1.3,1,3.5,0.2,6.3c-0.7,2.3-2.2,5.4-3.6,7.8c-3.1,5.2-6,8.2-7.6,10
    c-0.4,0.5-1.1,1-2.3,1l-3.7,0c-2.5,0-4-1.1-4.6-3.6c-1.7-6.1-4.4-9.3-4.5-9.5l0,0c-3.5-4.1-5.5-9.3-5.5-14.7
    c0-12.4,10.1-22.5,22.5-22.5S58.2,21.6,58.2,34c0,5.6-2.1,11.6-5.5,15.5l0,0c-0.8,0.9-5.7,6.7-5.7,17.4c0,3-6.4,6-20.6,6
    c-1.3,0-2.4,1.1-2.4,2.4s1.1,2.4,2.4,2.4c22.2,0,25.5-6.8,25.5-10.9c0-9.2,4.2-13.9,4.5-14.1c0,0,0,0,0-0.1c0,0,0,0,0,0
    c4.2-4.8,6.7-11.8,6.7-18.6C63.1,18.9,50.8,6.6,35.7,6.6"/>
    <g>
      <g>
        <g>
          <g>
            <defs>
              <path id="SVGID_00000024001283228514630980000006158909809706215042_" d="M22.7,34.1c-2,2.8-2.2,6.6-0.7,10.8
              c1.4,3.9,4.9,7.9,7.4,10.5c0.9,1,2.5,1,3.4,0c1-0.9,1-2.5,0-3.4c-3.1-3.1-5.5-6.4-6.3-8.8c-1-2.6-0.9-4.9,0.1-6.4
              c0.7-1.1,2-1.6,3.5-1.6c1,0,2.5,1,3.2,2.2c0.9-2.5,2.5-3.9,2.5-3.9c-1.5-1.6-3.4-3.1-5.7-3.1C27,30.4,24.3,31.7,22.7,34.1"/>
            </defs>
            <use xlink:href="#SVGID_00000024001283228514630980000006158909809706215042_" style="overflow:visible;"/>
            <clipPath id="SVGID_00000153693044759676537250000008106063026072522156_">
              <use xlink:href="#SVGID_00000024001283228514630980000006158909809706215042_" style="overflow:visible;"/>
            </clipPath>
            <polygon style="clip-path:url(#SVGID_00000153693044759676537250000008106063026072522156_);" points="7.8,40.6 29.7,22.9 
            48.4,46 26.5,63.8"/>
          </g>
        </g>
      </g>
    </g>
  </g>
  <g>
    <text transform="matrix(1 0 0 1 75.2153 45.9755)" class="st3 st4">EAGx</text>
    <text transform="matrix(1 0 0 1 75.2153 81.3978)" class="st3 st7">Berlin</text>
  </g>
</svg>
