<?xml version="1.0" encoding="utf-8"?>
<!-- Generator: Adobe Illustrator 27.9.0, SVG Export Plug-In . SVG Version: 6.00 Build 0)  -->
<svg version="1.1" id="Layer_1" xmlns="http://www.w3.org/2000/svg" xmlns:xlink="http://www.w3.org/1999/xlink" x="0px" y="0px"
	 viewBox="0 0 200 100" style="enable-background:new 0 0 200 100;" xml:space="preserve">
<g>
	<path d="M32.5,65.7C32.5,65.6,32.5,65.6,32.5,65.7C32.4,65.6,32.5,65.6,32.5,65.7C32.5,65.6,32.5,65.6,32.5,65.7z"/>
	<path d="M28.2,75.8C28.2,75.8,28.2,75.8,28.2,75.8c1.7,0,3.2-0.7,4.3-1.8c0,0,0,0,0,0C31.4,75.2,29.9,75.8,28.2,75.8z"/>
	<path d="M6.7,75.6c-0.1,0-0.2,0-0.3-0.1C6.5,75.6,6.6,75.6,6.7,75.6z"/>
	<path d="M5.9,75.4C5.9,75.4,5.9,75.4,5.9,75.4C5.9,75.4,5.9,75.4,5.9,75.4z"/>
	<path d="M22.3,50c0-1.6,0.7-3.1,1.8-4.2v0c1.1-1.1,2.6-1.7,4.2-1.7c0,0,0,0,0,0c-1.7,0-3.1,0.7-4.2,1.8c-3.2,3.2-8.4,3.2-11.6,0
		c1.1,1.1,1.8,2.6,1.8,4.2c0,3.3-2.7,6-6,6c-1.6,0-3.1-0.6-4.2-1.8c3.1,3.1,3.1,8.2,0,11.4c1.1-1.1,2.6-1.7,4.2-1.7c3.3,0,6,2.7,6,6
		c0,3.3-2.7,6-6,6c0,0,0,0,0,0c3.3,0,6-2.7,6-6c0-1.6-0.7-3.1-1.8-4.2c-3.1-3.1-3.1-8.2,0-11.4c3.2-3.2,8.4-3.2,11.6,0c0,0,0,0,0,0
		c0.1,0.1,0.1,0.1,0.2,0.1c0,0-0.1-0.1-0.1-0.1C22.9,53.1,22.3,51.7,22.3,50z"/>
	<path d="M2.2,50c0,1.7,0.7,3.1,1.8,4.2v-8.5C2.8,46.9,2.2,48.4,2.2,50z"/>
	<path d="M8.1,75.8c-0.2,0-0.4,0-0.5,0C7.7,75.8,7.9,75.8,8.1,75.8z"/>
	<path d="M7.5,75.8c-0.2,0-0.4,0-0.5-0.1C7.1,75.7,7.3,75.8,7.5,75.8z"/>
	<path d="M34.2,50c0,1.6-0.6,3.1-1.8,4.2c3.2-3.2,8.4-3.2,11.6,0c0,0,0,0,0,0c1.1,1.1,2.7,1.8,4.2,1.8c3.3,0,6-2.7,6-6s-2.7-6-6-6
		c-1.6,0-3.1,0.7-4.2,1.8c-3.2,3.2-8.4,3.2-11.6,0c-1.1-1.1-2.7-1.8-4.2-1.8C31.5,44,34.2,46.7,34.2,50z"/>
	<path d="M24,74.1L24,74.1c1.1,1.1,2.6,1.8,4.2,1.8C26.6,75.8,25.1,75.2,24,74.1z"/>
	<path d="M8.2,44c1.6,0,3.1,0.6,4.2,1.8c-3.1-3.1-3.1-8.2,0-11.4s8.4-3.2,11.6,0c1.1,1.1,2.7,1.8,4.2,1.8c3.3,0,6-2.7,6-6
		c0-3.3-2.7-6-6-6c-1.7,0-3.1,0.7-4.2,1.8c-3.2,3.2-8.4,3.2-11.6,0c-1.1-1.1-2.7-1.8-4.2-1.8c-3.3,0-6,2.7-6,6
		c0,1.6,0.7,3.1,1.8,4.2c3.1,3.1,3.1,8.2,0,11.4v0C5,44.7,6.5,44,8.2,44z M5.5,30.1c0-1.5,1.2-2.7,2.7-2.7c1.5,0,2.7,1.2,2.7,2.7
		c0,1.5-1.2,2.7-2.7,2.7C6.7,32.8,5.5,31.6,5.5,30.1z"/>
	<path d="M24,54.2v-8.5c-1.1,1.1-1.8,2.6-1.8,4.2C22.3,51.7,22.9,53.1,24,54.2z"/>
	<path d="M14.1,50c0-1.7-0.7-3.1-1.8-4.2C11.3,44.7,9.7,44,8.2,44c-1.7,0-3.1,0.7-4.2,1.8v8.5C5,55.3,6.6,56,8.2,56
		C11.5,56,14.1,53.3,14.1,50z"/>
	<path d="M28.2,44C28.2,44,28.2,44,28.2,44L28.2,44C28.2,44,28.2,44,28.2,44z"/>
	<polygon points="28.2,75.8 28.2,75.8 28.2,75.8 	"/>
	<path d="M22.3,69.8c0-1.6,0.7-3.1,1.7-4.2v0C22.9,66.7,22.2,68.3,22.3,69.8c0,1.6,0.7,3.1,1.7,4.2v0C22.9,73,22.3,71.5,22.3,69.8z"
		/>
	<path d="M32.5,74c3.2-3.2,8.4-3.1,11.6,0c1.1,1.1,2.7,1.8,4.2,1.8c3.3,0,6-2.7,6-6c0-3.3-2.7-6-6-6c-1.6,0-3.1,0.7-4.2,1.8
		c-3.2,3.2-8.3,3.2-11.6,0c1.1,1.1,1.7,2.6,1.7,4.2C34.2,71.5,33.6,73,32.5,74z M48.4,67.2c1.5,0,2.7,1.2,2.7,2.7
		c0,1.5-1.2,2.7-2.7,2.7s-2.7-1.2-2.7-2.7C45.7,68.4,46.9,67.2,48.4,67.2z"/>
	<path d="M24,74.1v-8.4c-1.1,1.1-1.7,2.6-1.7,4.2S22.9,73,24,74.1z"/>
	<path d="M34.2,69.8c0,3.3-2.7,6-6,6l0,0c1.6,0,3.1-0.7,4.2-1.7c0,0,0,0,0,0C33.6,73,34.2,71.5,34.2,69.8c0-1.6-0.6-3.1-1.7-4.2
		c0,0,0,0,0,0C33.5,66.7,34.2,68.2,34.2,69.8z"/>
	<path d="M24,45.8c1.1-1.1,2.6-1.8,4.2-1.8l0,0C26.6,44,25.1,44.7,24,45.8L24,45.8z"/>
	<path d="M32.5,54.2c1.1-1.1,1.8-2.6,1.8-4.2c0-3.3-2.7-6-6-6c0,0,0,0,0,0c3.3,0,6,2.7,6,6c0,3.3-2.7,6-6,6c-1.5,0-3-0.6-4.1-1.6
		c3,3.2,3,8.1-0.1,11.2v0c1.1-1.1,2.6-1.8,4.2-1.8c1.6,0,3.1,0.7,4.2,1.7C29.3,62.4,29.3,57.4,32.5,54.2z"/>
	<path d="M24,74.1L24,74.1c1.1,1.1,2.6,1.8,4.2,1.8c0,0,0,0,0,0C26.6,75.8,25.1,75.2,24,74.1z"/>
	<path d="M24,65.6v8.4c1.1,1.1,2.6,1.8,4.2,1.8c3.3,0,6-2.7,6-6c0-1.6-0.7-3.1-1.8-4.2c0,0,0,0,0,0c-1.1-1.1-2.6-1.7-4.2-1.7
		C26.6,63.9,25.1,64.5,24,65.6z"/>
	<path d="M34.2,50c0-3.3-2.7-6-6-6c-1.6,0-3.1,0.7-4.2,1.8v8.5c0,0,0.1,0.1,0.1,0.1c1.1,1,2.6,1.6,4.1,1.6
		C31.5,56,34.2,53.3,34.2,50z M25.6,49.8c0-1.5,1.2-2.7,2.7-2.7s2.7,1.2,2.7,2.7c0,1.5-1.2,2.7-2.7,2.7S25.6,51.3,25.6,49.8z"/>
	<path d="M7.5,75.8C7.5,75.8,7.5,75.8,7.5,75.8C7.5,75.8,7.5,75.8,7.5,75.8z"/>
	<path d="M7,75.7c-0.1,0-0.2,0-0.3-0.1C6.8,75.7,6.9,75.7,7,75.7z"/>
	<path d="M8.2,75.8C8.2,75.8,8.2,75.8,8.2,75.8C8.1,75.8,8.1,75.8,8.2,75.8C8.1,75.8,8.1,75.8,8.2,75.8z"/>
	<path d="M6.4,75.6c-0.2-0.1-0.3-0.1-0.5-0.2C6.1,75.5,6.2,75.5,6.4,75.6z"/>
	<path d="M3.9,65.6C3.9,65.6,4,65.6,3.9,65.6c-1.1,1.1-1.8,2.6-1.8,4.2c0,2.5,1.5,4.6,3.7,5.5c-0.7-0.3-1.4-0.7-1.9-1.3V65.6z"/>
	<path d="M14.1,69.8c0-3.3-2.7-6-6-6c-1.6,0-3.1,0.7-4.2,1.7c0,0,0,0,0,0v8.5c0.6,0.6,1.2,1,1.9,1.3c0,0,0,0,0.1,0
		c0.2,0.1,0.3,0.1,0.5,0.2c0.1,0,0.2,0.1,0.3,0.1c0.1,0,0.2,0,0.3,0.1c0.2,0,0.4,0.1,0.5,0.1c0,0,0,0,0,0c0.2,0,0.4,0,0.5,0
		c0,0,0.1,0,0.1,0C11.5,75.8,14.1,73.2,14.1,69.8z M8.2,73C6.4,73,5,71.6,5,69.8c0-1.7,1.4-3.1,3.1-3.1c1.7,0,3.1,1.4,3.1,3.1
		C11.3,71.6,9.9,73,8.2,73z"/>
	<path d="M8.2,66.7c-1.7,0-3.1,1.4-3.1,3.1C5,71.6,6.4,73,8.2,73c1.7,0,3.1-1.4,3.1-3.1C11.3,68.1,9.9,66.7,8.2,66.7z M8.2,72.5
		c-1.5,0-2.7-1.2-2.7-2.7s1.2-2.7,2.7-2.7c1.5,0,2.7,1.2,2.7,2.7S9.6,72.5,8.2,72.5z"/>
	<path d="M48.4,36.1c3.3,0,6-2.7,6-6s-2.7-6-6-6s-6,2.7-6,6S45.1,36.1,48.4,36.1z M48.4,27.5c1.5,0,2.7,1.2,2.7,2.7
		s-1.2,2.7-2.7,2.7s-2.7-1.2-2.7-2.7S46.9,27.5,48.4,27.5z"/>
</g>
<path d="M69.9,29.7v14.7h2.5v-5.6h5.5v-2.3h-5.5V32h7.4v-2.3C79.9,29.7,69.9,29.7,69.9,29.7z M91.1,40.6v-7.2h-2.6v5.5
	c0,1.2-0.2,2-0.5,2.5c-0.4,0.5-0.9,0.8-1.6,0.8c-0.6,0-1-0.2-1.3-0.5s-0.5-0.8-0.5-1.5v-6.8H82v7.2c0,1.2,0.3,2.2,0.9,2.9
	c0.6,0.7,1.4,1,2.5,1c0.7,0,1.3-0.2,1.8-0.6c0.5-0.4,0.8-1,1-1.7h0.3l0.2,2.2l3.9-0.1v-2.1L91.1,42L91.1,40.6L91.1,40.6z
	 M100.1,33.2c-0.9,0-1.5,0.2-1.9,0.5c-0.4,0.4-0.7,0.9-0.8,1.7h-0.3l-0.2-2h-2.3v11h2.6v-5.8c0-2,0.8-3,2.3-3c0.6,0,1,0.2,1.3,0.5
	c0.3,0.4,0.5,0.9,0.5,1.5v6.7h2.6v-7.1c0-1.3-0.3-2.3-0.9-3C102.2,33.5,101.3,33.2,100.1,33.2L100.1,33.2z M113.6,35.4h-0.2
	c-0.1-0.7-0.4-1.3-0.8-1.6c-0.5-0.4-1.1-0.6-1.9-0.6c-1.4,0-2.5,0.5-3.2,1.5c-0.8,1-1.1,2.4-1.1,4.3c0,1.8,0.4,3.2,1.1,4.2
	s1.8,1.5,3.2,1.5c0.8,0,1.4-0.2,1.9-0.6c0.5-0.4,0.8-0.9,0.9-1.6h0.2l0.3,2.1l2.2-0.1V28.8h-2.6L113.6,35.4L113.6,35.4z M113.1,41.4
	c-0.4,0.5-1,0.8-1.8,0.8s-1.4-0.3-1.8-0.8s-0.6-1.4-0.6-2.5s0.2-2,0.6-2.5s1-0.9,1.8-0.9s1.4,0.3,1.8,0.8s0.6,1.3,0.6,2.4V39
	C113.6,40.1,113.4,40.9,113.1,41.4L113.1,41.4z M124.6,31.8c0.5,0,0.9-0.2,1.2-0.5c0.3-0.3,0.5-0.7,0.5-1.2s-0.2-0.9-0.5-1.2
	c-0.3-0.3-0.7-0.5-1.2-0.5c-0.5,0-0.9,0.2-1.2,0.5c-0.3,0.3-0.5,0.7-0.5,1.2s0.2,0.9,0.5,1.2S124.2,31.8,124.6,31.8z M126,35.7v-2.3
	h-6v2.3h3.5V42h-4.1v2.3h9.9V42H126V35.7z M137.3,33.2c-0.9,0-1.5,0.2-1.9,0.5c-0.4,0.4-0.7,0.9-0.8,1.7h-0.3l-0.2-2h-2.3v11h2.6
	v-5.8c0-2,0.8-3,2.3-3c0.6,0,1,0.2,1.3,0.5s0.5,0.9,0.5,1.5v6.7h2.6v-7.1c0-1.3-0.3-2.3-0.9-3C139.4,33.5,138.5,33.2,137.3,33.2
	L137.3,33.2z M150.9,35.4h-0.2c-0.1-0.7-0.4-1.3-0.9-1.6c-0.5-0.4-1.1-0.6-2-0.6c-1.4,0-2.5,0.5-3.2,1.5c-0.8,1-1.1,2.4-1.1,4.3
	c0,1.8,0.4,3.2,1.1,4.2s1.8,1.5,3.2,1.5c0.8,0,1.4-0.2,1.9-0.6c0.5-0.4,0.8-0.9,0.9-1.6h0.2v1.3c0,1-0.2,1.8-0.7,2.4
	s-1.2,0.8-2.2,0.9l-3.5,0.1l0.1,2.3l3.2-0.1c2-0.1,3.4-0.6,4.3-1.5c0.9-0.9,1.4-2.4,1.4-4.3v-10H151L150.9,35.4L150.9,35.4z
	 M150.3,41.4c-0.4,0.5-1,0.8-1.8,0.8c-0.8,0-1.4-0.3-1.8-0.8s-0.6-1.4-0.6-2.5s0.2-2,0.6-2.5c0.4-0.6,1-0.9,1.8-0.9s1.4,0.3,1.8,0.8
	s0.6,1.3,0.6,2.4V39C150.8,40.1,150.7,40.9,150.3,41.4L150.3,41.4z M171.6,42.1c-0.4,0-0.7,0.1-1.1,0.1c-1,0-1.7-0.2-2.1-0.6
	c-0.4-0.4-0.6-1-0.6-1.8v-4h4.9v-2.3h-4.9v-3.3h-2.6v3.3h-2.7v2.3h2.7V40c0,1.6,0.4,2.8,1.2,3.5c0.8,0.7,2.1,1.1,3.9,1.1
	c0.5,0,1,0,1.4-0.1s0.9-0.1,1.4-0.2l-0.2-2.3C172.4,42,172,42.1,171.6,42.1L171.6,42.1z M181.5,33.2c-0.9,0-1.5,0.2-1.9,0.5
	c-0.4,0.4-0.7,0.9-0.8,1.7h-0.2v-6.5H176v15.5h2.6v-5.9c0-2,0.8-3,2.3-3c0.6,0,1,0.2,1.3,0.5c0.3,0.3,0.5,0.8,0.5,1.5v6.8h2.6v-7.1
	c0-1.3-0.3-2.3-0.9-3C183.6,33.5,182.7,33.1,181.5,33.2L181.5,33.2L181.5,33.2z M197.8,38.5c0-1.7-0.4-3-1.3-4s-2-1.4-3.6-1.4
	s-2.8,0.5-3.7,1.5s-1.3,2.4-1.3,4.2s0.5,3.2,1.5,4.2c1,1,2.5,1.5,4.4,1.5c0.4,0,0.9,0,1.5,0s1.2-0.1,1.9-0.2l-0.3-2.3
	c-0.5,0.1-1,0.2-1.4,0.2c-0.5,0-0.9,0.1-1.4,0.1c-1.2,0-2.1-0.3-2.7-0.9c-0.4-0.4-0.7-0.8-0.8-1.4h7.1
	C197.8,39.5,197.8,39,197.8,38.5L197.8,38.5z M190.5,38.1c0.1-0.7,0.3-1.3,0.6-1.8c0.4-0.6,1.1-0.8,1.9-0.8c0.7,0,1.3,0.2,1.7,0.7
	c0.4,0.5,0.6,1.1,0.6,1.9L190.5,38.1L190.5,38.1z M80.5,54.8h-0.4c-1.2,0-2.3,0.7-3.1,1.9c-0.8,1.3-1.4,3.2-1.8,5.6
	c-0.4,2.7-0.3,4.7,0.1,6c0.4,1.3,1.3,2,2.6,2h0.4l5.6-5L83.1,71c-0.5,0.1-1,0.2-1.5,0.2s-1,0.1-1.5,0.2s-1,0.1-1.4,0.1
	c-0.5,0-0.9,0-1.2,0c-1.4,0-2.7-0.2-3.8-0.6c-1.1-0.4-2-1-2.7-1.8c-0.7-0.8-1.2-1.7-1.4-2.8s-0.3-2.4-0.1-3.8
	c0.2-1.4,0.6-2.6,1.2-3.7c0.6-1.1,1.3-2,2.2-2.8c0.9-0.8,2-1.4,3.2-1.8c1.2-0.4,2.5-0.6,3.9-0.6c0.4,0,0.8,0,1.3,0
	c0.5,0,0.9,0.1,1.4,0.1c0.5,0.1,0.9,0.1,1.4,0.2s0.9,0.2,1.3,0.3l-0.8,5.6L80.5,54.8L80.5,54.8z M85.9,64.8c0.2-1,0.5-1.9,0.9-2.8
	c0.5-0.8,1.1-1.6,1.8-2.2c0.7-0.6,1.5-1.1,2.5-1.4c0.9-0.3,1.9-0.5,3-0.5s2,0.2,2.9,0.5c0.8,0.3,1.5,0.8,2.1,1.4
	c0.6,0.6,0.9,1.3,1.2,2.1c0.2,0.8,0.3,1.8,0.1,2.8c-0.1,1-0.4,1.9-0.9,2.8c-0.4,0.8-1.1,1.6-1.8,2.2c-0.7,0.6-1.5,1.1-2.5,1.4
	c-0.9,0.3-1.9,0.5-3,0.5s-2-0.2-2.9-0.5c-0.8-0.3-1.5-0.8-2.1-1.4c-0.6-0.6-0.9-1.3-1.2-2.1C85.8,66.7,85.8,65.8,85.9,64.8z
	 M93.9,59.5c-0.8,0-1.5,0.5-2.1,1.4c-0.6,0.9-1,2.2-1.2,4c-0.2,1.7-0.2,3,0.1,3.9c0.3,0.9,0.9,1.3,1.7,1.3s1.6-0.5,2.1-1.4
	c0.6-0.9,1-2.2,1.2-4c0.2-1.7,0.2-3-0.1-3.9C95.2,59.9,94.7,59.5,93.9,59.5L93.9,59.5z M116.3,61.9c0,0.3,0,0.7,0,1.1
	c0,0.1,0,0.2,0,0.4c0,0.2-0.1,0.5-0.1,0.9l-0.2,1.8c-0.1,0.8-0.3,1.8-0.5,3.1l1.3,2.1h-6.2c0.3-1.7,0.5-3,0.6-3.9s0.3-1.6,0.3-2.1
	c0.1-0.4,0.1-0.7,0.1-0.8s0-0.2,0-0.2c0.2-1.3,0.2-2.2,0-2.8s-0.6-0.8-1.2-0.8c-0.4,0-0.8,0.1-1.2,0.3c-0.4,0.2-0.9,0.5-1.3,0.9
	l-1,7.4l1.3,2.1h-7.6l1.8-2.1l1.1-8l-1.1-2.1l6.2-1.3l-0.3,2.1c1.1-0.9,2.4-1.5,3.7-1.6c0.1,0,0.3,0,0.4,0h0.4
	c1.9,0,3.1,0.7,3.5,2.2c0.8-0.8,1.6-1.3,2.4-1.7c0.8-0.3,1.7-0.5,2.6-0.5c1.3,0,2.2,0.3,2.8,1c0.6,0.6,0.9,1.7,0.9,3.1
	c0,0.2,0,0.4,0,0.6c0,0.2-0.1,0.6-0.1,1c-0.1,0.5-0.1,1.1-0.2,1.9c-0.1,0.8-0.3,1.9-0.5,3.3l1.3,2.1h-6.2l1-6.7
	c0.1-0.8,0.2-1.4,0.2-1.9c0-0.5,0-0.9-0.1-1.2c-0.1-0.3-0.2-0.5-0.4-0.7c-0.2-0.1-0.5-0.2-0.8-0.2C118.2,60.7,117.3,61.1,116.3,61.9
	L116.3,61.9z M141.8,61.9c0,0.3,0,0.7,0,1.1c0,0.1,0,0.2,0,0.4c0,0.2-0.1,0.5-0.1,0.9l-0.2,1.8c-0.1,0.8-0.3,1.8-0.5,3.1l1.3,2.1
	H136c0.3-1.7,0.5-3,0.6-3.9s0.3-1.6,0.3-2.1c0.1-0.4,0.1-0.7,0.1-0.8c0-0.1,0-0.2,0-0.2c0.2-1.3,0.2-2.2,0-2.8s-0.6-0.8-1.2-0.8
	c-0.4,0-0.8,0.1-1.2,0.3c-0.4,0.2-0.9,0.5-1.3,0.9l-1,7.4l1.3,2.1H126l1.8-2.1l1.1-8l-1.1-2.1l6.2-1.3l-0.3,2.1
	c1.1-0.9,2.4-1.5,3.7-1.6c0.1,0,0.3,0,0.4,0h0.4c1.9,0,3.1,0.7,3.5,2.2c0.8-0.8,1.6-1.3,2.4-1.7c0.8-0.3,1.7-0.5,2.6-0.5
	c1.3,0,2.2,0.3,2.8,1c0.6,0.6,0.9,1.7,0.9,3.1c0,0.2,0,0.4,0,0.6s-0.1,0.6-0.1,1c-0.1,0.5-0.1,1.1-0.2,1.9c-0.1,0.8-0.3,1.9-0.5,3.3
	l1.3,2.1h-6.2l1-6.7c0.1-0.8,0.2-1.4,0.2-1.9c0-0.5,0-0.9-0.1-1.2c-0.1-0.3-0.2-0.5-0.4-0.7c-0.2-0.1-0.5-0.2-0.8-0.2
	C143.7,60.7,142.8,61.1,141.8,61.9L141.8,61.9z M152.8,64.8c0.1-1,0.5-1.9,0.9-2.8c0.5-0.8,1.1-1.6,1.8-2.2c0.7-0.6,1.5-1.1,2.5-1.4
	c0.9-0.3,1.9-0.5,3-0.5s2,0.2,2.9,0.5c0.8,0.3,1.5,0.8,2.1,1.4c0.6,0.6,0.9,1.3,1.2,2.1s0.3,1.8,0.1,2.8c-0.1,1-0.4,1.9-0.9,2.8
	c-0.4,0.8-1.1,1.6-1.8,2.2c-0.7,0.6-1.5,1.1-2.5,1.4c-0.9,0.3-1.9,0.5-3,0.5s-2-0.2-2.9-0.5s-1.5-0.8-2.1-1.4
	c-0.6-0.6-0.9-1.3-1.2-2.1C152.7,66.7,152.6,65.8,152.8,64.8z M160.7,59.5c-0.8,0-1.5,0.5-2.1,1.4c-0.6,0.9-1,2.2-1.2,4
	c-0.2,1.7-0.2,3,0.1,3.9s0.9,1.3,1.7,1.3s1.6-0.5,2.1-1.4c0.6-0.9,1-2.2,1.2-4c0.2-1.7,0.2-3-0.1-3.9
	C162.1,59.9,161.6,59.5,160.7,59.5L160.7,59.5z M179.5,58.3c0.8,0,1.4,0.1,1.9,0.3s0.9,0.6,1.2,1.1c0.3,0.5,0.4,1.1,0.5,1.9
	c0.1,0.8,0,1.8-0.1,2.9l-0.7,4.6l1.3,2.1h-6.1l1.1-7c0.2-1.3,0.2-2.2,0-2.8s-0.6-0.8-1.2-0.8c-0.8,0-1.7,0.4-2.5,1.1l-1,7.4l1.3,2.1
	h-7.6l1.8-2.1l1.1-8l-1.1-2.1l6.2-1.3L175,60c0.7-0.6,1.4-1,2.1-1.3C177.9,58.4,178.7,58.3,179.5,58.3L179.5,58.3z M197.1,63.4
	l-3.8-3.5c-0.1,0-0.2,0-0.3,0h-0.4c-1.1,0-1.7,0.3-1.8,1c0,0.3,0,0.5,0.1,0.7s0.3,0.4,0.5,0.6c0.2,0.2,0.5,0.4,0.8,0.5
	s0.6,0.3,1,0.5c0.5,0.2,0.9,0.5,1.4,0.7c0.5,0.3,0.9,0.6,1.3,0.9s0.6,0.8,0.8,1.2c0.2,0.5,0.2,1,0.1,1.6c-0.1,0.8-0.4,1.5-0.9,2
	c-0.5,0.5-1.1,0.9-1.8,1.2c-0.7,0.3-1.4,0.5-2.2,0.6s-1.5,0.2-2.1,0.2s-1.4,0-2.2-0.1c-0.9-0.1-1.7-0.2-2.6-0.4l0.7-4.9l3.8,3.6
	c0.1,0,0.3,0,0.4,0c0.1,0,0.2,0,0.4,0c0.5-0.1,0.9-0.2,1.2-0.4s0.5-0.4,0.5-0.7c0-0.2,0-0.4-0.1-0.6c-0.1-0.2-0.3-0.3-0.5-0.5
	c-0.2-0.2-0.5-0.3-0.8-0.5s-0.6-0.3-0.9-0.5c-0.5-0.2-1-0.5-1.5-0.8c-0.5-0.2-0.9-0.6-1.3-0.9c-0.4-0.4-0.7-0.8-0.9-1.2
	c-0.2-0.5-0.3-1-0.2-1.7c0.2-1.3,0.9-2.3,2.1-3s2.9-1,5-1c0.8,0,1.6,0.1,2.4,0.2c0.8,0.1,1.6,0.3,2.3,0.5L197.1,63.4L197.1,63.4z"/>
</svg>
