<svg width=" 100%" height=" 100%" viewBox="0 0 102 36" fill="none" xmlns="http://www.w3.org/2000/svg">
    <path d="M17.9213 0C8.02419 0 0 8.05964 0 18.0003C0 27.9409 8.02419 36 17.9213 36C27.8185 36 35.8418 27.9411 35.8418 18.0003C35.8418 8.05944 27.818 0 17.9213 0ZM23.9856 24.093C17.896 30.2102 10.2432 32.4412 6.89292 29.0767C3.54283 25.7128 5.76516 18.0256 11.8562 11.9084C17.9461 5.7912 25.5986 3.55944 28.9492 6.92331C32.2993 10.2872 30.0769 17.9744 23.9856 24.093Z" fill="currentColor"></path>
    <path d="M76.0767 6.76001L76.0925 25.2166V25.6839C76.0925 27.8385 77.6711 29.592 79.8257 29.592H82.5481V25.5384C81.3533 25.8028 80.4867 25.6842 80.4867 24.2799L80.6455 6.76001H76.0767Z" fill="currentColor"></path>
    <path d="M92.8237 11.165C87.1829 11.165 83.7983 15.3359 83.7983 20.4638C83.7983 25.5917 87.1829 29.7626 92.8237 29.7626C98.4646 29.7626 101.849 25.5919 101.849 20.4638C101.849 15.3357 98.4644 11.165 92.8237 11.165ZM92.8237 25.7969C89.8494 25.7969 88.1742 23.4039 88.1742 20.4638C88.1742 17.5237 89.8494 15.1308 92.8237 15.1308C95.7981 15.1308 97.473 17.5238 97.473 20.4638C97.473 23.4038 95.7979 25.7969 92.8237 25.7969Z" fill="currentColor"></path>
    <path d="M64.2384 21.2734H67.325C66.6134 23.9167 65.1257 25.3482 62.0489 25.3482C58.3422 25.3482 55.6563 23.11 55.6563 18.1159C55.6563 15.4278 57.5437 10.6916 62.2184 10.6916C64.9687 10.6916 67.2618 11.8304 68.0888 14.3033H72.8758C72.1538 10.2141 68.4496 6.62506 61.7478 6.62506C54.1416 6.62506 50.3379 12.9664 50.3379 18.4225C50.3379 25.4494 55.5637 29.8176 61.1339 29.8176C65.5941 29.8176 67.515 26.7963 68.2266 25.0679C68.2945 24.8984 68.3525 24.7001 68.6236 24.802C68.827 24.8696 68.7972 25.0735 68.6955 25.3449C68.221 26.4973 68.183 27.2081 68.183 27.9876V29.5466H72.9276V17.4778H64.2384L64.2384 21.2734Z" fill="currentColor"></path>
</svg>