<svg width="119" height="75" viewBox="0 0 119 75"
    xmlns="http://www.w3.org/2000/svg">
    <path d="M29.8648 14C21.1034 14 14 20.7164 14 29.0002C14 37.2841 21.1034 44 29.8648 44C38.6262 44 45.7288 37.2842 45.7288 29.0002C45.7288 20.7162 38.6258 14 29.8648 14ZM35.2332 34.0775C29.8424 39.1751 23.0678 41.0344 20.1019 38.2306C17.1363 35.4273 19.1036 29.0213 24.4956 23.9237C29.8867 18.826 36.6611 16.9662 39.6272 19.7694C42.5928 22.5727 40.6255 28.9787 35.2332 34.0775Z" />
    <path d="M81.3469 19.6334L81.3609 35.0139V35.4032C81.3609 37.1987 82.7584 38.66 84.6657 38.66H87.0757V35.282C86.018 35.5023 85.2509 35.4035 85.2509 34.2333L85.3915 19.6334H81.3469Z" />
    <path d="M96.1709 23.3036C91.1773 23.3036 88.1812 26.7794 88.1812 31.0526C88.1812 35.3258 91.1773 38.8016 96.1709 38.8016C101.164 38.8016 104.16 35.326 104.16 31.0526C104.16 26.7792 101.164 23.3036 96.1709 23.3036ZM96.1709 35.4968C93.5378 35.4968 92.0549 33.5027 92.0549 31.0526C92.0549 28.6025 93.5378 26.6084 96.1709 26.6084C98.8039 26.6084 100.287 28.6026 100.287 31.0526C100.287 33.5026 98.8038 35.4968 96.1709 35.4968Z" />
    <path d="M70.6448 31.7271H73.3772C72.7472 33.9298 71.4302 35.1228 68.7065 35.1228C65.4251 35.1228 63.0475 33.2576 63.0475 29.0959C63.0475 26.8558 64.7183 22.909 68.8565 22.909C71.2912 22.909 73.3212 23.8579 74.0533 25.9187H78.2909C77.6518 22.511 74.3727 19.5201 68.44 19.5201C61.7066 19.5201 58.3394 24.8046 58.3394 29.3513C58.3394 35.2071 62.9655 38.8472 67.8965 38.8472C71.8448 38.8472 73.5453 36.3295 74.1753 34.8891C74.2354 34.7479 74.2867 34.5827 74.5268 34.6676C74.7068 34.724 74.6804 34.8939 74.5904 35.12C74.1703 36.0803 74.1367 36.6727 74.1367 37.3223V38.6214H78.3368V28.5641H70.6447L70.6448 31.7271Z" />
    <path d="M30.3586 54.9849C28.981 54.9849 27.8905 55.5014 27.1443 56.305C26.3981 57.1086 25.9963 58.2566 25.9963 59.5193C25.9963 60.7821 26.3981 61.8726 27.1443 62.7336C27.8905 63.5372 28.981 64.0538 30.3586 64.0538C31.7361 64.0538 32.8267 63.5372 33.5729 62.7336C34.319 61.93 34.7208 60.7821 34.7208 59.5193C34.7208 58.2566 34.319 57.166 33.5729 56.305C32.8267 55.5014 31.7361 54.9849 30.3586 54.9849ZM31.9083 61.1839C31.5639 61.5856 31.0474 61.8726 30.3586 61.8726C29.6698 61.8726 29.1532 61.5856 28.8088 61.1839C28.4644 60.7247 28.2349 60.1507 28.2349 59.4619C28.2349 58.7731 28.4071 58.1992 28.8088 57.74C29.1532 57.3382 29.6698 57.0512 30.3586 57.0512C31.0474 57.0512 31.5639 57.3382 31.9083 57.74C32.2527 58.1992 32.4823 58.7731 32.4823 59.4619C32.4249 60.1507 32.2527 60.7821 31.9083 61.1839Z" />
    <path d="M40.9773 54.9849C39.4276 54.9849 38.4518 56.2476 38.05 57.1086C38.05 57.166 37.9926 57.166 37.9926 57.166C37.9926 57.166 37.9926 57.2234 37.9352 57.2234C37.9352 57.2234 37.9352 57.2234 37.8778 57.2234C37.8778 57.2234 37.8778 57.2234 37.8778 57.166C37.8778 57.1086 37.9352 57.0512 37.9352 56.9364C38.1074 56.592 38.2222 56.2476 38.2222 55.731V55.2145V55.0997H38.05H35.9837H35.8689V55.2145V63.7668V63.8816H35.9837H38.05H38.1648V63.7668V60.2655C38.1648 59.2897 38.4518 58.4861 38.8536 57.9122C39.2554 57.3382 39.8294 57.0512 40.3459 57.0512C40.8625 57.0512 41.2069 57.166 41.4365 57.5104C41.6661 57.8548 41.7809 58.4287 41.7809 59.4045V63.7668V63.8816H41.8957H43.962H44.0768V63.7668V58.7157C44.0768 57.5104 43.7898 56.5346 43.2158 55.9032C42.6992 55.2719 41.8957 54.9849 40.9773 54.9849Z" />
    <path d="M19.7974 54.2961C21.6916 54.2961 22.5525 55.5588 22.7247 56.6494V56.7642H22.8395H25.0206H25.1354V56.6494C24.9632 54.6979 23.4135 52.1723 19.7974 52.1723C17.9607 52.1149 16.4684 52.8037 15.4926 53.8943C14.5168 54.9274 14.0002 56.4198 14.0002 58.0843C14.0002 59.6915 14.5168 61.1838 15.4926 62.2744C16.4684 63.365 17.9033 63.9963 19.74 63.9963C23.3561 63.9963 24.9632 61.4134 25.078 59.5193V59.4045H24.9632H22.7821H22.6673V59.5193C22.5525 60.6099 21.6342 61.8726 19.74 61.8726C18.6495 61.8726 17.8459 61.4708 17.2719 60.7821C16.6979 60.0933 16.411 59.1749 16.411 58.0843C16.411 56.9938 16.6979 56.0754 17.2719 55.3866C17.9033 54.6979 18.7069 54.2961 19.7974 54.2961Z" />
    <path d="M52.1698 59.1175C51.5384 58.7157 50.5626 58.4861 49.5295 58.3713C48.7259 58.3139 48.2667 58.1417 48.0371 58.0269C47.9223 57.9695 47.8649 57.9121 47.8649 57.7973C47.8075 57.7399 47.8075 57.6825 47.8075 57.5678C47.8075 57.3382 47.8649 57.166 48.0945 57.0512C48.3241 56.9364 48.6685 56.8216 49.2425 56.8216C49.8164 56.8216 50.1608 56.9938 50.3904 57.166C50.62 57.3382 50.6774 57.6252 50.7348 57.8547V57.9695H50.8496H52.9159H53.0307V57.8547C52.9733 57.0512 52.6289 56.305 51.9976 55.8458C51.3662 55.3292 50.4478 55.0422 49.3573 55.0422C48.1519 55.0422 47.1761 55.3292 46.5448 55.8458C45.9134 56.3624 45.569 57.0512 45.569 57.7399C45.569 58.2565 45.6838 58.8305 46.0856 59.3471C46.5448 59.8637 47.2909 60.3229 48.6111 60.4951C49.4147 60.6099 50.046 60.6673 50.4478 60.782C50.62 60.8394 50.7922 60.8968 50.8496 61.0116C50.907 61.069 50.9644 61.1838 50.9644 61.2986C50.9644 61.5282 50.8496 61.7578 50.62 61.93C50.3904 62.1022 49.9312 62.217 49.2999 62.217C48.5537 62.217 48.1519 62.0448 47.8649 61.8152C47.6353 61.5856 47.5205 61.2412 47.5205 60.9542V60.8394H47.4057H45.3394H45.2246V60.9542C45.282 61.8726 45.6264 62.6762 46.3152 63.2502C47.0039 63.7667 47.9797 64.1111 49.2425 64.1111C50.5052 64.1111 51.5384 63.8815 52.2272 63.365C52.9159 62.8484 53.2603 62.1022 53.2603 61.1838C53.2603 60.2081 52.8585 59.5767 52.1698 59.1175Z" />
    <path d="M77.8841 52.0002H77.7693V52.115V54.1813V54.2961H77.8841H79.9504H80.0652V54.1813V52.115V52.0002H79.9504H77.8841Z" />
    <path d="M103.139 55.731C102.565 55.1571 101.877 54.9849 101.073 54.9849C99.9824 54.9849 99.1214 55.6162 98.6048 56.7642C98.6048 56.8216 98.5474 56.8216 98.5474 56.8216H98.4901C98.4327 56.8216 98.4327 56.8216 98.3753 56.8216C98.3753 56.8216 98.3753 56.8216 98.3179 56.7642C98.2031 56.2476 97.9735 55.7884 97.5717 55.5014C97.2273 55.1571 96.7107 54.9849 96.1367 54.9849C94.9314 54.9849 94.1278 55.731 93.6686 56.879C93.6686 56.9364 93.6112 56.9364 93.6112 56.9938C93.6112 56.9938 93.6112 56.9938 93.5538 56.9938C93.5538 56.9364 93.5538 56.879 93.6112 56.8216C93.7834 56.4772 93.8982 56.1902 93.8982 55.731V55.2145V55.0997H93.7834H91.7171H91.6023V55.2145V63.7668V63.8816H91.7171H93.7834H93.8982V63.7668V59.8063C93.8982 59.0027 94.0704 58.314 94.3574 57.7974C94.6444 57.3382 95.0462 57.0512 95.5054 57.0512C95.735 57.0512 95.9645 57.1086 96.0793 57.166C96.1941 57.2234 96.3089 57.3382 96.4237 57.5104C96.5959 57.7974 96.6533 58.314 96.6533 58.9453V63.7094V63.8242H96.7681H98.8344H98.9492V63.7094V59.4045C98.9492 58.6583 99.1214 58.0844 99.4084 57.6252C99.6954 57.2234 100.04 56.9938 100.442 56.9938C100.901 56.9938 101.245 57.1086 101.417 57.3956C101.59 57.6826 101.704 58.0844 101.704 58.7157V63.7094V63.8242H101.819H103.885H104V63.7094V58.4287C104 57.166 103.656 56.305 103.139 55.731Z" />
    <path d="M77.8841 55.0997H77.7693V55.2145V63.7668V63.8816H77.8841H79.9504H80.0652V63.7668V55.2145V55.0997H79.9504H77.8841Z" />
    <path d="M87.6418 55.0997H87.527V55.2145V58.7157C87.527 59.6915 87.24 60.4951 86.8382 61.0691C86.4364 61.6431 85.8624 61.93 85.3459 61.93C84.8293 61.93 84.4849 61.8152 84.2553 61.4709C84.0257 61.1265 83.9109 60.5525 83.9109 59.5767V55.2145V55.0997H83.7961H81.7298H81.615V55.2145V60.2655C81.615 61.4709 81.902 62.4466 82.476 63.078C83.0499 63.7094 83.8535 63.9964 84.7719 63.9964C86.3216 63.9964 87.2974 62.7336 87.6992 61.8726C87.6992 61.8152 87.7566 61.8152 87.7566 61.8152C87.7566 61.8152 87.7566 61.7578 87.814 61.7578C87.814 61.7578 87.814 61.7578 87.8714 61.7578C87.8714 61.7578 87.8714 61.7578 87.8714 61.8152C87.8714 61.8726 87.814 61.93 87.814 62.0448C87.6418 62.3892 87.527 62.7336 87.527 63.2502V63.7668V63.8816H87.6418H89.7081H89.8229V63.7668V55.2145V55.0997H89.7081H87.6418Z" />
    <path d="M58.541 54.9849C57.1634 54.9849 56.0728 55.5014 55.3267 56.305C54.5805 57.1086 54.1787 58.2566 54.1787 59.5193C54.1787 60.7821 54.5805 61.8726 55.3267 62.7336C56.0728 63.5372 57.1634 64.0538 58.541 64.0538C59.9185 64.0538 61.0091 63.5372 61.7552 62.7336C62.5014 61.93 62.9032 60.7821 62.9032 59.5193C62.9032 58.2566 62.5014 57.166 61.7552 56.305C61.0091 55.5014 59.8611 54.9849 58.541 54.9849ZM60.0333 61.1839C59.6889 61.5856 59.1723 61.8726 58.4836 61.8726C57.7948 61.8726 57.2782 61.5856 56.9338 61.1839C56.5894 60.7247 56.3598 60.1507 56.3598 59.4619C56.3598 58.7731 56.532 58.1992 56.9338 57.74C57.2782 57.3382 57.7948 57.0512 58.4836 57.0512C59.1723 57.0512 59.6889 57.3382 60.0333 57.74C60.3777 58.1992 60.6073 58.7731 60.6073 59.4619C60.6073 60.1507 60.4351 60.7821 60.0333 61.1839Z" />
    <path d="M67.1507 55.444C66.6915 55.7884 66.4046 56.2476 66.175 56.8216C66.175 56.8216 66.175 56.8216 66.175 56.879C66.1176 56.879 66.1176 56.879 66.1176 56.879C66.1176 56.8216 66.1176 56.7642 66.175 56.7068C66.3472 56.4198 66.4046 56.0754 66.4046 55.6736V55.2145V55.0997H66.2898H64.2234H64.1086V55.2145V63.7668V63.8816H64.2234H66.2898H66.4046V63.7668V60.0359C66.4046 58.9453 66.5768 58.2566 67.0359 57.7974C67.4951 57.3956 68.1839 57.166 69.3893 57.2808H69.5041V57.166V55.0997V54.9849H69.3893C68.2987 54.9849 67.6099 55.1571 67.1507 55.444Z" />
    <path d="M73.9238 55.0996V52.9185V52.8037H73.809H71.7427H71.6279V52.9185V55.157H70.1929H70.0781V55.2718V57.1086V57.2234H70.1929H71.6279V61.2412C71.6279 62.2744 71.8575 62.9632 72.2592 63.4224C72.7184 63.8241 73.4072 63.9963 74.2682 63.9963H76.1623H76.2771V63.8815V61.93V61.8152H76.1623H74.7274C74.4978 61.8152 74.3256 61.8152 74.2682 61.8152C74.1534 61.8152 74.096 61.7578 74.096 61.7004C74.0386 61.643 74.0386 61.5856 74.0386 61.4708C74.0386 61.356 74.0386 61.1838 74.0386 60.9542V57.166H76.2771H76.3919V57.0512V55.2144V55.0996H76.2771H73.9238Z" />
</svg>
