<?xml version="1.0" encoding="utf-8"?>
<!-- Generator: Adobe Illustrator 27.9.0, SVG Export Plug-In . SVG Version: 6.00 Build 0)  -->
<svg version="1.1" id="Layer_2" xmlns="http://www.w3.org/2000/svg" xmlns:xlink="http://www.w3.org/1999/xlink" x="0px" y="0px"
	 viewBox="0 0 200 100" style="enable-background:new 0 0 200 100;" xml:space="preserve">
<g>
	<path d="M13.15,50.88c-3.6,0-7.2,0-10.8,0c-0.85,0-1.15-0.32-1.1-1.14c0.03-0.49,0.25-0.76,0.74-0.81
		c0.48-0.05,0.96-0.11,1.44-0.18c1.3-0.18,1.74-0.63,1.81-1.94c0.06-1.02,0.11-2.04,0.11-3.06c0.01-5.31,0.01-10.62,0-15.93
		c0-0.82-0.06-1.63-0.12-2.45c-0.11-1.32-0.53-1.74-1.83-1.92c-0.38-0.05-0.76-0.11-1.14-0.16c-0.59-0.08-0.73-0.49-0.71-1
		c0.02-0.51,0.22-0.89,0.8-0.93c0.1-0.01,0.2,0,0.31,0c3.98,0,7.96,0.01,11.94-0.01c0.6,0,0.95,0.18,0.99,0.78
		c0.04,0.6-0.06,1.14-0.84,1.2c-0.08,0-0.15,0.03-0.23,0.04c-2.24,0.4-2.42,0.55-2.52,2.85c-0.09,2.22-0.05,4.44-0.05,6.66
		c0,3.6-0.02,7.2,0.02,10.8c0.01,0.91,0.13,1.83,0.29,2.73c0.17,0.94,0.77,1.66,1.73,1.7c2.11,0.08,4.22,0.11,6.32-0.02
		c1.17-0.08,2-0.98,2.64-1.93c0.56-0.82,1.06-1.68,1.54-2.55c0.34-0.63,0.82-0.8,1.47-0.61c0.64,0.19,0.81,0.67,0.66,1.26
		c-0.51,2-1.04,3.99-1.57,5.99c-0.14,0.55-0.53,0.63-1.05,0.63C20.4,50.87,16.77,50.88,13.15,50.88z"/>
	<path d="M38.23,40.41c-1.4,0-2.81,0.03-4.21-0.01c-0.69-0.02-0.86,0.25-0.83,0.91c0.17,3.8,2.8,6.2,6.58,5.93
		c1.2-0.09,2.22-0.59,2.91-1.61c0.35-0.51,0.73-0.79,1.33-0.4c0.52,0.34,0.62,0.88,0.27,1.53c-1.93,3.62-5.78,5.3-10.02,4.37
		c-3.91-0.85-6.65-4.17-6.82-8.19c-0.15-3.58,0.99-6.59,3.86-8.81c2.9-2.25,7.35-2.52,10.16-0.66c1.9,1.26,2.76,3.09,2.77,5.33
		c0.01,1-0.41,1.5-1.41,1.54c-1.53,0.06-3.06,0.02-4.59,0.02C38.23,40.37,38.23,40.39,38.23,40.41z M35.92,38.04
		c0,0.03,0,0.06,0,0.08c0.73-0.07,1.47-0.09,2.19-0.22c0.25-0.04,0.58-0.29,0.66-0.52c0.44-1.19-0.38-2.5-1.65-2.7
		c-1.46-0.24-3.3,1.07-3.56,2.52c-0.1,0.55,0.1,0.84,0.67,0.84C34.8,38.04,35.36,38.04,35.92,38.04z"/>
	<path d="M51.52,51.52c-1.28-0.25-2.61-0.47-3.91-0.79c-1.12-0.28-1.79-1.03-1.9-2.22c-0.1-1.04-0.2-2.08-0.3-3.12
		c-0.06-0.59,0.24-0.92,0.79-1.03c0.57-0.11,0.93,0.11,1.21,0.66c0.49,0.94,0.99,1.92,1.69,2.7c0.51,0.56,1.32,0.97,2.07,1.17
		c1.03,0.28,1.86-0.17,2.24-0.9c0.43-0.84,0.36-1.95-0.35-2.64c-0.62-0.59-1.37-1.05-2.09-1.53c-0.85-0.56-1.78-1.02-2.59-1.63
		c-3.36-2.52-2.61-7.59,1.21-9.19c2.7-1.13,5.44-0.96,8.15,0c0.32,0.11,0.66,0.54,0.73,0.88c0.22,1.17,0.35,2.37,0.47,3.56
		c0.05,0.49-0.27,0.76-0.72,0.83c-0.49,0.07-0.97,0.09-1.24-0.48c-0.32-0.66-0.62-1.35-1.02-1.96c-0.66-1-1.74-1.39-2.79-1.1
		c-1.36,0.36-1.82,1.79-0.84,2.8c0.51,0.52,1.18,0.88,1.79,1.28c1.07,0.69,2.26,1.24,3.2,2.07c3.61,3.17,2.46,8.52-2.12,9.95
		C54.05,51.19,52.81,51.29,51.52,51.52z"/>
	<path d="M67.18,51.35c-1.57,0.01-3.1-0.18-4.54-0.87c-0.62-0.3-1.06-0.73-1.15-1.42c-0.16-1.21-0.3-2.42-0.43-3.64
		c-0.07-0.62,0.26-0.98,0.84-1.07c0.58-0.09,0.92,0.19,1.19,0.73c0.42,0.84,0.87,1.68,1.43,2.43c0.63,0.84,1.48,1.4,2.59,1.45
		c1.62,0.07,2.64-1.2,2.05-2.71c-0.26-0.66-0.83-1.29-1.41-1.72c-0.87-0.65-1.9-1.09-2.83-1.67c-1.17-0.73-2.17-1.64-2.66-2.96
		c-1.01-2.69,0.21-5.63,2.91-6.83c2.71-1.2,5.48-1.01,8.21-0.05c0.33,0.11,0.68,0.58,0.75,0.94c0.23,1.09,0.33,2.21,0.47,3.32
		c0.07,0.54-0.16,0.91-0.7,1c-0.52,0.09-1.02,0.08-1.29-0.53c-0.27-0.61-0.53-1.22-0.88-1.78c-0.7-1.11-1.87-1.56-2.95-1.2
		c-1.43,0.47-1.81,1.94-0.65,2.91c0.85,0.71,1.87,1.22,2.84,1.77c1.23,0.7,2.39,1.49,3.17,2.7c1.96,3.02,0.78,6.88-2.56,8.4
		C70.3,51.14,69.05,51.37,67.18,51.35z"/>
	<path d="M135.98,50.95c-0.97-0.71-2.13-1.28-2.56-2.44c-0.43-1.15-0.7-2.36-1.06-3.6c-0.5,0.15-0.7-0.25-0.84-0.8
		c-0.71-2.75-0.66-5.48,0.29-8.15c0.33-0.95,0.72-1.91,1.29-2.73c0.69-0.98,0.73-2.06,0.87-3.15c0.02-0.12,0.03-0.25,0.08-0.6
		c0.54,0.26,1.06,0.39,1.41,0.71c0.53,0.49,1.04,0.43,1.67,0.31c1.36-0.25,2.75-0.59,4.12-0.53c1.46,0.07,2.92,0.52,4.34,0.91
		c0.46,0.13,0.79,0.13,1.2-0.08c0.49-0.26,1.03-0.45,1.64-0.71c0.03,0.43,0.11,0.67,0.05,0.87c-0.51,1.58,0.36,2.85,0.94,4.18
		c1.11,2.56,1.83,5.21,1.66,8.03c-0.03,0.45-0.19,0.89-0.26,1.33c-0.1,0.61-0.42,0.84-1.06,0.62c-0.16,1.47-0.5,2.89-1.44,4.03
		c-0.58,0.71-1.38,1.23-2.08,1.85c-0.13,0.11-0.25,0.25-0.38,0.37c0.17,0.07,0.34,0.21,0.51,0.21c1.69-0.05,3.37-0.18,4.95-0.84
		c0.09-0.04,0.2-0.13,0.28-0.11c0.33,0.08,0.8,0.1,0.95,0.32c0.27,0.41,0.01,0.82-0.45,0.93c-1.53,0.36-3.06,0.94-4.61,0.97
		c-3.41,0.08-6.83-0.15-10.25-0.17c-2.01-0.01-4.02,0.11-6.02,0.23c-0.49,0.03-0.98,0.27-1.45,0.47c-0.47,0.21-0.91,0.33-1.17-0.23
		c-0.27-0.58,0.15-0.89,0.6-1.03c1.02-0.31,2.05-0.63,3.1-0.78c1.15-0.16,2.33-0.14,3.5-0.19
		C135.86,51.09,135.92,51.02,135.98,50.95z M133.92,45.21c-0.07,1.3,0.26,2.54,1.11,3.58c0.5,0.61,1,1.26,2.04,1.09
		c0.46-0.07,1,0.36,1.5,0.58c0.18,0.08,0.34,0.27,0.51,0.28c1.09,0.08,2.18,0.13,3.27,0.15c0.21,0,0.49-0.07,0.62-0.21
		c0.56-0.66,1.23-0.45,1.91-0.32c0.16,0.03,0.37,0.15,0.48,0.08c1.48-0.84,2.63-1.94,3-3.7c0.35-1.68,0.15-3.18-1.21-4.37
		c-1.58-1.38-3.52-1.55-5.48-1.6c-0.19,0-0.43,0.25-0.56,0.44c-0.38,0.59-0.65,0.52-0.99-0.05c-0.12-0.2-0.46-0.33-0.72-0.36
		c-0.34-0.04-0.7,0.06-1.05,0.09C135.84,41.12,133.76,42.38,133.92,45.21z M150.26,44.79c0.45-0.86,0.65-2.41,0.52-3.47
		c-0.33-2.67-1.22-5.16-2.4-7.57c-0.2-0.41-0.29-0.91-0.31-1.38c-0.03-0.58,0.07-1.17,0.13-1.86c-0.36,0.16-0.62,0.22-0.81,0.37
		c-0.84,0.63-1.65,0.47-2.55,0.08c-1.36-0.59-2.82-0.9-4.29-0.76c-1.27,0.12-2.54,0.4-3.78,0.74c-0.55,0.15-0.91,0.04-1.31-0.26
		c-0.35-0.27-0.73-0.51-1.17-0.81c-0.03,0.29-0.03,0.44-0.06,0.58c-0.17,0.82-0.15,1.77-0.56,2.45c-1.54,2.52-2.45,5.18-2.31,8.13
		c0.05,1.13,0.38,2.25,0.6,3.49c0.35-0.27,0.52-0.4,0.81-0.62c0.1,0.85,0.13,1.6,0.3,2.32c0.17,0.73,0.4,1.49,0.77,2.14
		c0.34,0.6,0.91,1.07,1.37,1.6c0.05-0.05,0.1-0.1,0.16-0.15c-1.52-1.58-2.14-3.8-1.69-5.99c0.33-1.6,1.64-2.78,3.41-3.05
		c0.76-0.11,1.53-0.21,2.37-0.32c-0.14-0.43-0.24-0.73-0.34-1.03c-2.66,0.86-4.76,0.06-5.28-1.96c-0.59-2.28,0.55-4.11,2.85-4.61
		c2.09-0.45,3.64,1.13,4.07,4.14c0.6-2.47,0.6-2.47,1.21-3.06c0.92-0.89,2.08-0.97,3.21-0.76c1.84,0.33,2.95,2.28,2.53,4.23
		c-0.19,0.89-0.68,1.62-1.43,2.09c-1.27,0.78-2.61,0.64-3.97,0.06c-0.06,0.32-0.11,0.58-0.17,0.85c2.17,0.24,4.35,0.35,5.81,2.18
		c1.48,1.87,0.95,3.92,0.25,5.94c0.09,0.02,0.18,0.04,0.27,0.06c0.41-1.41,0.81-2.82,1.24-4.31
		C149.84,44.43,150.03,44.6,150.26,44.79z M140.38,36.33c0.01-1.5-1.7-3.3-3.21-3.2c-1.71,0.11-3.09,1.3-3.23,3.17
		c-0.12,1.58,1.62,3.35,3.21,3.24C138.84,39.43,140.38,38.5,140.38,36.33z M141.12,36.89c-0.06,0.04-0.12,0.07-0.18,0.11
		c0.35,0.63,0.56,1.42,1.08,1.84c0.59,0.47,1.43,0.81,2.19,0.86c1.76,0.12,3.24-1.4,3.25-3.11c0-1.72-1.47-3.16-3.2-3.19
		C142.77,33.36,140.93,34.87,141.12,36.89z"/>
	<path d="M96.52,31.87c-0.19,0.65-0.4,1.3-0.58,1.95c-1.28,4.46-2.51,8.94-3.84,13.39c-0.54,1.81-1.25,3.56-1.94,5.32
		c-0.09,0.24-0.5,0.49-0.78,0.51c-0.99,0.06-1.99-0.02-2.98,0.03c-0.61,0.03-0.84-0.23-0.99-0.78c-1.93-7.12-3.87-14.23-5.81-21.35
		c-0.48-1.75-0.95-3.49-1.42-5.24c-0.18-0.68-0.56-1.19-1.22-1.48c-0.21-0.09-0.42-0.2-0.62-0.3c-1.1-0.53-1.35-0.98-1.05-2.15
		c0.05-0.19,0.48-0.39,0.74-0.39c2.12-0.03,4.24-0.01,6.36-0.01c1.53,0,3.06,0.02,4.6-0.02c0.59-0.01,0.82,0.16,0.81,0.78
		c-0.02,1.26,0.01,1.26-1.15,1.67c-0.69,0.25-1.39,0.5-2.18,0.79c1.68,6.36,3.35,12.68,5.03,18.99c0.06,0,0.12,0,0.18,0
		c0.25-0.8,0.51-1.59,0.75-2.38c1.9-6.25,3.8-12.5,5.68-18.75c0.16-0.53,0.4-0.75,0.95-0.72c0.79,0.04,1.59,0.05,2.37,0
		c0.64-0.04,0.91,0.23,1.06,0.81c1.07,3.91,2.16,7.82,3.24,11.73c0.86,3.1,1.71,6.19,2.61,9.46c0.13-0.39,0.24-0.63,0.31-0.88
		c1.64-5.79,3.26-11.59,4.92-17.38c0.16-0.55,0.02-0.78-0.49-0.96c-0.72-0.26-1.42-0.57-2.11-0.9c-0.87-0.41-0.42-1.21-0.44-1.83
		c-0.02-0.6,0.55-0.39,0.89-0.39c2.58-0.01,5.16-0.02,7.74,0.01c0.32,0,0.92,0.24,0.92,0.35c-0.03,0.63,0.42,1.41-0.38,1.88
		c-0.46,0.27-0.97,0.48-1.4,0.8c-0.78,0.58-1.22,1.38-1.49,2.33c-1.98,6.84-3.99,13.67-6.03,20.49c-0.53,1.78-1.25,3.51-1.86,5.27
		c-0.15,0.44-0.41,0.59-0.85,0.58c-1-0.02-1.99-0.02-2.99,0c-0.42,0.01-0.63-0.15-0.75-0.57c-1.81-6.65-3.64-13.29-5.46-19.93
		c-0.06-0.23-0.14-0.46-0.21-0.69C96.61,31.87,96.56,31.87,96.52,31.87z M112.1,24.54c-0.04,0.21-0.05,0.34-0.08,0.46
		c-1.77,6.31-3.55,12.63-5.33,18.94c-0.05,0.19-0.25,0.33-0.38,0.5c-0.13-0.2-0.32-0.38-0.38-0.59c-0.53-1.97-1.01-3.96-1.55-5.93
		c-1.38-5.02-2.78-10.03-4.15-15.06c-0.17-0.61-0.45-0.84-1.07-0.78c-0.61,0.05-1.23,0.04-1.84,0c-0.54-0.04-0.81,0.13-0.97,0.69
		c-1.7,5.7-3.44,11.39-5.16,17.07c-0.41,1.34-0.81,2.69-1.24,4.03c-0.06,0.18-0.27,0.31-0.41,0.46c-0.12-0.15-0.25-0.29-0.34-0.46
		c-0.07-0.13-0.09-0.29-0.13-0.44c-0.58-2.2-1.15-4.4-1.73-6.59c-1.04-3.92-2.06-7.85-3.12-11.76c-0.16-0.59-0.08-0.88,0.55-1.04
		c0.71-0.18,1.39-0.52,2.1-0.72c0.69-0.19,0.55-0.71,0.54-1.17c-0.02-0.59-0.51-0.39-0.82-0.39c-3.37-0.01-6.74-0.01-10.11-0.01
		c-0.88,0-1.13,0.28-0.88,1.08c0.08,0.25,0.42,0.49,0.69,0.61c1.09,0.48,1.95,1.08,2.29,2.36c1.57,5.89,3.2,11.77,4.81,17.66
		c0.77,2.81,1.55,5.61,2.3,8.42c0.16,0.6,0.43,0.85,1.06,0.81c0.79-0.05,1.59,0.04,2.37-0.03c0.28-0.02,0.69-0.27,0.78-0.51
		c0.78-2.1,1.6-4.2,2.24-6.35c1.41-4.69,2.72-9.42,4.08-14.12c0.07-0.23,0.29-0.42,0.44-0.64c0.12,0.21,0.29,0.4,0.35,0.62
		c1.87,6.79,3.73,13.58,5.59,20.38c0.13,0.47,0.35,0.68,0.85,0.66c0.79-0.03,1.58-0.03,2.37,0c0.46,0.02,0.7-0.16,0.85-0.59
		c0.62-1.78,1.33-3.54,1.87-5.35c2.07-6.89,4.09-13.8,6.14-20.7c0.11-0.38,0.3-0.79,0.58-1.05c0.65-0.59,1.35-1.15,2.09-1.62
		c0.56-0.35,0.46-0.84,0.36-1.27c-0.04-0.17-0.5-0.34-0.76-0.34c-2.45-0.03-4.9-0.03-7.35,0c-0.26,0-0.7,0.2-0.74,0.37
		c-0.09,0.44-0.21,0.95,0.46,1.19C110.23,23.68,111.13,24.12,112.1,24.54z"/>
	<path d="M180.99,52.96c-0.66-0.48-1.26-0.86-1.78-1.33c-0.68-0.63-1.02-1.46-1.08-2.39c-0.04-0.6,0.16-1.08,0.68-1.44
		c0.84-0.58,1.65-1.2,2.46-1.82c0.4-0.3,0.54-0.58-0.06-0.89c-2.24-1.18-3.34-3.09-3.33-5.61c0.01-2.66,1.23-4.67,3.51-5.96
		c2.81-1.59,5.81-1.49,8.85-0.77c0.12,0.03,0.26,0.04,0.37,0.1c2.18,1.21,4.56,1.09,6.93,1.04c0.27,0,0.63,0.02,0.78,0.19
		c0.64,0.67,0.41,1.47,0.19,2.24c-0.18,0.6-0.62,0.82-1.24,0.78c-0.53-0.04-1.07,0.02-1.61-0.01c-0.6-0.04-0.81,0.17-0.76,0.79
		c0.11,1.39-0.08,2.75-0.7,4.03c-1.24,2.56-3.4,3.81-6.1,4.2c-1.15,0.17-2.34,0.13-3.51,0.12c-0.5,0-1.03-0.03-1.07,0.55
		c-0.02,0.41,0.18,1.02,0.49,1.22c0.46,0.3,1.1,0.42,1.66,0.43c1.66,0.02,3.32-0.1,4.98-0.08c0.99,0.01,1.99,0.1,2.96,0.3
		c3.15,0.66,4.51,2.96,4.1,6.06c-0.36,2.76-1.89,4.8-4.31,6.07c-3.81,2-7.85,2.34-11.95,1.07c-1.07-0.33-2.05-1.11-2.94-1.84
		c-0.82-0.68-1.15-1.71-1.25-2.8c-0.12-1.24,0.39-2.12,1.41-2.76C179.45,53.95,180.19,53.47,180.99,52.96z M188.59,48.69
		c0,0.03,0,0.06,0,0.09c-1.12,0-2.25,0.08-3.37-0.03c-0.59-0.06-1.22-0.34-1.71-0.7c-0.52-0.38-0.54-1.03-0.28-1.61
		c0.24-0.54,0.72-0.64,1.28-0.62c0.89,0.04,1.79,0.09,2.68,0c2.87-0.27,5.31-1.28,6.66-4.05c0.67-1.37,0.88-2.82,0.67-4.32
		c-0.08-0.57,0.09-0.8,0.68-0.76c0.69,0.04,1.38-0.03,2.07,0.01c0.61,0.04,0.87-0.27,1.01-0.81c0.31-1.27,0.06-1.61-1.25-1.61
		c-0.28,0-0.56-0.01-0.84,0c-1.75,0.09-3.45,0.02-5.05-0.85c-0.42-0.23-0.92-0.31-1.39-0.41c-2.93-0.63-5.79-0.62-8.44,1.01
		c-4.18,2.58-3.99,8.76,0.21,10.76c0.7,0.34,0.77,0.85,0.16,1.37c-0.78,0.66-1.59,1.28-2.44,1.84c-0.61,0.4-0.78,0.9-0.65,1.57
		c0.26,1.35,1.08,2.21,2.31,2.75c0.23,0.1,0.55,0.33,0.56,0.52c0.01,0.2-0.26,0.47-0.47,0.61c-0.71,0.49-1.46,0.93-2.19,1.41
		c-0.82,0.54-1.2,1.28-1.09,2.27c0.27,2.34,1.77,3.63,3.83,4.3c3.42,1.11,6.85,0.9,10.21-0.33c2.6-0.95,4.58-2.64,5.36-5.37
		c0.94-3.28-0.12-6.4-4.39-6.85C191.34,48.74,189.96,48.75,188.59,48.69z"/>
	<path d="M162.21,34.32c0.68-0.35,1.29-0.69,1.93-0.99c1.49-0.71,3-1.25,4.71-1c2.87,0.41,4.71,2.45,4.75,5.37
		c0.03,2.81,0.01,5.62,0.02,8.42c0,0.38,0,0.77,0.04,1.15c0.14,1.29,0.34,1.48,1.65,1.65c0.76,0.09,1.09,0.46,1.01,1.14
		c-0.07,0.67-0.48,0.84-1.12,0.83c-2.91-0.03-5.82-0.02-8.72,0c-0.6,0-1.08-0.06-1.14-0.79c-0.06-0.75,0.16-1.04,0.94-1.18
		c0.97-0.18,1.19-0.37,1.2-1.36c0.03-3.09,0.04-6.18,0-9.27c-0.01-1.12-0.73-1.99-1.72-2.3c-1.18-0.37-2.74-0.05-3.33,0.75
		c-0.21,0.29-0.34,0.7-0.34,1.06c-0.02,3.27-0.02,6.53,0.01,9.8c0.01,0.97,0.25,1.21,1.22,1.31c0.73,0.08,0.96,0.47,0.91,1.13
		c-0.04,0.65-0.39,0.85-1.02,0.84c-2.98-0.02-5.97-0.02-8.95,0c-0.65,0.01-0.96-0.28-1.01-0.88c-0.05-0.62,0.19-1,0.88-1.1
		c1.57-0.21,1.69-0.25,1.77-1.83c0.11-2.22,0.06-4.44,0.08-6.66c0-0.82-0.01-1.63-0.01-2.45c0-0.84-0.23-1.55-1.07-1.95
		c-0.49-0.24-0.74-0.72-0.55-1.21c0.12-0.31,0.5-0.61,0.83-0.75c1.86-0.77,3.75-1.46,5.61-2.22c0.83-0.34,1.35-0.02,1.33,0.89
		c-0.01,0.43-0.03,0.87-0.03,1.3C162.11,34.07,162.14,34.12,162.21,34.32z M161.68,42.69C161.68,42.69,161.68,42.69,161.68,42.69
		c-0.01-1.56-0.02-3.11,0-4.67c0.01-1.22,0.5-1.88,1.63-2.32c2.43-0.95,4.58,0.45,4.62,3.06c0.04,2.65,0.02,5.31,0.01,7.96
		c0,1.86-0.1,1.97-1.8,2.64c-0.19,0.08-0.39,0.42-0.37,0.62c0.02,0.17,0.33,0.45,0.52,0.45c3.01,0.03,6.02,0.02,9.03-0.01
		c0.19,0,0.55-0.31,0.54-0.44c-0.03-0.23-0.27-0.45-0.45-0.64c-0.07-0.07-0.25-0.04-0.37-0.06c-1.24-0.19-1.62-0.57-1.74-1.83
		c-0.06-0.66-0.1-1.32-0.1-1.99c-0.01-2.66,0.03-5.31-0.03-7.96c-0.05-2.34-1.46-4.11-3.6-4.67c-1.87-0.49-3.59-0.01-5.25,0.82
		c-0.62,0.31-1.22,0.65-1.84,0.95c-0.5,0.24-0.8,0.06-0.8-0.51c0-0.41,0.05-0.81,0.08-1.22c0.06-0.78-0.17-0.92-0.88-0.64
		c-1.82,0.73-3.66,1.42-5.48,2.15c-0.25,0.1-0.65,0.34-0.64,0.5c0.01,0.3,0.19,0.71,0.44,0.86c0.8,0.5,1.14,1.18,1.14,2.1
		c-0.02,3.01,0,6.02-0.02,9.04c-0.01,1.5-0.3,2.37-2.03,2.44c-0.45,0.02-0.71,0.27-0.56,0.69c0.07,0.2,0.42,0.42,0.64,0.42
		c2.93,0.03,5.87,0.03,8.8,0c0.22,0,0.44-0.27,0.66-0.42c-0.17-0.23-0.3-0.59-0.53-0.66c-1.34-0.39-1.6-0.65-1.62-2.07
		C161.66,45.75,161.68,44.22,161.68,42.69z"/>
	<path d="M112.06,64.86c-1.04-0.09-1.1,0.65-1.31,1.28c-0.95,2.78-1.92,5.55-2.88,8.32c-0.09,0.26-0.2,0.51-0.4,1
		c-0.3-0.52-0.54-0.83-0.67-1.18c-0.57-1.53-1.1-3.07-1.65-4.61c-0.08-0.24-0.18-0.47-0.35-0.9c-0.17,0.4-0.27,0.64-0.36,0.88
		c-0.58,1.61-1.14,3.22-1.73,4.83c-0.1,0.27-0.3,0.5-0.45,0.75c-0.22-0.25-0.53-0.47-0.64-0.76c-0.98-2.66-1.93-5.33-2.89-7.99
		c-0.08-0.22-0.17-0.43-0.23-0.65c-0.14-0.57-0.36-1.01-1.07-0.93c-0.07,0.01-0.15-0.09-0.42-0.28c1.45,0,2.68,0,3.91,0
		c0.01,0.07,0.02,0.14,0.03,0.21c-0.41,0.06-0.83,0.12-1.36,0.2c0.98,2.74,1.95,5.44,3,8.35c0.19-0.43,0.31-0.66,0.39-0.91
		c0.27-0.77,0.44-1.59,0.81-2.31c0.82-1.6,0.68-3.11-0.1-4.65c-0.13-0.26-0.18-0.57-0.28-0.88c1.02,0,1.95,0,2.88,0
		c0,0.07,0.01,0.14,0.02,0.21c-0.43,0.06-0.85,0.12-1.39,0.19c0.94,2.77,1.87,5.48,2.79,8.19c0.07,0,0.13-0.01,0.2-0.01
		c0.9-2.7,1.8-5.4,2.72-8.19c-0.51-0.06-0.94-0.12-1.36-0.17c0.01-0.07,0.01-0.14,0.02-0.21c0.89,0,1.78,0,2.67,0
		C111.99,64.71,112.02,64.78,112.06,64.86z"/>
	<path d="M41.98,74.72c0.46,0.1,0.81,0.17,1.16,0.25c-0.01,0.06-0.02,0.12-0.02,0.18c-1.22,0-2.44,0-3.68,0
		c0.04-0.14,0.04-0.22,0.06-0.23c1.18-0.4,1.18-0.4,1.18-1.72c0-1.4-0.04-2.81,0.02-4.21c0.02-0.7-0.14-1.08-0.91-0.96
		c-0.1,0.02-0.22-0.05-0.37-0.09c0.36-0.29,2.18-0.47,2.31-0.2c0.19,0.4,0.23,0.87,0.36,1.45c0.57-0.93,1.26-1.67,2.37-1.71
		c1.17-0.04,1.8,0.69,2.24,1.82c0.22-0.31,0.37-0.53,0.52-0.74c0.61-0.83,1.42-1.26,2.45-1.04c1.07,0.23,1.72,0.94,1.82,2.01
		c0.11,1.29,0.09,2.6,0.13,3.9c0.01,0.43,0,0.85,0,1.3c0.46,0.08,0.83,0.14,1.38,0.24c-0.86,0.38-3.46,0.34-4.03-0.09
		c1.62,0.07,1.32-1.02,1.33-1.91c0.01-0.87,0.01-1.74,0-2.6c-0.01-1.35-0.45-2.08-1.33-2.17c-0.97-0.11-2.03,0.7-2.13,1.9
		c-0.13,1.54-0.03,3.09-0.03,4.63c0.41,0.09,0.75,0.17,1.1,0.25c-0.01,0.07-0.02,0.13-0.03,0.2c-1.18,0-2.37,0-3.66,0
		c0.11-0.16,0.16-0.3,0.21-0.3c0.97,0.01,1.09-0.65,1.09-1.4c0-1.07,0.02-2.15-0.01-3.22c-0.03-1.23-0.47-1.93-1.23-2.05
		c-0.8-0.13-1.88,0.65-2.1,1.68c-0.17,0.84-0.16,1.72-0.19,2.58C41.96,73.23,41.98,73.99,41.98,74.72z"/>
	<path d="M32.11,74.72c0.4,0.09,0.74,0.17,1.08,0.25c-0.01,0.06-0.02,0.13-0.04,0.19c-1.18,0-2.37,0-3.67,0
		c0.13-0.17,0.18-0.3,0.23-0.3c0.92,0.01,1.08-0.6,1.08-1.33c0.01-1.1,0.02-2.2-0.01-3.29c-0.03-1.23-0.48-1.92-1.24-2.04
		c-0.81-0.12-1.94,0.65-2.08,1.69c-0.21,1.58-0.2,3.19-0.28,4.81c0.5,0.11,0.87,0.18,1.24,0.26c-0.01,0.06-0.02,0.12-0.03,0.18
		c-1.22,0-2.44,0-3.69,0c0.05-0.14,0.05-0.22,0.08-0.23c1.17-0.38,1.17-0.38,1.18-1.64c0-1.43-0.04-2.86,0.02-4.29
		c0.03-0.72-0.16-1.06-0.92-0.96c-0.1,0.02-0.22-0.05-0.37-0.09c0.38-0.29,2.21-0.46,2.33-0.19c0.19,0.4,0.22,0.87,0.35,1.46
		c0.58-0.94,1.27-1.68,2.38-1.72c1.17-0.04,1.8,0.7,2.23,1.82c0.22-0.3,0.37-0.52,0.53-0.74c0.62-0.82,1.42-1.25,2.46-1.03
		c1.07,0.23,1.72,0.94,1.81,2.01c0.11,1.34,0.09,2.7,0.13,4.05c0.01,0.38,0,0.75,0,1.13c0.47,0.08,0.84,0.15,1.2,0.22
		c-0.01,0.07-0.02,0.14-0.03,0.21c-1.23,0-2.45,0-3.69,0c0.02-0.14,0.02-0.22,0.04-0.23c1.16-0.37,1.16-0.37,1.16-1.65
		c0-0.97,0-1.94,0-2.91c-0.01-1.35-0.46-2.07-1.34-2.17c-0.94-0.1-1.99,0.65-2.1,1.83C32,71.59,32.11,73.17,32.11,74.72z"/>
	<path d="M123.59,34.41c0.51-0.37,0.97-0.82,1.53-1.09c0.88-0.42,1.8-0.93,2.74-1.01c1.5-0.13,2.54,1.03,2.63,2.59
		c0.09,1.55-0.85,2.83-2.29,3.08c-0.85,0.15-1.61,0.02-2.29-0.56c-0.35-0.3-0.72-0.58-1.12-0.8c-0.66-0.37-0.99-0.22-1.15,0.51
		c-0.08,0.37-0.13,0.76-0.14,1.14c-0.01,2.81,0,5.62,0,8.42c0,0.18,0,0.36,0.02,0.53c0.13,1.33,0.36,1.55,1.7,1.67
		c0.2,0.02,0.41,0.03,0.61,0.03c0.69,0.02,0.94,0.41,0.9,1.05c-0.03,0.61-0.3,0.9-0.96,0.9c-3.37-0.02-6.73-0.02-10.1,0
		c-0.69,0.01-0.93-0.35-0.95-0.92c-0.02-0.56,0.18-0.96,0.85-1.04c1.59-0.18,1.78-0.36,1.8-1.95c0.04-3.04,0.02-6.08,0.02-9.11
		c0-0.75-0.32-1.27-0.96-1.71c-0.34-0.23-0.61-0.74-0.66-1.16c-0.08-0.58,0.47-0.73,0.94-0.92c1.82-0.72,3.62-1.5,5.45-2.22
		c0.29-0.11,0.73-0.13,0.97,0.01c0.21,0.12,0.31,0.55,0.32,0.84c0.02,0.52-0.07,1.05-0.11,1.57
		C123.43,34.32,123.51,34.37,123.59,34.41z M120.72,50.45C120.72,50.45,120.72,50.45,120.72,50.45c1.61,0,3.22,0,4.82,0.01
		c0.4,0,0.79,0.02,0.8-0.54c0.01-0.5-0.31-0.57-0.71-0.58c-0.2-0.01-0.4-0.05-0.61-0.08c-1.49-0.21-1.69-0.42-1.88-1.91
		c-0.03-0.23-0.06-0.46-0.06-0.69c0-2.78-0.01-5.57,0.02-8.35c0-0.53,0.1-1.07,0.26-1.58c0.21-0.67,0.69-0.88,1.32-0.57
		c0.52,0.25,1,0.61,1.47,0.95c1.01,0.73,2.28,0.71,3.17-0.06c0.8-0.7,1.02-2.25,0.47-3.27c-0.53-0.97-1.55-1.36-2.77-0.99
		c-0.5,0.15-0.99,0.4-1.44,0.68c-0.54,0.33-1.03,0.76-1.57,1.1c-0.19,0.11-0.54,0.19-0.68,0.09c-0.19-0.13-0.32-0.45-0.34-0.69
		c-0.03-0.38,0.06-0.76,0.08-1.14c0.04-0.8-0.14-0.89-0.88-0.57c-1.78,0.76-3.58,1.47-5.37,2.23c-0.25,0.11-0.64,0.35-0.63,0.51
		c0.02,0.3,0.21,0.7,0.46,0.85c0.72,0.45,1.12,1.05,1.12,1.88c0,3.24,0.02,6.48-0.07,9.72c-0.04,1.4-0.42,1.69-1.82,1.88
		c-0.4,0.06-0.8,0.07-0.76,0.62c0.03,0.57,0.45,0.51,0.84,0.51C117.55,50.45,119.13,50.45,120.72,50.45z"/>
	<path d="M162.87,68.36c0-1.41,0.02-2.68-0.03-3.94c0-0.14-0.37-0.32-0.59-0.38c-0.31-0.08-0.66-0.07-0.99-0.1
		c0-0.09,0-0.19,0.01-0.29c0.87,0,1.73-0.03,2.59,0.04c0.11,0.01,0.26,0.49,0.26,0.76c0.03,2.93,0.03,5.87,0.04,8.8
		c0,0.48,0,0.96,0,1.47c0.47,0.09,0.86,0.17,1.25,0.24c-0.01,0.09-0.02,0.17-0.02,0.26c-0.69,0-1.38,0.02-2.06-0.02
		c-0.12-0.01-0.28-0.27-0.32-0.43c-0.08-0.37-0.1-0.75-0.15-1.21c-0.13,0.11-0.21,0.16-0.26,0.24c-0.7,1.21-1.73,1.78-3.13,1.56
		c-1.26-0.2-2.21-1.23-2.47-2.7c-0.2-1.12-0.11-2.24,0.43-3.28c1-1.93,3.18-2.49,5-1.28C162.53,68.16,162.61,68.2,162.87,68.36z
		 M158.22,71.3c0.04,0.02,0.08,0.04,0.11,0.06c0.08,0.55,0.12,1.12,0.26,1.65c0.29,1.12,0.8,1.61,1.7,1.7
		c0.89,0.09,1.71-0.35,2.14-1.3c0.65-1.43,0.73-2.92,0.06-4.37c-0.69-1.48-2.62-1.64-3.45-0.23
		C158.61,69.55,158.49,70.47,158.22,71.3z"/>
	<path d="M137.56,75.23c-0.61,0-1.23,0.07-1.82-0.03c-0.29-0.05-0.59-0.35-0.77-0.62c-0.72-1.08-1.39-2.19-2.08-3.28
		c-1.19,0.65-1.43,1.5-1,3.44c0.35,0.07,0.7,0.14,1.06,0.21c-0.01,0.06-0.01,0.11-0.02,0.16c-1.23,0-2.45,0-3.68,0
		c-0.05-0.07-0.11-0.14-0.16-0.21c1.66-0.02,1.43-1.14,1.44-2.12c0.01-2.6-0.02-5.21,0.02-7.81c0.01-0.69-0.12-1.09-0.9-0.98
		c-0.12,0.02-0.26-0.1-0.38-0.15c0-0.06,0.01-0.13,0.01-0.19c0.77,0,1.53-0.02,2.3,0.03c0.09,0.01,0.21,0.42,0.21,0.64
		c0.02,2.04,0.01,4.08,0.01,6.13c0,0.27,0,0.53,0,0.8c0.06,0.03,0.12,0.05,0.19,0.08c1.12-1.04,2.25-2.07,3.48-3.21
		c-0.54-0.07-0.91-0.12-1.28-0.17c0.01-0.08,0.01-0.15,0.02-0.22c0.94,0,1.88,0,2.82,0c-1.28,0.36-1.94,1.47-2.87,2.21
		c-0.35,0.28-0.36,0.53-0.1,0.9c0.78,1.16,1.51,2.36,2.31,3.52c0.16,0.23,0.51,0.33,0.78,0.46c0.16,0.08,0.33,0.11,0.5,0.17
		C137.6,75.08,137.58,75.15,137.56,75.23z"/>
	<path d="M14.01,72.12c0,1.02,0,2.04,0,3.06c-0.05,0.02-0.1,0.04-0.15,0.06c-0.15-0.23-0.29-0.46-0.44-0.69
		c-3.84,1.32-6.23,0.91-7.78-1.34c-1.42-2.05-1.32-5.19,0.22-7.03c1.7-2.03,4.4-2.39,7.52-0.98c0.11-0.23,0.22-0.46,0.33-0.68
		c0.06,0.01,0.11,0.02,0.17,0.03c0,0.99,0,1.99,0,2.98c-0.05,0.02-0.1,0.05-0.15,0.08c-0.13-0.22-0.26-0.43-0.37-0.66
		c-0.77-1.57-1.92-2.26-3.63-2.13c-1.57,0.13-2.5,1.09-2.96,2.5c-0.55,1.72-0.53,3.48,0.02,5.2c0.46,1.43,1.41,2.36,2.99,2.44
		c1.61,0.08,2.81-0.59,3.55-2.04c0.15-0.3,0.32-0.59,0.47-0.89C13.86,72.06,13.93,72.09,14.01,72.12z"/>
	<path d="M66.83,69.28c0.3-0.39,0.45-0.65,0.66-0.87c0.72-0.76,1.58-1.12,2.62-0.84c1.01,0.27,1.67,0.96,1.76,1.99
		c0.12,1.32,0.09,2.65,0.13,3.97c0.01,0.4,0,0.8,0,1.19c0.49,0.1,0.87,0.19,1.26,0.27c-0.01,0.06-0.02,0.11-0.04,0.17
		c-1.28,0-2.55,0-3.9,0c0.1-0.16,0.12-0.26,0.18-0.28c1.18-0.39,1.18-0.39,1.19-1.6c0-1.05,0.01-2.09,0-3.14
		c-0.02-1.04-0.45-1.67-1.24-1.88c-0.73-0.2-1.62,0.17-2.09,0.94c-0.22,0.36-0.45,0.79-0.46,1.2c-0.06,1.44-0.02,2.89-0.02,4.34
		c0.39,0.1,0.75,0.19,1.11,0.27c-0.01,0.05-0.02,0.1-0.04,0.15c-1.22,0-2.45,0-3.72,0c0.07-0.15,0.08-0.22,0.11-0.23
		c1.17-0.32,1.18-0.33,1.18-1.55c0-1.45-0.03-2.91,0.02-4.36c0.02-0.71-0.15-1.07-0.92-0.96c-0.1,0.02-0.22-0.06-0.33-0.09
		c0-0.08,0-0.15,0.01-0.23c0.75,0,1.5-0.02,2.24,0.02c0.09,0,0.19,0.32,0.23,0.51C66.8,68.51,66.79,68.79,66.83,69.28z"/>
	<path d="M149.09,74.75c0.45,0.07,0.8,0.12,1.16,0.18c-0.01,0.07-0.01,0.13-0.02,0.2c-1.22,0-2.44,0-3.67,0
		c-0.01-0.06-0.01-0.12-0.02-0.18c0.15-0.04,0.3-0.11,0.46-0.13c0.51-0.08,0.77-0.37,0.78-0.88c0.01-1.79,0.03-3.57-0.01-5.36
		c0-0.18-0.32-0.4-0.54-0.52c-0.18-0.09-0.43-0.05-0.84-0.09c0.26-0.18,0.36-0.28,0.47-0.31c0.14-0.04,0.3-0.02,0.46-0.02
		c1.58-0.01,1.58-0.01,1.85,1.53c0.25-0.31,0.44-0.59,0.68-0.84c0.71-0.73,1.57-1.04,2.57-0.76c0.99,0.27,1.63,0.93,1.73,1.92
		c0.13,1.26,0.1,2.54,0.13,3.82c0.01,0.46,0,0.91,0,1.39c0.44,0.1,0.82,0.18,1.2,0.27c-0.01,0.06-0.02,0.12-0.04,0.18
		c-1.25,0-2.51,0-3.78,0c0.04-0.13,0.04-0.22,0.07-0.22c1.24-0.4,1.24-0.39,1.25-1.74c0-0.95,0-1.89,0-2.83
		c0-1.28-0.48-2.01-1.4-2.15c-0.96-0.15-2.08,0.62-2.29,1.74c-0.17,0.89-0.14,1.82-0.18,2.74
		C149.07,73.36,149.09,74.04,149.09,74.75z"/>
	<path d="M53.96,67.73c0.83,0,1.66,0,2.58,0c0,1.22,0,2.42,0,3.61c0,0.46-0.01,0.92,0.01,1.38c0.05,1.12,0.47,1.75,1.29,1.92
		c0.95,0.2,1.98-0.31,2.37-1.27c0.19-0.46,0.29-0.98,0.31-1.48c0.05-0.97-0.02-1.94,0.03-2.91c0.04-0.71-0.16-1.07-0.93-0.95
		c-0.16,0.02-0.34-0.04-0.55-0.24c0.23-0.05,0.45-0.14,0.68-0.14c2.03-0.03,2.03-0.03,2.03,1.98c0,1.4,0,2.81,0,4.21
		c0,0.3,0.03,0.6,0.05,0.89c0.45,0.09,0.84,0.18,1.23,0.26c-0.01,0.08-0.02,0.16-0.03,0.25c-0.67,0-1.34,0.02-2.01-0.02
		c-0.12-0.01-0.29-0.24-0.33-0.4c-0.09-0.34-0.11-0.7-0.18-1.24c-0.23,0.33-0.38,0.55-0.53,0.75c-0.69,0.9-1.88,1.3-2.94,1.01
		c-1.03-0.29-1.63-1.03-1.7-2.28c-0.07-1.32-0.08-2.65-0.05-3.98c0.02-0.76-0.16-1.18-1.01-1.04c-0.1,0.02-0.22-0.05-0.34-0.08
		C53.96,67.88,53.96,67.8,53.96,67.73z"/>
	<path d="M23.32,71.5c-0.04,2.33-1.69,3.94-3.98,3.9c-2.2-0.04-3.72-1.77-3.69-4.19c0.03-2.15,1.78-3.78,3.99-3.74
		C21.82,67.52,23.36,69.19,23.32,71.5z M17.03,71.37c0.13,0.7,0.19,1.45,0.42,2.14c0.34,1.05,1.07,1.5,2.15,1.48
		c0.96-0.02,1.65-0.51,1.98-1.5c0.43-1.34,0.44-2.72,0.02-4.06c-0.32-1.03-1.03-1.53-2.03-1.54c-1.05-0.02-1.8,0.47-2.13,1.51
		C17.23,70.01,17.16,70.68,17.03,71.37z"/>
	<path d="M145.13,73.6c-0.17,0.27-0.29,0.59-0.51,0.81c-1.1,1.09-2.44,1.23-3.83,0.76c-1.41-0.47-2.24-1.53-2.35-3.01
		c-0.06-0.75-0.01-1.56,0.21-2.26c0.76-2.41,3.89-3.24,5.84-1.6c0.66,0.55,0.97,1.39,0.72,2.04c-0.28,0.74-0.96,0.88-1.63,0.91
		c-1.02,0.05-2.04,0.04-3.06,0.02c-0.51-0.01-0.73,0.19-0.62,0.68c0.12,0.57,0.2,1.17,0.45,1.69c0.74,1.59,2.9,1.8,4.01,0.44
		c0.17-0.21,0.33-0.42,0.5-0.64C144.94,73.5,145.04,73.55,145.13,73.6z M139.97,70.87c0.64,0,1.29,0,1.95,0
		c0.33,0,0.7,0.07,0.98-0.06c0.37-0.18,0.84-0.46,0.96-0.81c0.35-0.98-0.45-2.03-1.5-2.11C140.83,67.77,139.74,69.07,139.97,70.87z"
		/>
	<path d="M127.77,73.58c-0.13,0.26-0.22,0.55-0.4,0.76c-1.05,1.17-2.4,1.25-3.8,0.88c-1.33-0.36-2.37-1.61-2.45-3.02
		c-0.04-0.78,0-1.6,0.23-2.34c0.76-2.47,4.19-3.23,6.02-1.38c0.51,0.51,0.72,1.13,0.52,1.82c-0.2,0.71-0.83,0.89-1.44,0.93
		c-1.07,0.07-2.14,0.06-3.21,0.04c-0.55-0.01-0.76,0.19-0.66,0.72c0.09,0.47,0.17,0.96,0.32,1.41c0.29,0.87,0.9,1.42,1.82,1.54
		c0.95,0.12,1.76-0.19,2.38-0.94c0.15-0.18,0.28-0.38,0.43-0.56C127.61,73.48,127.69,73.53,127.77,73.58z M122.66,70.84
		c1,0,1.97,0.03,2.93-0.01c0.54-0.02,0.89-0.34,1-0.89c0.19-1.02-0.53-1.94-1.57-2.05C123.5,67.73,122.39,69.23,122.66,70.84z"/>
	<path d="M119.29,73.43c0.18,0.7-0.24,1.04-0.65,1.34c-2.21,1.63-5.54,0.17-5.8-2.57c-0.07-0.7-0.02-1.44,0.16-2.11
		c0.7-2.54,3.9-3.47,5.91-1.76c0.62,0.52,0.92,1.18,0.71,1.97c-0.21,0.79-0.92,0.91-1.59,0.95c-1.02,0.06-2.04,0.06-3.06,0.03
		c-0.6-0.02-0.8,0.23-0.68,0.77c0.11,0.52,0.19,1.06,0.4,1.54c0.74,1.63,2.91,1.88,4.05,0.49
		C118.94,73.86,119.11,73.64,119.29,73.43z M115.98,70.85c0-0.01,0-0.01,0-0.02c0.43,0,0.87,0.03,1.3-0.01
		c0.52-0.05,0.91-0.31,1.03-0.87c0.21-1.01-0.5-1.96-1.53-2.07c-1.09-0.11-1.99,0.53-2.34,1.67c-0.34,1.12-0.24,1.26,0.93,1.29
		C115.58,70.86,115.78,70.85,115.98,70.85z"/>
	<path d="M85.15,67.73c1.08,0,2.18,0,3.28,0c0.01,0.07,0.02,0.14,0.02,0.21c-0.32,0.06-0.65,0.12-1.12,0.21
		c0.8,1.87,1.57,3.69,2.35,5.52c0.07,0,0.14,0,0.21-0.01c0.73-1.82,1.45-3.64,2.21-5.54c-0.48-0.06-0.82-0.1-1.2-0.15
		c0.4-0.39,1.76-0.46,2.63-0.12c-1.44,0.32-1.43,1.58-1.85,2.52c-0.88,1.98-1.63,4.02-2.53,5.99c-0.31,0.67-0.84,1.29-1.39,1.79
		c-0.71,0.65-1.91,0.66-2.46,0.08c-0.2-0.22-0.27-0.62-0.27-0.94c0-0.11,0.43-0.34,0.6-0.29c0.23,0.06,0.44,0.31,0.58,0.53
		c0.42,0.69,0.83,0.88,1.3,0.32c0.63-0.74,1.09-1.64,1.57-2.49c0.08-0.14-0.06-0.44-0.15-0.65c-0.9-2.03-1.79-4.06-2.75-6.06
		C86.01,68.3,85.55,68.08,85.15,67.73z"/>
	<path d="M84.46,73.4c0.24,0.88-0.21,1.6-0.98,1.89c-0.83,0.32-1.9,0.05-2.3-0.69c-0.23-0.43-0.38-0.95-0.4-1.44
		c-0.06-1.4-0.05-2.81-0.02-4.21c0.02-0.66-0.13-1.04-0.87-0.93c-0.11,0.02-0.23-0.05-0.37-0.25c0.16-0.05,0.32-0.15,0.48-0.13
		c0.63,0.07,0.77-0.24,0.76-0.81c-0.02-1,0.07-1.06,1.24-1.13c0,0.35,0.03,0.71-0.01,1.05c-0.07,0.65,0.15,0.95,0.84,0.88
		c0.46-0.04,0.92-0.02,1.38,0c0.17,0.01,0.34,0.08,0.5,0.12c-0.01,0.09-0.02,0.18-0.02,0.28c-0.64,0-1.28,0.04-1.92-0.01
		c-0.62-0.04-0.8,0.2-0.78,0.79C82.02,70.3,82,71.78,82,73.26c0,0.23-0.04,0.5,0.07,0.68c0.2,0.35,0.45,0.84,0.76,0.91
		c0.31,0.07,0.76-0.27,1.05-0.53C84.15,74.09,84.27,73.71,84.46,73.4z"/>
	<path d="M74.56,67.71c0.79,0,1.59-0.02,2.38,0.03c0.08,0.01,0.2,0.43,0.2,0.67c0.03,1.81,0.03,3.63,0.04,5.44
		c0,0.3,0.03,0.6,0.05,0.87c0.44,0.09,0.8,0.17,1.16,0.25c-0.01,0.05-0.02,0.11-0.04,0.16c-1.27,0-2.54,0-3.83,0
		c0.03-0.13,0.03-0.17,0.04-0.17c1.4-0.14,1.37-1.13,1.33-2.17c-0.04-1.25-0.04-2.5,0-3.75c0.03-0.71-0.1-1.15-0.94-1.01
		c-0.13,0.02-0.27-0.05-0.4-0.08C74.55,67.87,74.56,67.79,74.56,67.71z"/>
	<path d="M77.37,64.93c-0.02,0.64-0.45,1.03-1.01,0.98c-0.58-0.05-0.88-0.41-0.84-0.96c0.04-0.54,0.35-0.9,0.95-0.86
		C77.04,64.12,77.33,64.45,77.37,64.93z"/>
	<path d="M135.13,36.71c1.12-0.3,1.28-0.81,0.62-1.79c0.61-0.7,1.54-0.85,2.4-0.4c0.85,0.45,1.27,1.46,1.01,2.42
		c-0.24,0.89-1.12,1.53-2.07,1.52C136.11,38.43,135.34,37.77,135.13,36.71z"/>
	<path d="M145.62,35.01c-0.8,1.04-0.52,1.74,0.69,1.85c-0.18,1.06-0.85,1.71-1.84,1.79c-0.97,0.07-1.82-0.47-2.14-1.38
		c-0.32-0.91,0-1.9,0.78-2.43C143.9,34.3,144.85,34.36,145.62,35.01z"/>
	<path d="M188.3,60.45c-1.09-0.33-2.23-0.52-3.24-1.01c-1.66-0.79-2.44-2.26-2.52-4.08c-0.06-1.48,0.65-2.36,2.14-2.45
		c1.75-0.1,3.53-0.15,5.27,0.01c2.58,0.24,4.03,2.76,3,5.04c-0.72,1.59-2.18,2.04-3.75,2.26c-0.28,0.04-0.56,0.01-0.84,0.01
		C188.34,60.31,188.32,60.38,188.3,60.45z M188.17,59.97c0.97-0.2,1.76-0.27,2.5-0.52c1.56-0.53,2.23-1.64,2.13-3.3
		c-0.09-1.4-0.99-2.58-2.53-2.73c-1.94-0.19-3.91-0.13-5.86-0.04c-0.94,0.04-1.38,0.64-1.46,1.49c-0.17,1.75,0.71,3.49,2.31,4.22
		C186.22,59.53,187.29,59.71,188.17,59.97z"/>
	<path d="M189.59,39.65c-0.21,1.01-0.29,2.07-0.66,3.03c-0.74,1.95-2.77,2.24-4.12,0.64c-0.27-0.32-0.5-0.71-0.66-1.11
		c-0.7-1.81-0.8-3.68-0.32-5.55c0.13-0.53,0.41-1.05,0.75-1.48c1.12-1.41,3.09-1.15,4.05,0.52
		C189.33,36.92,189.45,38.26,189.59,39.65z M189.25,39.65c-0.26-1.15-0.45-2.31-0.8-3.41c-0.31-0.96-1.05-1.62-2.12-1.57
		c-1.06,0.05-1.68,0.78-2.01,1.74c-0.65,1.94-0.49,3.87,0.24,5.75c0.16,0.42,0.44,0.81,0.76,1.13c1.05,1.08,2.63,0.82,3.17-0.59
		C188.86,41.75,189,40.71,189.25,39.65z"/>
</g>
</svg>
