<?xml version="1.0" encoding="utf-8"?>
<!-- Generator: Adobe Illustrator 27.9.0, SVG Export Plug-In . SVG Version: 6.00 Build 0)  -->
<svg version="1.1" id="Layer_2_00000091693657745831657700000012578468675842668213_"
	 xmlns="http://www.w3.org/2000/svg" xmlns:xlink="http://www.w3.org/1999/xlink" x="0px" y="0px" viewBox="0 0 200 100"
	 style="enable-background:new 0 0 200 100;" xml:space="preserve">
<path d="M21.2,12.1L16,33.3H6.4c-1-3.8-2-7.6-2.9-11.3c-0.7-2.6-2.4-9.9-2.4-9.9h6.3L10.7,29h1c0.5-2.6,3.6-16.9,3.6-16.9H21.2z"/>
<polygon points="5.8,90.6 3.1,87.6 3.1,69.5 5.8,69.5 5.8,86.6 7.2,88.2 15.1,88.2 16.5,86.5 16.5,69.5 19.1,69.5 19.1,87.7 
	16.5,90.6 "/>
<rect x="93.5" y="12.1" width="5.5" height="21.2"/>
<polygon points="34.7,90.6 34.7,79.4 33.1,77.8 29.5,77.8 26.4,80.9 26.4,90.6 23.6,90.6 23.6,75.8 26.4,75.8 26.4,77.7 28.6,75.7 
	34.4,75.7 37.4,78.9 37.4,90.6 "/>
<polygon points="86,90.6 86,79.4 84.4,77.8 80.8,77.8 77.7,80.9 77.7,90.6 74.9,90.6 74.9,75.8 77.7,75.8 77.8,77.7 79.9,75.7 
	85.7,75.7 88.8,78.9 88.8,90.6 "/>
<polygon points="44.1,90.6 41.4,87.6 41.4,78.7 44.5,75.7 51.5,75.7 54,78.3 54,80.6 51.5,80.6 51.5,79 50.3,77.7 45.5,77.7 
	44.2,79 44.2,87.1 45.4,88.4 54,88.4 54,90.6 "/>
<polygon points="167.3,90.6 164.6,87.6 164.6,78.7 166.1,79 167.7,75.7 174.6,75.7 177.1,78.3 177.1,80.6 174.7,80.6 174.7,79 
	173.5,77.7 168.7,77.7 167.4,79 167.4,87.1 168.6,88.4 177.2,88.4 177.2,90.6 "/>
<polygon points="118.4,90.6 118.4,75.8 121.2,75.8 121.2,77.8 123.1,75.7 127.6,75.7 127.6,78.2 123.6,78.2 121.1,81.1 121.1,90.6 
	"/>
<path d="M59.1,33.4l-3-3.1V18.5h5.4c0,0,0,7.1,0,10.4c0.6,1.1,1.2,1.5,2.3,1.2c0.8-0.6,2.6-2.2,2.6-2.2v-9.4h5.5v14.8h-5.6v-1.7
	l-2.2,1.8L59.1,33.4L59.1,33.4z"/>
<path d="M90.3,21.6v11.7h-5.4v-1.6L83,33.3h-5.3l-3.1-3.1v-3.4l3.6-3.1h6.8v-0.9l-1-0.9h-7.5v-3.4h10.9L90.3,21.6z M82.4,30.7
	l2.5-2.6v-1.8l-4.4,0l-1.1,1.2v2l1.1,1.1L82.4,30.7z"/>
<polygon points="39.6,48.8 39.6,43.6 43,40.6 53.9,40.6 53.9,43.2 44,43.2 42.5,44.6 42.5,48.2 43.9,49.6 52,49.6 55.1,52.7 
	55.1,58.9 51.7,61.8 40.4,61.8 40.4,59.5 50.8,59.5 52.3,57.8 52.3,53.5 50.8,52.2 42.7,52.2 "/>
<path d="M19.9,61.7H17l-1.9-5.3h-9l-1.8,5.3H1.4l7.1-21.1h4.2L19.9,61.7z M14.4,53.8l-3.5-10.5h-0.6L7,53.8H14.4z"/>
<polygon points="44.1,18.4 45.7,18.4 47.1,14.2 50.8,14.2 50.8,18.4 53.2,18.4 53.2,21.7 50.8,21.7 50.8,29.9 53.9,29.9 53.9,33.3 
	48.2,33.3 45.3,30.7 45.3,21.7 44.1,21.7 "/>
<path d="M67.9,46.8h-8.4l0,2.3h7.4l1.5,1.3v1.9h-7.1l-3.6,3v3.4l3,3.1h5.5l2.2-2.4v2.4h2.5v-12L67.9,46.8z M65.7,59.7h-3.8l-1.5-1.5
	v-2.6l1.5-1.2h6.5v2L65.7,59.7z"/>
<polygon points="37.8,33.3 32.3,33.3 32.3,18.4 37.8,18.4 37.8,20.5 40.2,18.4 43.2,18.4 43.2,23.1 39.5,23.1 37.8,24.5 "/>
<polygon points="115.7,67.3 113.2,67.3 115.7,60.6 114.6,60.6 108.5,46.9 111.5,46.9 116.3,58.2 116.7,58.2 121.1,46.9 124.1,46.9 
	"/>
<polygon points="24.4,43.2 22.1,43.2 22.1,40.7 29.8,40.7 29.8,43.1 27.4,43.1 27.4,59.4 29.8,59.4 29.8,61.7 22.1,61.7 22.1,59.4 
	24.3,59.4 "/>
<rect x="23.3" y="18.5" width="5.3" height="14.8"/>
<polygon points="75.5,48.8 74.1,48.8 74.1,46.9 75.5,46.9 75.5,43.3 78.4,40.6 81.9,40.6 81.9,43 79.4,43 78.3,43.9 78.3,46.9 
	81.3,46.9 81.3,48.8 78.3,48.8 78.3,61.7 75.5,61.7 "/>
<polygon points="101,59 101,48.8 99.5,48.8 99.5,46.9 101,46.9 101.7,43 103.8,43 103.8,46.9 106.8,46.9 106.8,48.8 103.8,48.8 
	103.8,58.4 104.8,59.5 107.6,59.6 107.6,61.7 103.6,61.7 "/>
<path d="M28.6,16.7c-1.8,0-3.5,0-5.3,0c0-1.3,0-2.6,0-4c1.8,0,3.5,0,5.3,0C28.6,14.1,28.6,15.3,28.6,16.7z"/>
<g>
	<path d="M67.6,75.7h-7l-3.2,2.8v9.6l2.8,2.5h7.5l2.8-2.9v-9L67.6,75.7z M67.8,87.1l-1.3,1.4h-4.8l-1.5-1.4v-7.9l1.4-1.4h4.8
		l1.4,1.4L67.8,87.1L67.8,87.1z"/>
</g>
<g>
	<path d="M86.4,50.4l0.5-0.4C86.7,50.1,86.6,50.3,86.4,50.4z"/>
	<path d="M87.5,49.5l0.7-0.6C87.9,49.1,87.7,49.3,87.5,49.5z"/>
	<path d="M96.6,55.4v-5.3l-3-3.2H87l-3.2,3v8.6l2.9,3.2h9.7v-2.1h-8.5l-1.3-1.4v-2.8H96.6L96.6,55.4z M86.4,53v-2.6l1.5-1.5h4.6
		l1.3,1.4V53L86.4,53L86.4,53z"/>
</g>
<polygon points="93.2,77.7 91.8,77.7 91.8,75.8 93.2,75.8 93.2,72.1 96.1,69.5 99.6,69.5 99.6,71.8 97.1,71.8 96,72.8 96,75.8 
	99,75.8 99,77.7 96,77.7 96,90.6 93.2,90.6 "/>
<g>
	<path d="M114.3,84.3v-5.3l-3-3.2h-6.6l-3.2,3v8.6l2.9,3.2h9.7v-2.1h-8.5l-1.3-1.4v-2.8L114.3,84.3L114.3,84.3z M104.2,79.1l1.5-1.3
		h4.5l1.5,1.5v2.5h-7.4"/>
</g>
<g>
	<path d="M142.7,84.3v-5.3l-3-3.2h-6.6l-3.2,3v8.6l2.9,3.2h9.7v-2.1h-8.5l-1.3-1.4v-2.8L142.7,84.3L142.7,84.3z M132.6,79.1l1.5-1.3
		h4.5l1.5,1.5v2.5h-7.4"/>
</g>
<g>
	<path d="M193.6,84.3v-5.3l-3-3.2H184l-3.2,3v8.6l2.9,3.2h9.7v-2.1h-8.5l-1.3-1.4v-2.8L193.6,84.3L193.6,84.3z M183.5,79.1l1.5-1.3
		h4.5l1.5,1.5v2.5h-7.4"/>
</g>
<polygon points="157.8,90.6 157.8,79.4 156.3,77.8 152.7,77.8 149.6,80.9 149.6,90.6 146.8,90.6 146.8,75.8 149.6,75.8 149.6,77.7 
	151.8,75.7 157.6,75.7 160.6,78.9 160.6,90.6 "/>
<g>
	<path d="M101.8,23.9c1.1,0.6,2.3,1.2,3.4,1.8c0.5,0.2,1.1,0.3,1.7,0.5c0-1,0.3-2-0.1-2.9c-0.5-1.4-1.4-2.6-2-3.9
		c-0.2-0.3,0.2-0.9,0.3-1.4c0.2,0.5,0.7,0.9,0.7,1.3c0.1,2.2,1.3,3.4,3.1,3.4c0.8,0,0.9-0.2,0.6-1c-0.8-1.7-1.4-3.5-2-5.3
		c-0.1-0.4,0.1-1,0.1-1.5c0.4,0.2,0.9,0.3,1.3,0.6c1.1,0.7,3.7,0.4,4.2-0.6c0.2-0.3-0.6-1.1-0.9-1.6c-0.1-0.2-0.2-0.4-0.4-0.6
		c0.3,0,0.7-0.1,0.8,0c1.9,2.9,3.4,0.8,5-0.3c1.4-0.9,2.9-1.8,4.4-2.6c0.1-0.1,0.4,0,0.6,0c-0.1,0.2-0.2,0.4-0.4,0.5
		c-1.2,0.9-2.5,1.7-3.8,2.5c-0.2,0.2-0.3,0.5-0.5,0.7c0.2,0,0.5,0.2,0.7,0.1c3.3-0.6,6.7-1.2,10-1.9c2.6-0.6,5.1-1.5,7.7-2.3
		c0.4-0.1,0.8,0.1,1.2,0.1c-0.3,0.2-0.7,0.4-1,0.5c-2.7,0.9-5.5,1.8-8.2,2.7c-0.4,0.1-0.7,0.4-1.1,0.7c0.5,0,1,0.1,1.5,0
		c3-0.9,6-1.9,9-2.7c1-0.3,2.1-0.6,3.1-0.6c0.7,0,1.9,0.4,2,0.7c0.2,1.7,1.4,1.2,2.4,1.3c1.2,0.1,2.4,0,3.5,0.4c3.1,0.9,6,0.4,9.1,0
		c2.1-0.2,2.3,0.1,1.6,2.1c0,0.1,0.2,0.6,0.4,0.6c1.1,0,2.1,0.1,3.1,0c1-0.1,0.9,0.3,1.4,1.1c1.2,2.1-0.5,3.5-0.6,5.2
		c0,0.3,0,0.6,0,0.9c0.2-0.1,0.5-0.2,0.7-0.3c2.8-1.9,4.4-6.6,3.4-10c-0.1-0.2,0-0.4,0-0.6c0.2,0.1,0.6,0.3,0.6,0.4
		c0.2,1.5,0.8,3.2,0.3,4.6c-0.7,2.3-2.1,4.3-3.2,6.5c-0.5,1-0.8,2.1-1.2,3.2c0.9-0.7,1.8-1.3,2.6-2c0.5-0.4,1-0.9,1.5-1.3
		c-0.3,0.6-0.6,1.1-0.8,1.7c-0.2,0.4-0.3,0.8-0.5,1.2c0.3-0.2,0.7-0.5,1-0.7c0.4-0.3,0.7-0.5,1.1-0.8c-0.2,0.5-0.2,1-0.5,1.3
		c-1.2,1.4-2.6,2.8-3.8,4.2c-0.2,0.3-0.4,0.7-0.6,1c0.3-0.1,0.7-0.2,1-0.3c1.4-0.4,2.7-0.9,4.1-1.3c0.3-0.1,0.7,0.3,1,0.4
		c-0.3,0.1-0.6,0.2-0.9,0.4c-1.8,0.8-3.6,1.4-5.3,2.3c-1.1,0.6-1.5,1.4-1,3c0.3,1.1-1.1,3-2.3,4c-1.6,1.5-3.5,2.9-5.6,3.6
		c-1.8,0.5-3.4,1.1-4.8,2.4c-0.2,0.2-0.9-0.4-1.3-0.4c-0.4,0-0.8,0.3-1.2,0.6c-0.1,0,0.1,0.7,0.3,0.8c1.5,1,3.1,1.8,4.6,2.8
		c1.5,1,2.6,0.4,2.8-1c0.5-4.3,3.7-5.4,7.1-6.5c3-1,5.9-2.1,8.9-3.1c0.3-0.1,0.7,0.1,1.1,0.1c-0.1,0.2-0.2,0.5-0.3,0.6
		c-2.2,2.1-4.4,4.2-6.6,6.3c-2.3,2.3-4.6,4.7-8.2,5c-0.1,0-0.3,0.7-0.2,0.8c1.4,1.9,3.1,2,5,0.6c1.3-1,2.8-1.9,4.2-2.9
		c0.4-0.3,0.9-0.7,1.1-1.2c0.9-2.5,2.8-3.7,5.2-4c4.3-0.6,8.6-0.9,12.9-1.3c0.4,0,0.8,0.2,1.2,0.3c-0.3,0.3-0.5,0.7-0.8,0.9
		c-1.6,1.4-3.2,2.8-5,4c-3.7,2.5-7.2,5.8-12.3,3.9c-0.3-0.1-0.6-0.2-1-0.2c-0.5,0-1,0.1-1.4,0.2c0.4,0.3,0.7,0.6,1.1,0.9
		c1.7,1,3.3,2.3,5.1,2.9c2.9,0.9,6,1.6,9,1.9c5.3,0.7,9.3,3,12.1,7.7c1.2,2,3.1,3.5,4.7,5.2c0,0.3,0,0.5,0,0.8
		c-2.9-0.3-5.9-0.4-8.8-0.8c-5.3-0.8-8.4-4.3-10.2-9.1c-0.6-1.6-1.6-2.5-3.2-2.7c-3.4-0.4-6.4-1.8-9.1-3.8c-0.5-0.4-1.2-0.6-1.7-1
		c-1.4-0.9-2.6-0.7-3.6,0.7c-1.1,1.5,0.4,1.9,1.2,2.5c4.7,4,7.5,8.9,6.2,15.2c-0.6,2.8-2.3,5.4-3.5,8c-0.1,0.2-0.7,0.2-0.9,0.1
		c-0.4-0.2-0.8-0.6-0.9-1c-0.9-4.5-3.1-8.8-2.5-13.5c0.1-1.2,0.4-2.3,0.9-3.4c0.6-1.3,0.7-2.3-0.6-3.2c-0.9-0.7-1.7-1.5-2.5-2.3
		c0,1.2,0.2,2.3-0.1,3.5c-0.5,2.5-0.8,5.2-2,7.4c-1.7,3.3-4.1,6.2-6.3,9.2c-0.3,0.5-1.2,1.2-1.6,1.6c-0.2-0.4-0.1-1.3-0.3-1.7
		c-3.7-8.3,0.2-15.5,6.5-19.2c1.7-1,2.2-2,1-3.3c-1.1-1.2-2.8-2.3-4.3-2.3c-1.3,0-2.9,1.4-3.9,2.5c-1.6,2-2.7,4.3-3.9,6.5
		c-0.2,0.4-0.2,1.1,0,1.6c0.8,2.2,0.7,4.2-0.2,6.4c-1,2.2-1.4,4.7-2.1,7.1c-0.1,0.3-0.2,0.5-0.4,0.8c-0.2-0.2-0.5-0.4-0.6-0.7
		c-0.9-2.1-1.8-4.2-2.5-6.4c-0.5-1.6-0.8-3.3-0.8-5c0-1.2-0.4-1.6-1.5-1.8c-3-0.4-5.9-0.8-8.9-1.3c-0.4-0.1-0.7-0.5-1.1-0.8
		c0.3-0.2,0.7-0.3,1-0.6c2.1-1.4,4.5-2.7,6.4-4.4c3.8-3.3,7.9-5.2,13.1-4.4c0.5,0.1,1.1,0.3,1.5,0.1c0.8-0.4,1.4-1.1,2.1-1.7
		c-0.7-0.4-1.3-1.1-2-1.3c-1.8-0.5-3.6-0.6-5.3-1.1c-0.8-0.2-1.4-0.8-2.1-1.2c-0.4-0.2-0.8-0.6-1.1-0.5c-1,0.3-2,0.6-2.9,1.1
		c-0.9,0.5-1.6,1.4-2.4,2c-0.6,0.4-1.4,0.7-2.1,1c0.2-0.8,0.3-1.5,0.5-2.3c0.1-0.3,0.3-0.7,0.5-1c-0.4,0.1-0.7,0.2-1.1,0.3
		c-0.9,0.3-2.1,1.8-2.5-0.5c0,0-0.7,0-1.1,0.1c-0.8,0.3-1.6,0.7-2.4,0.8c-0.3,0.1-0.7-0.4-1-0.7c1.2-1.6-0.4-1.3-1.1-1.6
		c-0.5-0.2-1.2-0.5-1.7-0.4c-1,0.2-1.8,0.8-2.8,1.2c-0.2,0.1-0.3,0.4-0.5,0.5c-0.1-0.3-0.2-0.6-0.2-0.9c0-0.2,0.2-0.5,0.4-0.7
		c0.3-0.5,0.8-1.3,0.7-1.4c-0.6-0.6-1.3-1.1-2.1-1.4c-0.5-0.2-0.5,0-0.2-0.8c0.1-0.2-0.2-0.9-0.4-0.9c-0.6-0.1-1.3,0.1-1.9,0.1
		c-1.2,0-2.3-0.1-3.5-0.2c-0.3,0-0.6-0.5-0.8-0.7c0.4,0,0.8,0,1.2,0c0.3,0,0.6,0.3,0.9,0.2c0.7,0,1.4-0.2,2-0.3
		c-0.5-0.5-0.9-1-1.4-1.4c-1.1-0.9-2.3-1.8-3.3-2.7c-1.6-1.5-5-0.7-5.7,1.4c-0.1,0.3-0.2,0.5-0.4,0.7c-0.2-0.3-0.6-0.8-0.5-0.9
		c0.6-0.8,1.3-1.6,2.1-2.3c0.6-0.5,1.4-0.7,2.1-1c0.2-0.1,0.3-0.4,0.4-0.5c-0.2-0.1-0.4-0.3-0.6-0.2c-0.4,0-0.8,0.2-1.1,0.3
		c-0.2,0-0.4-0.1-0.6-0.2c0.2-0.1,0.3-0.3,0.5-0.3c2.3-0.7,0.9-2.2,0.3-2.7c-2-1.7-3.2-4.4-5.8-5.4C101.8,24.2,101.8,24,101.8,23.9z
		 M156,17.4c-0.8-0.5-1.2-1.8-2.5-0.8c-0.2,0.1-0.6,0-0.9-0.1c0.2-0.3,0.3-0.7,0.6-0.8c1.4-0.6,2.9-1.2,4.4-1.8
		c0.5-0.2,1-0.5,1.5-0.7c-0.6,0-1.2-0.1-1.8,0c-2.5,0.6-5.1,1.3-7.6,2c-0.3,0.1-0.6,0.1-0.9,0.1c0.2-0.2,0.3-0.5,0.5-0.7
		c0.2-0.2,0.6-0.3,0.9-0.4c0.3-0.2,0.6-0.4,0.9-0.6c-0.4-0.1-0.8-0.4-1.2-0.4c-2.5,0-5,0.2-7.5,0.1c-1,0-1.9-0.5-2.9-0.7
		c0.5-1.6-0.6-0.9-1.2-0.8c-2.6,0.6-5.1,1.5-7.8,1.9c-2.2,0.4-4.6,0.6-6.8,0.2c-1.9-0.4-3.3,0.2-4.8,0.9c-0.2,0.1-0.3,0.4-0.5,0.6
		c0.2,0.1,0.4,0.2,0.7,0.2c0.4,0.1,0.8,0,1.2,0.1c0.2,0,0.4,0.2,0.7,0.3c-0.2,0.1-0.5,0.2-0.7,0.3c-3,0.3-6,0.9-8.6,2.6
		c-0.2,0.1-0.5,0.3-0.7,0.3c-2-0.4-1.1,0.7-0.6,1.4c0.3,0.5,0.8,0.8,1.2,1.3c0.4,0.6,0.7,1.3,1.1,1.9c-0.5-0.2-1-0.5-1.6-0.6
		c-0.6-0.1-1.3,0-1.9,0c0.2,0.4,0.5,0.8,0.6,1.2c0.1,0.2-0.2,0.4-0.4,0.6c-1.2-0.7-0.9,0.2-0.9,0.8c0.1,1.4,0.8,2.3,2.2,2.7
		c0.5,0.1,0.9,0.6,1.3,0.9c-0.5,0.1-1,0.2-1.4,0.4c-0.4,0.2-0.7,0.6-1,0.9c0.4,0.2,0.7,0.5,1.1,0.5c0.7,0.1,1.5,0,2.2,0.1
		c0.9,0.1,1.7,0.5,2.5,0.7c-0.8,0-1.7,0-2.5,0c-0.7,0-1.5,0.2-2.2,0.3c0.7,0.2,1.3,0.3,1.9,0.5c0.7,0.2,1.3,0.6,2,0.9
		c-0.7,0-1.4,0-2,0c-0.3,0-0.6,0.1-0.9,0.2c0.2,0.3,0.2,0.6,0.5,0.8c1,0.9,2.1,1.8,3.2,2.7c0.6,0.5,1.4,1.1,1.4-0.5
		c0-0.4,0.7-0.9,1.1-1.2c0.1-0.1,0.8,0.3,0.8,0.6c0.5,2.7,2.1,2.1,3.8,1.3c0.4-0.2,0.7-0.3,1.1-0.4c0.2,0,0.5,0,0.7,0.1
		c-0.2,0.2-0.4,0.4-0.6,0.5c-0.9,0.4-1.8,0.7-2.7,1.1c-0.2,0.1-0.1,0.5-0.2,0.8c1.4-0.7,1.7,0.8,2.5,1.2c2.3,1.3,6.1,0.5,7.8-1.5
		c0.2-0.3,0.5-0.5,0.8-0.8c0,0.4,0,0.7-0.1,1.1c-0.1,0.3-0.2,0.6-0.3,0.8c0.3-0.1,0.6-0.1,0.9-0.2c2.8-0.9,5.6-1.9,8.4-2.8
		c1.9-0.6,3.8-1.2,5.8-1.9c0.3-0.1,0.6-0.2,1-0.3c-0.1,0.3-0.2,0.8-0.5,1c-0.8,0.5-1.8,0.9-2.6,1.2c-0.5,0.2-1.1,0.3-1.6,0.6
		c-1.6,1-3.2,2.1-4.8,3.1c-0.7,0.5-1.5,0.8-2.3,1.2c-0.2,0.1-0.3,0.4-0.5,0.6c0.3,0,0.5,0.1,0.8,0.2c2.1,0.8,4.2,0.7,6.4,0.3
		c1.4-0.2,2.8-0.3,4.2-0.5c1-0.2,2.1-1,2.9-0.8c1.6,0.3,2.5,0.2,3-1.4c0-0.1,0.5-0.2,0.7-0.2c3.1,1.1,5.2-1,7.6-2.2
		c0.1-0.1,0.2-0.3,0.3-0.5c-0.1,0-0.2,0-0.3,0c-0.4,0-0.9,0.1-1.3,0.2c0.4-0.3,0.8-0.7,1.1-1c0.5-0.4,1.1-0.8,1.5-1.3
		c0.3-0.4,0.1-1.1,0.2-1.7c-0.4,0.2-0.9,0.3-1.3,0.5c-0.3,0.2-0.5,0.4-0.8,0.6c-0.3,0.2-0.6,0.4-0.9,0.6c0.2-0.4,0.2-1,0.5-1.1
		c2.8-1.5,3.7-4.6,5.7-6.6c0.2-0.2,0.2-0.5,0.4-0.8c-0.2,0.1-0.5,0.1-0.7,0.2c-0.7,0.5-1.4,1.1-2,1.7c0.1-0.9,0.3-1.9,0.4-2.8
		c0-0.1,0.1-0.2,0.1-0.4c0-0.2,0.1-0.5,0.1-0.8c-0.2,0.2-0.4,0.4-0.6,0.6c-0.1,0.2-0.3,0.4-0.4,0.6c0-0.2-0.1-0.5-0.1-0.8
		c0-0.4,0.1-0.7,0.1-1.1c-0.4,0.1-0.7,0.2-1.1,0.4c-0.6,0.3-1.2,0.6-1.8,1c0.5-0.6,0.9-1.2,1.4-1.8c0.4-0.4,0.9-0.6,1.2-1
		c0.2-0.3,0.3-1.1,0.2-1.1c-2.1-1.2-0.3-2,0.2-2.9c0.3-0.5,0.6-1,0.8-1.6c0.1-0.2-0.1-0.6-0.1-0.9c-0.2,0.1-0.4,0.3-0.6,0.5
		c-1.2,1.2-2.5,2.3-3.4,3.8c-0.6,1-1.2,2.6-0.8,3.7c0.4,1.1,0.2,1.5-0.7,1.9c-0.2,0.1-0.4,0.5-0.3,0.7c0.1,0.3,0.3,0.6,0.5,0.9
		c-0.4,0.1-0.7,0.3-1.1,0.3c-1,0.1-0.9,0.1-0.6,0.8c0.1,0.2-0.1,0.7-0.2,0.8c-1.8,0.6-3.1,2.3-5.3,1.7c-0.5-0.1-1.6,0-1.8,0.4
		c-0.8,1.5-2,1.5-3.4,1.6c-3.1,0.2-6.3,0.5-9.4,0.8c-0.5,0-0.9,0.6-1.4,0.9c0.4,0.1,0.8,0.2,1.2,0.3c0.3,0.1,0.5,0.3,0.7,0.5
		c-0.1,0.1-0.3,0.3-0.4,0.3c-1.6,0-3.2,0.3-4.7,0c-2.2-0.5-4.2-1.5-6.3-2.2c-0.4-0.2-0.8-0.2-1.2-0.4c0.4,0,0.9-0.1,1.3-0.1
		c0.6,0.1,1.2,0.1,1.7,0.3c2.2,0.8,4.2,0.2,6.4-0.6c3.6-1.4,7.4-2.2,11.1-3.3c-0.6,0.3-1.1,0.6-1.7,0.8c-1.7,0.6-3.3,1.1-5,1.7
		c-0.2,0.1-0.4,0.2-0.7,0.4c0.3,0,0.5,0.2,0.8,0.1c2.2-0.1,4.4-0.2,6.6-0.4c0.9-0.1,1.9-0.5,2.8-0.8c-1-0.6-1.9-1.2-2.9-1.8
		c-1.4-0.1-2.9-0.6-4.2-0.3c-2.4,0.6-4.7,1.7-7,2.5c-0.4,0.2-1,0.1-1.5,0.1c0.3-0.4,0.6-0.7,0.9-1.1c0.1-0.1,0.1-0.4,0.2-0.5
		c-1.5-0.3-3-0.7-4.6-1c-0.8-0.1-1.7-0.1-2.6-0.1c0.7,0.4,1.4,0.7,2,1.1c0.3,0.2,0.5,0.5,0.8,0.7c-0.4,0-0.8,0.1-1.1,0
		c-2.4-0.8-5-1.4-7.2-2.5c-1.5-0.7-2.9-2-3.8-3.4c-0.8-1.4,2.2-7.6,3.7-8.5c0.3-0.2,0.6-0.2,0.9-0.3c-0.2,0.3-0.3,0.6-0.5,0.9
		c-0.4,0.6-1,1.2-1.3,1.9c-0.4,0.9-0.6,1.8-0.8,2.8c0.6-0.7,1.2-1.3,1.8-2c0.1-0.1,0.2-0.3,0.4-0.4c0,0,0.3,0.1,0.3,0.2
		c0.3,0.6,0.2,0.6,0.7,0.1c1.3-1.2,2.2-3,4.4-2.8c0.7,0.1,1.4,0.3,2.1,0.3c2.7-0.1,5.4-0.4,8-0.5c1.1-0.1,2.2,0,3.3-0.1
		c-0.8-0.6-1.7-1.1-2.5-1.7c-0.4-0.3-0.5-0.8-0.8-1.2c0.4,0,1-0.3,1.3-0.1c2.7,1.7,6.1,0.8,8.7,2.8c0.2,0.1,0.7,0,0.9-0.2
		c1.6-1,3.2-1.7,4.6,0.3c1,1.3,1.8,2.8,2.7,4.2c0.2,0.3,0.4,0.7,0.6,1c0.1-0.3,0.2-0.6,0.3-0.9c0.1-0.1,0.2-0.2,0.3-0.4
		c0.1,0.1,0.2,0.2,0.3,0.3c0.1,0.5,0.1,1,0.1,1.5c0,0.5,0,0.9,0,1.4c0.5-0.3,1.1-0.5,1.4-1c1.2-1.8,0.8-3.9-0.7-5.3
		C156.5,18.1,156.3,17.8,156,17.4c0.4,0.2,0.9,0.4,1.3,0.6c0.8,0.5,1.8,1.7,2.3,1.5c0.9-0.3,1.6-1.5,2.3-2.3
		c0.3-0.3,0.4-0.7,0.7-1.1c-0.4-0.1-0.9-0.3-1.3-0.2C159.5,16.4,157.7,16.9,156,17.4z M150.5,27.3c0.2,0.2,0.5,0.4,0.7,0.6
		c0.7-0.4,1.9-0.7,2.1-1.3c0.3-1.1,0.4-2.6,0-3.7c-0.4-1-1.5-1.7-2.4-2.4c-0.1-0.1-0.6,0.2-0.8,0.3c-1.2,0.9-2.5-1.3-3.6,0.3
		c-0.1-0.1-0.2-0.3-0.4-0.4c-0.4-0.3-0.8-0.7-1.3-0.8c-3.5-0.5-7-1-10.5-1.2c-5.4-0.4-9.2,2.9-12.7,6.4c-0.2,0.2-0.2,0.7-0.3,1
		c0.3-0.1,0.7-0.1,0.9-0.2c2.3-1.6,4.7-2.2,7.4-1.6c0.4,0.1,1.1-0.3,1.3-0.7c2.2-3.4,6.3-5.1,10.1-3.8c1.1,0.4,2.2,1.1,2.8,2
		c1.2,2,2,4.3,3.1,6.4c0.2,0.4,0.7,0.7,1.1,0.7c0.6,0.1,1.3,0,1.9-0.3C150.1,28.3,150.3,27.7,150.5,27.3z M194.5,69.7
		c0.2,0,0.9-0.2,1.6-0.3c-0.4-0.6-0.7-1.2-1.1-1.8c-0.9-1.4-1.7-2.9-2.8-4c-1.5-1.6-3.2-3.1-5.1-4.1c-1.5-0.8-3.6-0.5-5.3-1
		c-1.5-0.4-2.2-1.3-1.3,1.3C183.2,67.2,187.1,69.1,194.5,69.7z M137.1,62c2.2-0.7,4.5-1.5,6.8-2.3c0.2-0.1,0.3-0.3,0.4-0.4
		c1-1.5,2-2.9,2.8-4.5c1-1.9,0.6-2.4-1.6-2.5C139,52,135,56.5,130.4,60c0,0,0.2,0.6,0.4,0.6C132.8,61.1,134.8,61.5,137.1,62z
		 M148.8,70.7c0.1,0.8,0.4,2.3,0.7,3.8c0.1,0.5,0.4,1.1,0.6,1.6c0.4-0.4,0.9-0.8,1.2-1.2c1.8-2.5,3.9-4.8,5.2-7.6
		c1.1-2.4,1.4-5.2,1.9-7.8c0.2-1.1-0.5-1.3-1.6-0.9C152.1,60.5,148.9,65.1,148.8,70.7z M168.8,68.9c-0.2-2-0.2-4.9-2.1-7.2
		c-0.5-0.6-1.1-1-1.7-1.5c-0.3,0.6-0.7,1.1-0.8,1.7c-0.5,2.2-1.4,4.4-1.4,6.6c0,2.2,0.8,4.5,1.4,6.7c0.2,1,0.6,2,0.9,3
		c0,0.1,0.7,0.2,0.8,0.1C167.3,75.6,169,73,168.8,68.9z M178.6,44.3c0,0,0,0.1,0,0.1c-1.5,0-3,0-4.5,0c-2.2,0-3.6,1.3-4.6,3.2
		c-1.1,2.1-0.8,2.7,1.5,3.1c3.2,0.6,9.9-2.8,11.4-5.8c0.1-0.1-0.3-0.6-0.5-0.6C180.9,44.2,179.8,44.3,178.6,44.3z M140.6,23.9
		c0.5,0,0.9,0,1.3,0.1c1.6,0.4,1.5-0.4,1.1-1.4c-0.1-0.4-0.4-0.7-0.6-1c-2.5-2.5-9.6-0.8-10.3,2.6c-0.2,0.8,0.8,1.9,1.3,2.8
		c0.5-0.3,1-0.5,1.4-0.9C136.4,24.5,138.5,24,140.6,23.9z M144.5,65.8c-0.2-0.9-0.3-1.8-0.7-2.6s-1.1-1.5-1.6-2.2
		c-0.8,0.7-2.1,1.3-2.4,2.2c-1.2,3.3-0.2,6.3,1.7,9c0.1,0.1,0.7,0.1,0.7,0C143,70.2,143.8,68,144.5,65.8z M158.6,48.7
		c2.1-0.1,9.1-5.4,9.4-7.2c0-0.1-0.4-0.4-0.6-0.4c-2.2,0.7-4.5,1.5-6.7,2.2c-2,0.6-2.9,2.1-3.2,4C157.3,48.3,157.2,49.2,158.6,48.7z
		 M141.8,28.3c0,0.1,0.1,0.3,0.1,0.4c0.5,0,1.1,0,1.6,0c0.6-0.1,1.2-0.3,1.8-0.4c-0.3-0.7-0.5-1.4-1-2c-0.3-0.4-0.9-0.7-1.4-1
		c-2.6-1.1-6.2,0-8.1,2.4c-0.3,0.4-0.4,1-0.6,1.5c0.6,0.1,1.2,0.4,1.8,0.3C137.9,29.1,139.8,28.6,141.8,28.3z M126.6,25.1
		c-0.8,0.4-2.3,1-3.8,1.8c-0.4,0.2-0.9,1.2-0.8,1.4c0.4,0.5,1.1,1.1,1.7,1.1c2.5,0.1,4.9,0,7.4,0.1c1.2,0,1.3-0.5,1.1-1.5
		C131.8,26.3,129.8,25.1,126.6,25.1z M140.9,38.5c-1.6,0.4-3.2,0.6-4.7,1.2c-1.7,0.7-3.3,1.8-4.9,2.8c-0.2,0.1-0.3,0.4-0.4,0.6
		c0.2,0,0.4,0.2,0.5,0.1c3.3-1.3,6.6-2.6,9.8-4c0.2-0.1,0.3-0.4,0.5-0.5C141.4,38.6,141.2,38.5,140.9,38.5z"/>
	<path d="M145.6,41.8c-0.2-0.1-0.7-0.4-1.3-0.7c0.5-0.2,0.9-0.5,1.4-0.6c4-1.2,7.6-2.8,9.6-6.8c0.1-0.2,0.2-0.3,0.4-0.4
		c0,0.2,0.1,0.5,0,0.7c-0.4,0.8-0.9,1.6-1.4,2.3c-0.2,0.3-0.4,0.6-0.6,1c0.4-0.2,0.8-0.3,1.1-0.6c1-1.3,2-2.7,3-4.1
		c0.1-0.2,0.4-0.3,0.5-0.5c0,0.2,0.1,0.5,0,0.7C157.2,36.7,150.4,41.7,145.6,41.8z"/>
</g>
</svg>
